<?xml version="1.0" encoding="utf-8"?>
<!-- Generator: Adobe Illustrator 24.2.3, SVG Export Plug-In . SVG Version: 6.00 Build 0)  -->
<svg version="1.1" id="Layer_1" xmlns="http://www.w3.org/2000/svg" xmlns:xlink="http://www.w3.org/1999/xlink" x="0px" y="0px"
	 viewBox="0 0 295.4 338.6" style="enable-background:new 0 0 295.4 338.6;" xml:space="preserve">
<style type="text/css">
	.st0{fill:#FFFFFF;}
	.st1{fill:#E4E5E6;}
	.st2{fill:url(#SVGID_1_);}
	.st3{fill:url(#SVGID_2_);}
	.st4{fill:url(#SVGID_3_);}
	.st5{fill:url(#SVGID_4_);}
	.st6{fill:url(#SVGID_5_);}
	.st7{fill:url(#SVGID_6_);}
	.st8{fill:url(#SVGID_7_);}
	.st9{fill:url(#SVGID_8_);}
	.st10{fill:#111111;}
</style>
<path class="st0" d="M15.8,204.6c0-30.5,14.3-41.9,17.2-71c-3.9,25.4-20.8,45.9-20.8,71c0,9.7,1.4,18.3,3.6,26.2
	c10.4,35.1,41.9,54.5,72,62.4C41.6,281.3,15.8,241.9,15.8,204.6L15.8,204.6z M282.8,204.6c0-15.8-4.3-28.3-9-39.8
	c-5.7-13.6-11.8-26.2-11.8-41.6c0,36.9,17.6,47.7,17.6,81.4c0,37.3-25.4,76.7-72,88.5C249.5,282.4,282.8,251.6,282.8,204.6
	L282.8,204.6z"/>
<path class="st1" d="M267.4,56.9c-9.7-2.9-16.5-10-20.8-21.5l-9.3-26.5l-4.7,16.8c9.3,41.2,43,44.1,43,44.1l13.6-6.5L267.4,56.9z
	 M107.5,207.1L90,179.9l-19.7,14.7c0,0,6.8,0.4,6.8,7.5v51.3l14-10.4v-36.2l15.8,24.4l14.7-11.1v-63.8l-14,10.4L107.5,207.1z
	 M164.2,147.6l-15.8,11.8v-23.7l-21.1,15.8c0,0,6.8,0.4,6.8,7.5v51.3l14.3-10.8v-23.3l15.8-11.8v23.7l13.6-10v-64.2l-13.6,10.4
	V147.6z M203.6,141.9V94.2L182.4,110c0,0,6.8,0.4,6.8,7.5v51.3l39.4-29.8c-0.7-10,0-16.1,0-16.1L203.6,141.9z"/>
<linearGradient id="SVGID_1_" gradientUnits="userSpaceOnUse" x1="-281.0334" y1="565.3748" x2="-271.1207" y2="565.3748" gradientTransform="matrix(3.5844 0 0 -3.5844 1010.4982 2176.6377)">
	<stop  offset="0.11" style="stop-color:#FFFFFF"/>
	<stop  offset="0.24" style="stop-color:#DCDFE1"/>
	<stop  offset="0.44" style="stop-color:#A8AFB3"/>
	<stop  offset="0.54" style="stop-color:#949CA1"/>
</linearGradient>
<path class="st2" d="M23.7,123.2c0,36.2-17.9,43.4-17.9,81.4c0,11.5,1.8,22.6,5.4,32.3c1.1-2.2,2.9-4.7,4.7-6.1
	c-2.5-7.9-3.6-16.5-3.6-26.2c0-24.7,16.8-45.5,20.8-71c0.4-3.2,0.4-6.8,0.4-10.4c0.4-29-13.6-53.4-13.6-53.4L6.1,63.4l9.3,21.1
	C20.1,95.3,23.7,108.5,23.7,123.2L23.7,123.2z"/>
<linearGradient id="SVGID_2_" gradientUnits="userSpaceOnUse" x1="-204.966" y1="561.2747" x2="-204.966" y2="589.5247" gradientTransform="matrix(3.5844 0 0 -3.5844 1010.4982 2176.6377)">
	<stop  offset="0" style="stop-color:#FFFFFF"/>
	<stop  offset="0.35" style="stop-color:#FFFFFF"/>
	<stop  offset="0.56" style="stop-color:#949CA1"/>
	<stop  offset="1" style="stop-color:#949CA1"/>
</linearGradient>
<path class="st3" d="M262,123.2c0,15.4,6.1,27.6,11.8,41.6l7.5-0.4c-4.7-11.5-9.3-22.6-9.3-41.2c0-14.7,3.6-28,8.2-38.7l9.3-21.1
	l-14,6.5C275.6,69.8,262,94.2,262,123.2z"/>
<linearGradient id="SVGID_3_" gradientUnits="userSpaceOnUse" x1="-278.716" y1="528.9747" x2="-240.666" y2="528.9747" gradientTransform="matrix(3.5844 0 0 -3.5844 1010.4982 2176.6377)">
	<stop  offset="0.15" style="stop-color:#FFFFFF"/>
	<stop  offset="0.21" style="stop-color:#FAFAFA"/>
	<stop  offset="0.29" style="stop-color:#EBECED"/>
	<stop  offset="0.37" style="stop-color:#D2D5D7"/>
	<stop  offset="0.45" style="stop-color:#AFB5B9"/>
	<stop  offset="0.51" style="stop-color:#949CA1"/>
</linearGradient>
<path class="st4" d="M136.9,304.2c-11.1-3.9-26.5-5.4-48.7-11.1c-30.5-7.5-61.7-27.2-72-62.4c-1.8,1.8-3.6,3.9-4.7,6.1
	c11.8,33.7,41.9,57.4,74.2,66c20.8,5.4,30.5,5.7,45.9,10c2.2,2.2,16.1,17.6,16.1,17.6v-14.7C147.7,315.7,138.4,305.3,136.9,304.2
	L136.9,304.2z"/>
<linearGradient id="SVGID_4_" gradientUnits="userSpaceOnUse" x1="-218.1365" y1="530.946" x2="-263.2473" y2="595.3528" gradientTransform="matrix(3.5844 0 0 -3.5844 1010.4982 2176.6377)">
	<stop  offset="0" style="stop-color:#949CA1"/>
	<stop  offset="1.000000e-02" style="stop-color:#99A1A6"/>
	<stop  offset="0.12" style="stop-color:#C2C6C8"/>
	<stop  offset="0.2" style="stop-color:#DBDDDE"/>
	<stop  offset="0.25" style="stop-color:#E4E5E6"/>
	<stop  offset="0.75" style="stop-color:#E4E5E6"/>
	<stop  offset="0.8" style="stop-color:#DCDEDF"/>
	<stop  offset="0.87" style="stop-color:#C7CACD"/>
	<stop  offset="0.97" style="stop-color:#A3AAAE"/>
	<stop  offset="1" style="stop-color:#949CA1"/>
</linearGradient>
<path class="st5" d="M90.7,283.1c24.7,6.1,40.9,6.8,51.6,12.2c0,0,3.9,3.6,5.4,5.4c1.4-1.8,5.4-5.4,5.4-5.4
	c10.8-5.4,26.9-6.1,51.6-12.2c31.2-7.9,64.9-35.5,64.9-78.5c0-30.8-17.6-42.3-17.6-81.4c0-26.5,10-47,10-47s-22.9-4.7-33.7-33.7
	c0,0-15.4,14.3-36.6,14.3c-26.5,0-44.1-18.6-44.1-18.6s-17.6,18.6-44.1,18.6C82.4,56.9,67,42.6,67,42.6
	c-10.8,29-33.7,33.7-33.7,33.7s10,20.4,10,47c0,39.1-17.6,50.5-17.6,81.4C25.8,248,59.5,275.2,90.7,283.1z M258.4,204.6
	c0,36.6-29,60.6-56.3,67.7c-19.7,5-43.4,7.5-50.9,11.8c-1.8,1.1-3.6,3.2-3.6,3.2s-2.2-2.2-3.6-3.2c-7.2-3.9-31.2-6.8-50.9-11.8
	c-0.7-0.4-1.4-0.4-2.2-0.7l154.1-115.8C250.5,174.5,258.4,186.3,258.4,204.6L258.4,204.6z M247.3,82.7c-3.2,9.3-6.8,24-6.8,40.5
	c0,6.8,0.4,13.3,1.4,18.6l-165.2,124c-20.8-10.8-38.7-31.2-39.8-59.1l190-142.7C233.7,73.4,241.2,79.1,247.3,82.7z M54.8,123.2
	c0-16.8-3.6-31.2-6.8-40.5c7.2-3.9,16.5-11.1,23.7-23.3c7.9,4.3,19,9,31.9,9c19.7,0,35.1-8.6,44.1-15.1c9,6.5,24.4,15.1,44.1,15.1
	c3.2,0,6.1-0.4,9-0.7L39.1,188.8C43.7,170.5,54.8,155.5,54.8,123.2z"/>
<linearGradient id="SVGID_5_" gradientUnits="userSpaceOnUse" x1="-265.646" y1="599.4747" x2="-240.696" y2="599.4747" gradientTransform="matrix(3.5844 0 0 -3.5844 1010.4982 2176.6377)">
	<stop  offset="0.25" style="stop-color:#FFFFFF"/>
	<stop  offset="0.34" style="stop-color:#FAFAFA"/>
	<stop  offset="0.45" style="stop-color:#EBECED"/>
	<stop  offset="0.57" style="stop-color:#D2D5D7"/>
	<stop  offset="0.7" style="stop-color:#AFB5B9"/>
	<stop  offset="0.79" style="stop-color:#949CA1"/>
</linearGradient>
<path class="st6" d="M103.6,46.9c26.5,0,44.1-22.6,44.1-22.6V10l-14,13.6c-7.2,7.2-18.6,12.9-30.1,12.9c-8.6,0-16.8-3.9-23.7-9.7
	L58.4,8.9l4.7,16.8C62.7,25.7,83.2,46.9,103.6,46.9z"/>
<linearGradient id="SVGID_6_" gradientUnits="userSpaceOnUse" x1="-240.716" y1="538.2247" x2="-201.116" y2="538.2247" gradientTransform="matrix(3.5844 0 0 -3.5844 1010.4982 2176.6377)">
	<stop  offset="0.2" style="stop-color:#FFFFFF"/>
	<stop  offset="0.33" style="stop-color:#FAFBFB"/>
	<stop  offset="0.47" style="stop-color:#EDEEEF"/>
	<stop  offset="0.63" style="stop-color:#D7DADC"/>
	<stop  offset="0.79" style="stop-color:#B8BDC1"/>
	<stop  offset="0.93" style="stop-color:#949CA1"/>
</linearGradient>
<path class="st7" d="M282.8,204.6c0,47-33.3,77.8-75.6,88.5c-22.2,5.7-37.6,7.2-48.7,11.1c-1.4,1.4-10.8,11.5-10.8,11.5v14.7
	c0,0,14.3-15.4,16.1-17.6c15.4-4.3,25.1-4.7,45.9-10c41.9-10.8,79.9-47.3,79.9-98.2c0-18.3-3.9-29.4-8.2-40.1l-7.5,0.4
	C278.5,176.3,282.8,188.8,282.8,204.6L282.8,204.6z"/>
<linearGradient id="SVGID_7_" gradientUnits="userSpaceOnUse" x1="-240.696" y1="599.4747" x2="-215.746" y2="599.4747" gradientTransform="matrix(3.5844 0 0 -3.5844 1010.4982 2176.6377)">
	<stop  offset="0.25" style="stop-color:#FFFFFF"/>
	<stop  offset="0.34" style="stop-color:#FAFAFA"/>
	<stop  offset="0.45" style="stop-color:#EBECED"/>
	<stop  offset="0.57" style="stop-color:#D2D5D7"/>
	<stop  offset="0.7" style="stop-color:#AFB5B9"/>
	<stop  offset="0.79" style="stop-color:#949CA1"/>
</linearGradient>
<path class="st8" d="M191.8,46.9c20.4,0,40.9-20.8,40.9-20.8l4.7-17.2l-21.5,17.9c-7.2,5.7-15.1,9.7-23.7,9.7
	c-11.5,0-22.9-5.7-30.1-12.9L148,10v14C147.7,24.3,165.2,46.9,191.8,46.9L191.8,46.9z"/>
<linearGradient id="SVGID_8_" gradientUnits="userSpaceOnUse" x1="-280.246" y1="596.2747" x2="-264.386" y2="596.2747" gradientTransform="matrix(3.5844 0 0 -3.5844 1010.4982 2176.6377)">
	<stop  offset="0.39" style="stop-color:#FFFFFF"/>
	<stop  offset="0.47" style="stop-color:#FAFAFA"/>
	<stop  offset="0.57" style="stop-color:#EBECED"/>
	<stop  offset="0.67" style="stop-color:#D2D5D7"/>
	<stop  offset="0.79" style="stop-color:#AFB5B9"/>
	<stop  offset="0.87" style="stop-color:#949CA1"/>
</linearGradient>
<path class="st9" d="M62.7,25.7L58.4,8.9l-9.7,26.5C44.4,46.9,37.6,54.1,28,56.9L6.1,63.4l13.6,6.5C19.7,69.8,53.8,67,62.7,25.7z"/>
<path class="st10" d="M39.1,188.8L200.7,67.3c-2.9,0.4-6.1,0.7-9,0.7c-19.7,0-35.1-8.6-44.1-15.1c-9,6.5-24.4,15.1-44.1,15.1
	c-12.9,0-24-4.3-31.9-9C64.5,71.3,55.2,78.4,48,82.4c3.2,9.3,6.8,24,6.8,40.5C54.8,155.5,43.7,170.5,39.1,188.8L39.1,188.8z
	 M91,271.6c0.7,0.4,1.4,0.4,2.2,0.7c19.7,5,43.4,7.5,50.9,11.8c1.8,1.1,3.6,3.2,3.6,3.2s2.2-2.2,3.6-3.2c7.2-3.9,31.2-6.8,50.9-11.8
	c27.2-6.8,56.3-30.8,56.3-67.7c0-18.3-7.9-30.1-13.3-48.7L91,271.6z M19.4,123.2c0,34.8-17.9,42.7-17.9,81.4
	c0,55.6,43,92.1,83.2,102.5c20.1,5,26.2,5.4,44.4,9.7c1.4,1.4,18.6,20.1,18.6,20.1s17.2-18.3,18.6-20.1c18.3-4.7,24.4-4.7,44.4-9.7
	c40.1-10.4,83.2-47,83.2-102.5c0-38.7-17.9-46.6-17.9-81.4c0-12.5,2.5-25.1,7.9-36.9l11.5-25.8L268.8,53c-8.2-2.5-14-8.6-17.9-18.6
	L239.1,2.1l-26.5,21.9c-6.8,5.7-14,8.6-21.1,8.6c-9.3,0-20.1-4.7-26.9-11.5L147.7,4.2l-16.8,16.8c-7.2,7.2-17.6,11.5-26.9,11.5
	c-6.8,0-14-2.9-21.1-8.6L56.3,1.7L44.4,34c-3.6,10-9.7,16.5-17.9,18.6L0,60.9l11.5,25.8C16.5,98.1,19.4,110.7,19.4,123.2L19.4,123.2
	z M28,56.9c9.7-2.9,16.5-10,20.8-21.5l9.7-26.5l21.5,17.9c7.2,5.7,15.1,9.7,23.7,9.7c11.5,0,22.9-5.7,30.1-12.9l14-13.6l14,13.6
	c7.2,7.2,18.6,12.9,30.1,12.9c8.6,0,16.8-3.9,23.7-9.7l21.5-17.9l9.7,26.5c4.3,11.5,11.1,18.6,20.8,21.5l21.9,6.5l-9.3,21.1
	c-4.7,10.8-8.2,23.7-8.2,38.7c0,18.6,4.7,29.8,9.3,41.2c4.3,10.8,8.2,21.9,8.2,40.1c0.4,50.9-37.6,87.5-79.6,98.2
	c-20.8,5.4-30.5,5.7-45.9,10c-2.2,2.2-16.1,17.6-16.1,17.6s-14.3-15.4-16.1-17.6c-15.4-4.3-25.1-4.7-45.9-10
	c-32.3-8.2-62.4-31.9-74.2-66c-3.6-10-5.4-20.8-5.4-32.3c-0.4-38,17.6-45.2,17.6-81.4c0-14.7-3.6-28-8.2-38.7L6.1,63.4L28,56.9z
	 M76.7,265.9l165.2-124c-0.7-5.7-1.4-11.8-1.4-18.6c0-16.8,3.6-31.2,6.8-40.5c-6.1-3.6-14-9-20.4-18.3l-190,142.7
	C38,235.1,56.3,255.5,76.7,265.9z M203.6,94.2v47.3l25.1-19c0,0-0.7,6.1,0,16.1l-39.4,29.8v-50.5c0-7.2-6.8-7.5-6.8-7.5L203.6,94.2z
	 M148.4,135.8v23.7l15.8-11.8v-23.7l13.6-10.4v63.8l-13.6,10.8v-23.3l-15.8,11.8v23.3l-14.3,10.8v-51.3c0-7.2-6.8-7.5-6.8-7.5
	L148.4,135.8z M90,179.9l17.6,27.2v-40.5l14-10.4V220l-14.7,11.1L91,206.7v36.2l-14,10.4v-51.3c0-7.2-6.8-7.5-6.8-7.5L90,179.9z
	 M33,133.6c-2.9,29-17.2,40.5-17.2,71c0,37.3,25.8,76.7,72.4,88.5c22.2,5.7,37.6,7.2,48.7,11.1c1.4,1.4,10.8,11.5,10.8,11.5
	s9.3-10,10.8-11.5c11.1-3.9,26.5-5.4,48.7-11.1c47-11.8,72.4-51.3,72.4-88.5c0-34.1-17.6-44.4-17.6-81.4c0-29,13.6-53.4,13.6-53.4
	s-34.1-2.9-43-44.1c0,0-20.4,20.8-40.9,20.8c-26.5,0-44.1-22.6-44.1-22.6s-17.6,22.6-44.1,22.6c-20.4,0-40.9-20.8-40.9-20.8
	c-9,41.2-43,44.1-43,44.1s13.6,24.4,13.6,53.4C33.7,127.2,33.3,130.4,33,133.6z M33.7,76.3c0,0,22.9-4.7,33.7-33.7
	c0,0,15.4,14.3,36.6,14.3c26.5,0,44.1-18.6,44.1-18.6s17.6,18.6,44.1,18.6c21.1,0,36.6-14.3,36.6-14.3c10.8,29,33.7,33.7,33.7,33.7
	s-10,20.4-10,47c0,39.1,17.6,50.5,17.6,81.4c0,43-33.7,70.6-64.9,78.5c-24.7,6.1-40.9,6.8-51.6,12.2c0,0-3.9,3.6-5.4,5.4
	c-1.4-1.8-5.4-5.4-5.4-5.4c-10.8-5.4-26.9-6.1-51.6-12.2c-31.2-7.9-64.9-35.5-64.9-78.5c0-30.8,17.6-42.3,17.6-81.4
	C43.4,96.7,33.7,76.3,33.7,76.3L33.7,76.3z"/>
</svg>
