<?xml version="1.0" encoding="utf-8"?>
<!-- Generator: Adobe Illustrator 24.2.3, SVG Export Plug-In . SVG Version: 6.00 Build 0)  -->
<svg version="1.1" id="Layer_1" xmlns="http://www.w3.org/2000/svg" xmlns:xlink="http://www.w3.org/1999/xlink" x="0px" y="0px"
	 viewBox="0 0 993.4 309.6" style="enable-background:new 0 0 993.4 309.6;" xml:space="preserve">
<g>
	<path d="M800.7,57.1c5.9-24.2-8.2-44.4-21.8-57l132-0.1l-58.3,237.7l140.8,0.2c-4.4,17.8-10.8,39.7-15.3,71.5l-239.4,0.2
		L800.7,57.1L800.7,57.1z"/>
	<path d="M62.2,57.5c6-24.2-7.9-44.3-21.5-57.4l129.7,0l82.9,196.2L301.6,0.1l95.8,0l-75.8,309.5H215.9l-76.2-176.8L96.1,309.6
		l-96.1,0L62.2,57.5z"/>
	<path d="M439.9,57.8c5.8-24.3-8.4-44.6-22.1-57.7H550l-29.4,119.1l112.7,0l28.9-119h96.4l-76,309.5h-96.2l29.4-119.3l-112.6,0.2
		l-29.2,119.1h-96.2L439.9,57.8L439.9,57.8z"/>
</g>
</svg>
