<?xml version="1.0" encoding="utf-8"?>
<!-- Generator: Adobe Illustrator 24.2.3, SVG Export Plug-In . SVG Version: 6.00 Build 0)  -->
<svg version="1.1" id="Layer_1" xmlns="http://www.w3.org/2000/svg" xmlns:xlink="http://www.w3.org/1999/xlink" x="0px" y="0px"
	 viewBox="0 0 1558 576" style="enable-background:new 0 0 1558 576;" xml:space="preserve">
<style type="text/css">
	.st0{fill:#D0D3D4;}
</style>
<path d="M1364.7,172.1c5.9-24.2-8.2-44.4-21.8-57l132-0.1l-58.3,237.7l140.8,0.2c-4.4,17.9-10.8,39.7-15.3,71.5l-239.4,0.2
	L1364.7,172.1L1364.7,172.1z"/>
<path d="M626.2,172.6c6-24.2-7.9-44.3-21.5-57.4l129.7,0l82.9,196.2l48.3-196.2l95.8,0l-75.8,309.5H779.9l-76.2-176.8l-43.6,176.8
	l-96.1,0L626.2,172.6z"/>
<path d="M1003.9,172.9c5.8-24.3-8.4-44.6-22.1-57.7H1114l-29.4,119.1l112.7,0l28.9-119h96.4l-76,309.5h-96.2l29.4-119.3l-112.6,0.2
	L1038,424.7h-96.2L1003.9,172.9L1003.9,172.9z"/>
<path class="st0" d="M467,208.8c0-25.5,6.1-48,14.2-66.3l16-36.4l-37.7-11.1c-16.4-4.8-28.4-17.3-35.5-36.9l-16.6-45.5l-37,30.7
	c-12.2,10.1-26.1,16.7-40.9,16.7c-19.8,0-39.5-9.9-51.7-22l-23.9-23.6l-23.9,23.6c-12.3,12.1-31.9,22-51.7,22
	c-14.8,0-28.7-6.6-40.9-16.7l-37.1-30.7L83.6,58.1c-7.2,19.6-19.1,32-35.5,36.9l-37.7,11.1l16,36.4c8.1,18.3,14.2,40.9,14.2,66.3
	c0,62.1-30.5,74.5-30.5,139.7c0,87.4,65,150.1,137,168.6c35.6,9,52.2,9.9,78.7,17.3c3.4,3.6,28,30.1,28,30.1s24.5-26.5,28-30.1
	c26.5-7.4,43.1-8.3,78.7-17.3c72-18.5,137-81.3,137-168.6C497.5,283.3,467,270.9,467,208.8z M356.2,500.3
	c-38.1,9.6-64.4,12.1-83.8,19.1c-2.5,2.3-18.6,19.8-18.6,19.8s-16.1-17.5-18.6-19.8c-19.4-7-45.7-9.4-83.8-19.1
	C71.1,480,27.2,412.6,27.2,348.5c0-58.2,30.4-76.2,30.4-139.9c0-49.6-23.7-91.5-23.7-91.5s58.2-5.1,73.9-75.8
	c0,0,34.9,35.9,70.3,35.9c45.6,0,75.6-38.7,75.6-38.7s30,38.7,75.6,38.7c35.4,0,70.3-35.9,70.3-35.9c15.8,70.7,74,75.8,74,75.8
	s-23.7,41.9-23.7,91.5c0,63.6,30.4,81.6,30.4,139.9C480.3,412.6,436.4,480,356.2,500.3z"/>
<path class="st0" d="M432.8,208.6c0-45.4,17.2-80.4,17.2-80.4s-39.6-8-58-58.1c0,0-26.3,24.5-62.5,24.5c-45.4,0-75.6-31.9-75.6-31.9
	s-30.2,31.9-75.6,31.9c-36.3,0-62.5-24.5-62.5-24.5c-18.4,50.1-58,58.1-58,58.1s17.2,35,17.2,80.4c0,67.4-30.4,86.8-30.4,139.9
	c0,74.1,57.8,121.3,111.3,134.9c42.4,10.8,70.2,12,88.8,21c0,0,6.8,6.2,9.3,9c2.6-2.9,9.3-9,9.3-9c18.6-9,46.4-10.2,88.8-21
	c53.6-13.6,111.3-60.8,111.3-134.9C463.2,295.5,432.8,276,432.8,208.6z M94.2,208.6c0-28.8-6.2-53.6-11.6-69.7
	c12.5-6.9,28.2-19,40.7-39.9c13.4,7.5,32.5,15.1,54.9,15.1c33.9,0,60.4-14.8,75.6-25.9c15.2,11.1,41.7,25.9,75.6,25.9
	c5.4,0,10.6-0.5,15.6-1.2L67.2,321.5C75.2,290.1,94.2,264.1,94.2,208.6z M132,453.8c-35.5-18.3-66.7-53.3-68.2-101.5l326-244.8
	c11.4,15.8,24.4,25.5,35.1,31.4c-5.4,16.1-11.6,40.9-11.6,69.7c0,12,0.9,22.5,2.3,32.1L132,453.8z M347.1,464.6
	c-33.6,8.6-74.7,12.9-87.1,20c-2.8,2-6.2,5.7-6.2,5.7s-3.4-3.6-6.2-5.7c-12.4-7.1-53.5-11.5-87.1-20c-1.3-0.3-2.5-0.7-3.8-1L421,265
	c9,31.5,22.8,52.1,22.8,83.5C443.8,411.4,393.7,452.8,347.1,464.6z"/>
<path class="st0" d="M184.9,352.5l-30.5-46.6l-33.8,25.4c0,0,11.9,0.3,11.9,12.7v87.8l23.9-17.9v-62.1l27.2,41.7l25.2-18.9V265.1
	L184.9,283V352.5z"/>
<path class="st0" d="M281.6,250.8L254.7,271v-40.5l-36.4,27.3c0,0,11.8,0.3,11.8,12.8v87.8l24.5-18.4v-40l26.9-20.2v40l23.3-17.5
	V192.8l-23.3,17.5L281.6,250.8z"/>
<path class="st0" d="M349.9,240.6v-81.5l-36.4,27.3c0,0,11.9,0.3,11.9,12.7V287l67.7-50.8c-1.5-17.5,0-27.9,0-27.9L349.9,240.6z"/>
<path d="M399.6,41.4c0,0-34.9,35.9-70.3,35.9c-45.6,0-75.6-38.7-75.6-38.7s-30,38.7-75.6,38.7c-35.4,0-70.3-35.9-70.3-35.9
	C92.1,112.1,34,117.2,34,117.2s23.7,41.9,23.7,91.5c0,63.6-30.4,81.6-30.4,139.9c0,64.1,43.9,131.5,124.2,151.8
	c38.1,9.6,64.4,12.1,83.8,19.1c2.5,2.3,18.6,19.8,18.6,19.8s16.1-17.5,18.6-19.8c19.4-7,45.7-9.4,83.8-19.1
	c80.2-20.3,124.2-87.6,124.2-151.8c0-58.2-30.4-76.2-30.4-139.9c0-49.6,23.7-91.5,23.7-91.5S415.4,112.1,399.6,41.4z M432.8,208.6
	c0,67.4,30.4,86.8,30.4,139.9c0,74.1-57.8,121.3-111.3,134.9c-42.4,10.8-70.2,12-88.8,21c0,0-6.8,6.2-9.3,9c-2.6-2.9-9.3-9-9.3-9
	c-18.6-9-46.4-10.2-88.8-21c-53.6-13.6-111.3-60.8-111.3-134.9c0-53,30.4-72.5,30.4-139.9c0-45.4-17.2-80.4-17.2-80.4
	s39.6-8,58-58.1c0,0,26.3,24.5,62.5,24.5c45.4,0,75.6-31.9,75.6-31.9s30.2,31.9,75.6,31.9c36.3,0,62.5-24.5,62.5-24.5
	c18.4,50.1,58,58.1,58,58.1S432.8,163.2,432.8,208.6z"/>
<path d="M431,55.5L410.7,0l-45.2,37.5c-12,9.9-24.2,15-36.1,15c-16,0-34.3-7.8-46.5-19.9L253.8,3.7l-29.1,28.8
	c-12.2,12.1-30.4,19.9-46.4,19.9c-12,0-24.1-5-36.1-15L96.8,0L76.5,55.5c-6.3,17.2-16.6,28.1-30.6,32.2L0,101.3l19.5,44.2
	c9,20.4,13.6,41.7,13.6,63.3c0,59.8-30.5,73.4-30.5,139.7c0,95.6,74,158.2,142.7,175.9c34.7,8.5,45.2,9,76.6,16.7
	c2.6,2.7,32,34.4,32,34.4s29.4-31.7,32-34.4c31.4-7.7,41.9-8.3,76.6-16.7C431,506.7,505,444.1,505,348.5c0-66.4-30.5-80-30.5-139.7
	c0-21.6,4.6-42.9,13.6-63.3l19.5-44.2l-45.9-13.5C447.6,83.6,437.3,72.7,431,55.5z M481.2,142.4c-8.1,18.3-14.2,40.9-14.2,66.3
	c0,62.1,30.5,74.5,30.5,139.7c0,87.4-65,150.1-137,168.6c-35.6,9-52.2,9.9-78.7,17.3c-3.5,3.6-28,30.1-28,30.1s-24.5-26.5-28-30.1
	c-26.5-7.4-43.1-8.3-78.7-17.3c-72-18.5-137-81.3-137-168.6c0-65.2,30.5-77.6,30.5-139.7c0-25.5-6.1-48-14.2-66.3l-16-36.4L48,94.9
	c16.4-4.8,28.4-17.3,35.5-36.9l16.6-45.5l37.1,30.7c12.2,10.1,26.1,16.7,40.9,16.7c19.8,0,39.5-9.9,51.7-22l23.9-23.6l23.9,23.6
	c12.3,12.1,31.9,22,51.7,22c14.8,0,28.7-6.6,40.9-16.7l37-30.7L424,58.1c7.2,19.6,19.1,32,35.5,36.9l37.7,11.1L481.2,142.4z"/>
<path d="M389.8,107.5l-326,244.8c1.6,48.1,32.7,83.2,68.2,101.5l283.7-213c-1.5-9.6-2.3-20.2-2.3-32.1c0-28.8,6.2-53.6,11.6-69.7
	C414.2,133,401.2,123.3,389.8,107.5z M208.8,374.5l-25.2,18.9l-27.2-41.7v62.1l-23.9,17.9V344c0-12.4-11.9-12.7-11.9-12.7l33.8-25.4
	l30.5,46.6V283l23.9-17.9V374.5z M305,302.3l-23.3,17.5v-40L254.7,300v40l-24.5,18.4v-87.8c0-12.4-11.9-12.8-11.9-12.8l36.4-27.3
	V271l26.9-20.2v-40.5l23.3-17.5L305,302.3L305,302.3z M393.1,236.1L325.4,287v-87.8c0-12.4-11.9-12.7-11.9-12.7l36.4-27.3v81.5
	l43.2-32.4C393.1,208.2,391.6,218.6,393.1,236.1z"/>
<path d="M329.4,114.1c-33.9,0-60.4-14.8-75.6-25.9c-15.2,11.1-41.7,25.9-75.6,25.9c-22.4,0-41.4-7.6-54.9-15.1
	c-12.5,20.9-28.2,33-40.7,39.9c5.4,16.1,11.6,40.9,11.6,69.7c0,55.5-18.9,81.4-26.9,112.8L345,112.9
	C340,113.7,334.8,114.1,329.4,114.1z"/>
<path d="M156.6,463.6c1.3,0.4,2.5,0.7,3.8,1c33.6,8.6,74.7,12.9,87.1,20c2.8,2,6.2,5.7,6.2,5.7s3.4-3.6,6.2-5.7
	c12.4-7.1,53.5-11.5,87.1-20c46.6-11.8,96.7-53.2,96.7-116.1c0-31.4-13.8-52-22.8-83.5L156.6,463.6z"/>
<path d="M476.5,519.7c0-10.8-8.8-19.6-19.6-19.6c-10.8,0-19.6,8.8-19.6,19.6c0,10.8,8.8,19.6,19.6,19.6
	C467.7,539.3,476.5,530.5,476.5,519.7z M441.4,519.7c0-8.5,6.9-15.4,15.4-15.4c8.5,0,15.4,6.9,15.4,15.4c0,8.5-6.9,15.4-15.4,15.4
	C448.3,535.1,441.4,528.2,441.4,519.7z"/>
<path d="M464.9,530.9l-4.4-9.5c2.6-0.9,4.4-3.4,4.4-6.3c0-3.7-3-6.7-6.7-6.7h-9.5v22.4h4.2v-9.1h3l4.3,9.1L464.9,530.9z
	 M458.3,517.6H453v-4.9h5.2c1.4,0,2.5,1.1,2.5,2.5C460.7,516.5,459.6,517.6,458.3,517.6z"/>
</svg>
