<?xml version="1.0" encoding="utf-8"?>
<!-- Generator: Adobe Illustrator 26.0.2, SVG Export Plug-In . SVG Version: 6.00 Build 0)  -->
<svg version="1.1" id="Layer_1" xmlns="http://www.w3.org/2000/svg" xmlns:xlink="http://www.w3.org/1999/xlink" x="0px" y="0px"
	 viewBox="0 0 512 512" style="enable-background:new 0 0 512 512;" xml:space="preserve">
<style type="text/css">
	.st0{fill:#010101;}
	.st1{fill:none;}
	.st2{fill:#FFB81C;}
	.st3{fill:#FFFFFF;}
</style>
<g>
	<path class="st0" d="M400.9,438.8c-5.8,0-10.6,4.7-10.6,10.5c0,5.8,4.7,10.5,10.6,10.5s10.5-4.7,10.5-10.5
		C411.4,443.5,406.7,438.8,400.9,438.8L400.9,438.8z M400.9,457.7c-4.6,0-8.3-3.7-8.3-8.3c0-4.6,3.7-8.3,8.3-8.3
		c4.6,0,8.3,3.7,8.3,8.3C409.1,453.9,405.4,457.7,400.9,457.7z M405.2,446.9c0-2-1.6-3.6-3.6-3.6c0,0,0,0,0,0h-5.1v12h2.3v-4.9h1.6
		l2.3,4.9h2.5l-2.4-5.1C404.2,449.8,405.2,448.4,405.2,446.9L405.2,446.9z M401.6,448.2h-2.8v-2.6h2.8c0.7,0,1.3,0.6,1.3,1.3
		C402.9,447.7,402.3,448.2,401.6,448.2z"/>
	<path class="st1" d="M481,256c0-124.1-100.9-225-225-225S31,131.9,31,256s100.9,225,225,225S481,380.1,481,256z"/>
	<path class="st2" d="M256,38.2C135.7,38.2,38.2,135.7,38.2,256S135.7,473.8,256,473.8S473.8,376.3,473.8,256S376.3,38.2,256,38.2z"
		/>
	<path class="st0" d="M256,46.3C140.2,46.3,46.3,140.2,46.3,256S140.2,465.7,256,465.7S465.7,371.8,465.7,256S371.8,46.3,256,46.3
		L256,46.3z"/>
	<g>
		<path class="st2" d="M354.3,174.5l36.1-36.1c-5.2-5.9-10.8-11.5-16.7-16.7L337.3,158L354.3,174.5L354.3,174.5z M267.8,77.9
			c-3.9-0.3-7.8-0.4-11.8-0.4c-4,0-7.9,0.2-11.8,0.4v57.4h23.7C267.8,135.3,267.8,77.9,267.8,77.9z M155.8,139.1l-17.4-17.4
			c-5.9,5.2-11.5,10.8-16.7,16.7l34.2,34.2L155.8,139.1L155.8,139.1z M155.8,339.4l-34.2,34.2c5.2,5.9,10.8,11.5,16.7,16.7
			l17.4-17.4L155.8,339.4L155.8,339.4z M170.9,244.2h-93c-0.3,3.9-0.4,7.8-0.4,11.8c0,4,0.2,7.9,0.4,11.8h93V244.2z M434.1,244.2
			h-78.1L343.9,256l12.2,11.8h78.1c0.3-3.9,0.4-7.8,0.4-11.8C434.5,252,434.4,248.1,434.1,244.2z M337.3,354l36.3,36.3
			c5.9-5.2,11.5-10.8,16.7-16.7l-36.1-36.1L337.3,354z M244.2,434.1c3.9,0.2,7.9,0.4,11.8,0.4c4,0,7.9-0.2,11.8-0.4v-57.4h-23.7
			V434.1L244.2,434.1z"/>
		<path class="st2" d="M165,334.9v32.7h145.2l36.8-35.8v-60L330.8,256l16.2-15.8v-60l-36.8-35.8H165v32.7l15.1,14.7v128.5L165,334.9
			L165,334.9z"/>
	</g>
	<g>
		<path class="st0" d="M297.3,201l-10.3-10h-59.5v41.8H287l10.3-10V201L297.3,201z M297.3,289.3l-10.3-10h-59.5v41.8H287l10.3-10
			V289.3L297.3,289.3z"/>
		<path class="st0" d="M172.6,338.1V360h134.6l32.3-31.4V275l-19.5-19l19.5-19v-53.6L307.2,152H172.6v21.9l15.1,14.7v134.8
			L172.6,338.1L172.6,338.1z M219.9,183.4h70.2l14.8,14.4v28.1l-14.8,14.4h-70.2L219.9,183.4L219.9,183.4z M219.9,271.7h70.2
			l14.8,14.4v28.1l-14.8,14.4h-70.2L219.9,271.7L219.9,271.7z"/>
	</g>
	<g>
		<path class="st3" d="M146,396.6c25,19.6,55.3,32.7,88.5,36.7v-56.5h-68.6L146,396.6z M314,376.7h-36.4v56.5
			c33.1-4,63.5-17,88.5-36.7l-35.7-35.7L314,376.7L314,376.7z M170.9,277.6H78.8c4,33.1,17.1,63.5,36.7,88.5l55.4-55.5L170.9,277.6
			L170.9,277.6z M170.9,201.4L115.5,146c-19.6,25-32.7,55.3-36.7,88.5h92.1V201.4L170.9,201.4z M330.3,151.2l35.7-35.7
			c-25-19.6-55.3-32.7-88.5-36.7v56.5H314L330.3,151.2z M356.2,325.7l40.4,40.4c19.6-25,32.6-55.3,36.7-88.5h-77.1L356.2,325.7
			L356.2,325.7z M234.4,135.3V78.8c-33.1,4-63.5,17.1-88.5,36.7l19.8,19.8L234.4,135.3L234.4,135.3z M356.2,234.4h77.1
			c-4-33.1-17.1-63.5-36.7-88.5l-40.4,40.4L356.2,234.4L356.2,234.4z M236.6,200.1v23.5h46.7l4.9-4.7v-14l-4.9-4.7H236.6
			L236.6,200.1z M236.6,288.4v23.5h46.7l4.9-4.7v-14l-4.9-4.7H236.6L236.6,288.4z"/>
	</g>
</g>
</svg>
