<?xml version="1.0" encoding="utf-8"?>
<!-- Generator: Adobe Illustrator 26.0.2, SVG Export Plug-In . SVG Version: 6.00 Build 0)  -->
<svg version="1.1" id="Layer_1" xmlns="http://www.w3.org/2000/svg" xmlns:xlink="http://www.w3.org/1999/xlink" x="0px" y="0px"
	 viewBox="0 0 512 512" style="enable-background:new 0 0 512 512;" xml:space="preserve">
<style type="text/css">
	.st0{fill:#FFB81C;}
	.st1{fill:#003087;}
	.st2{fill:#FFFFFF;}
	.st3{fill:#C8102E;}
</style>
<g>
	<path class="st0" d="M256,481C131.8,481,31,380.2,31,256S131.8,31,256,31s225,100.8,225,225S380.2,481,256,481L256,481z"/>
	<path class="st1" d="M255.9,468c-117.1,0-211.9-94.9-211.9-211.9S138.8,44.1,255.9,44.1S467.8,139,467.8,256.1S372.9,468,255.9,468
		L255.9,468z"/>
	<path class="st2" d="M335.4,82.4c17.6,5.8,32.1,11.2,31.5,12.8c-0.6,1.6-15.6-2.6-33.2-8.5c-26.6-8.7-59.3-21-58.9-21.8
		C275,64,308.8,73.6,335.4,82.4z M348.8,230.2c0.8,1.1-35.2,15.7-64.8,26.3c-19.7,7-36.5,12.1-38,10.2c-1.4-1.9,14.5-8.4,34.2-15.4
		C309.8,240.8,348,229.1,348.8,230.2z M111.3,171.8c-1.8-3.4-3.7-12-3.7-20.9c0-24.9,16.8-33.2,41.4-38c4.2-0.8,4.8-1.3,7.6-5.4
		c18.7-27.2,42.2-40.7,68.3-40.7c16.2,0,26.7,3.7,76,21.2c13.3,4.7,29.3,10.6,49,17.6c9.5,3.4,19.8,7,31.2,10.9
		c15.5,5.4,20.3,7.8,20.3,10.7c0,3.3-5.9,4-5.9,6.7c0,2.1,8,4.5,15.4,5.2c-7.1,5.6-29.3,2.3-29.3-3.2c0-2.9,4.5-4.4,4.5-6.6
		c0-3.4-13.7-10.2-28-11.6c5.6,19,0.8,26.2,0.8,30.4c0,4,6.3,6.1,14.2,4.4c4,4.6,10.2,8.6,15,10.3c-0.8,1.3-1.2,3.7-0.7,5.1
		c2-0.8,5.2-1.5,7.3-1.5c4.2,4.7,6.1,14.2,5.3,20.1c-4.9-1.7-11.3-2.6-15.5-2.8c-4.3-6.4-11.3-12.4-18.3-16.1
		c-12.3-1.8-31.3,1.8-42.2,5.8c5.7,0.8,16.9,0.6,22.4-0.1c2.5,2.1,7.3,4.7,10.2,6c-0.8,1.5-0.8,3.7-0.4,4.9c2.2-1.3,4.8-2.3,6.9-2.5
		c4.7,3.5,8.7,11.6,9.7,18.4c-4.5-0.8-10.2-1.1-14-0.9c-7.4-7.2-18.9-14.1-27.2-14.1c-9,0-17.2,4.6-22.9,4.6c-8.7,0-17.4-9.6-31-9.6
		c-3.8,0-7.5,0.7-11.2,2c0.8,7.8,5.4,16.4,8.4,20.5c-2.5,0.3-6.3,0.2-8.7,0c2.1,3.1,5.1,5,6.9,5.5c-5.3,3.2-8.5,6.3-10.4,12.3
		c4.2,1.1,8.6,0.6,11.1-0.6c1.7-2.2,4.4-4.2,7-4.9c7.3,4.2,11.4,10.7,11.9,15.3c-5.2,0.5-10.3,2.4-12.9,4c-4.8-1.5-8.5-2-11.7-2
		c-5.8,0-10.5,1.8-14.8,1.8c-4.4,0-7.3-2.5-8-4.9c1.3-4,2.4-10.2,2.4-15.4c0-14.2-12.8-25.8-33.6-27.3c4.9,2.3,10.7,6.3,12.6,9.5
		c-4.2,1.9-8.8,7.1-8.8,11.5c0,3.7,3,7.1,6.1,8.2c1.7-1.3,4.4-2.5,6.3-3.1c5.3,4.7,8.5,11.9,8.5,17.4c-3.8-0.4-10.3,0.5-14,1.3
		c-3.5-2.9-6.3-4.6-9-5.7c-5.2-2.1-9.2-1.4-13.3-2.5c-3.3-0.8-5.7-3.1-6-4.9c4.2-3.8,8.4-11,8.4-18.3c0-10.2-6.1-16.1-11.5-16.1
		c-4.3,0-7.7,3.6-7.7,8.7c0,5.8,4.8,11.6,12.1,12.1c-4.2,4.4-9.3,7.5-15.5,7.5c-3.7,0-6.6-1.1-8.1-1.1c-2.8,0-5.9,1.2-7.2,1.2
		c-0.6,0-1-0.4-1-1c0-2.2,4-7.3,6.4-9.5c-4.1-0.4-6.9,0.3-9.7,2.5c-3.9,3-5.6,7.8-10.4,7.8c-4.5,0-6.4-5.4-10-8.7
		c-2.5-2.4-4.4-2.4-8.4-6.1c-6.3-5.9-7.8-12.1-9-13.5C122.9,181.4,114.3,177.6,111.3,171.8L111.3,171.8z M150.9,181.4
		c0-3.4-2.2-6-4.9-6.9c0.3-3.2,1.8-6.3,3.5-7.8c-1.6-0.7-4.4-0.4-5.9,1.4c-1.4,1.6-2,4.3-2.4,7.1c-0.4,2.2-0.6,4.4-1.1,6.5
		c-0.8,3.5-2.4,5.2-3.7,5.5c1.1,0.7,3,1.2,4.4,0.6c2.5-1.1,3.7-3.7,4.1-7.1c1.1,0.6,2.2,1.9,2.2,3.4c0,2-1.6,3.6-3.9,4.2
		C147.5,188.5,150.9,185.4,150.9,181.4L150.9,181.4z M116.4,135.9c10.9-3.2,18.6-1.3,18.6,4.3c0,3.5-2.6,5.3-2.6,8.8
		c0,3.2,2.8,4.7,5.9,4.7c7.3,0,13.3-6.1,13.3-13.8c0-7.4-5.6-13.5-15.6-13.5C128.2,126.3,120.2,130.6,116.4,135.9L116.4,135.9z"/>
	<path class="st0" d="M377.1,397.5c-4,0-7,3.3-9.5,6.5c-7.6,9.5-15.4,14.7-27.5,14.7c-18.7,0-36.8-15.8-36.8-35.3
		c0-11.9,5.3-25,5.3-34.8c0-7.5-4.7-11.6-9.9-11.6c-2.4,0-4.1,1.3-4.1,2.3c0,1.7,5.6-0.5,5.6,7.5c0,9.3-6.3,23.3-6.3,37.9
		c0,23.5,22.1,42.4,44.9,42.4c13.7,0,23.9-6.5,31.4-16.5c1.1,2.3,3.5,4.1,6.7,4.1c4.6,0,8-3.8,8-8.7
		C384.9,401.7,381.5,397.5,377.1,397.5z M312.4,359.9c3,2.9,14.2,11.1,26.9,19.4C352,387.6,364,394.4,368,396
		c0.8,0.4,1.4,0.4,1.5,0.2c0.1-0.2,0.1-0.4-1-1.1c-8.9-5.5-18.6-11.7-27.9-17.8c-9.3-6.1-18.9-12.4-27.6-18.3
		c-1.1-0.7-1.3-0.7-1.4-0.5C311.5,358.8,311.7,359.3,312.4,359.9L312.4,359.9z M312.9,377.1c-0.1,0.4-0.1,0.8-0.1,1.2
		c-0.1,0.4-0.1,0.8-0.1,1.2c-0.1,2.5,3.7,4.7,5.9,1.1c-0.1,0.9-0.2,1.8-0.4,2.7c-0.1,2.4,3.7,4.7,5.9,1.1c-0.1,0.9-0.2,1.8-0.4,2.7
		c-0.1,2.4,3.8,4.6,5.9,1.1c-0.1,0.9-0.2,1.8-0.3,2.7c-0.1,2.4,3.8,4.6,5.9,1c-0.1,0.9-0.2,1.8-0.3,2.7c-0.3,2.4,3.8,4.5,5.9,1
		l-0.3,2.7c-0.1,2.4,3.8,4.5,6,1l-0.3,2.7c-0.1,2.7,4.3,4.2,6.2,1.1c-0.1,0.7-0.1,1.1-0.2,1.8c-0.4,3.7,3.7,5.9,6.6,3.7
		c1.8-1.4,4.3-3.8,5.9-5.8c2.4-3-1.8-5.6-4.2-3.7c-0.6,0.5-1.2,1-1.8,1.5c0.1-1.1,0.1-2.1,0.1-3.2c0.1-2.2-3.8-4.7-5.9,0.3
		c0.1-1.3,0.1-2.5,0.1-3.8c0.1-2.2-3.8-4.7-5.9,0.3c0.1-1.3,0.1-2.5,0.1-3.8c0.1-2.3-3.8-4.7-5.8,0.2c0.1-1.3,0.1-2.5,0.1-3.9
		c0.1-2.2-3.7-4.7-5.8,0.2c0.1-1.3,0.1-2.5,0.1-3.9c0.1-2.3-3.7-4.7-5.8,0.1c0.1-1.3,0.1-2.6,0.2-3.9c0.1-2.3-3.7-4.8-5.8,0.1
		c0.1-1.3,0.1-2.6,0.2-3.9c0.1-2.3-3.7-4.8-5.7,0.1c0.1-1.3,0.1-2.6,0.2-3.9c0.1-2.2-3.4-4.2-5-1.3c-0.1,0.2-0.4,0.6-0.5,1
		c0.1-1.1,0.1-2.3,0.2-3.5c0.1-2.8-4.6-4-5.6-1.2c-0.6,1.8-1.2,6.5-1.3,9.2C307.3,378.3,311.1,380.1,312.9,377.1L312.9,377.1z
		 M211.8,346.9c0-8,5.6-5.8,5.6-7.5c0-1-1.7-2.3-4.1-2.3c-5.2,0-9.9,4-9.9,11.6c0,9.9,5.3,22.9,5.3,34.8c0,19.5-18.1,35.3-36.8,35.3
		c-12.1,0-19.9-5.2-27.5-14.7c-2.5-3.2-5.5-6.5-9.5-6.5c-4.4,0-7.8,4.2-7.8,8.5c0,4.9,3.5,8.7,8,8.7c3.1,0,5.6-1.8,6.7-4.1
		c7.5,9.9,17.7,16.5,31.4,16.5c22.9,0,44.9-18.9,44.9-42.4C218.1,370.2,211.8,356.3,211.8,346.9L211.8,346.9z M144,396.1
		c3.9-1.6,15.9-8.4,28.7-16.7c12.7-8.3,23.8-16.5,26.9-19.5c0.7-0.6,0.9-1.1,0.8-1.3c-0.1-0.2-0.4-0.2-1.4,0.5
		c-8.7,5.9-18.3,12.2-27.6,18.3c-9.3,6.1-19,12.2-27.9,17.8c-1.1,0.6-1.1,0.8-1,1.1C142.6,396.4,143.2,396.4,144,396.1L144,396.1z
		 M197.9,367.7c0.1,1.1,0.1,2.3,0.2,3.5l-0.5-1c-1.7-2.9-5.2-0.8-5,1.3c0.1,1.3,0.1,2.6,0.2,3.9c-2-4.9-5.8-2.3-5.7-0.1
		c0.1,1.3,0.1,2.6,0.2,3.9c-2-4.9-5.9-2.4-5.8-0.1c0.1,1.3,0.1,2.6,0.2,3.9c-2-4.9-5.9-2.4-5.8-0.1c0.1,1.3,0.1,2.5,0.1,3.9
		c-2-4.9-5.9-2.4-5.8-0.2c0.1,1.3,0.1,2.5,0.1,3.9c-2-4.9-5.9-2.5-5.8-0.2c0.1,1.3,0.1,2.5,0.1,3.8c-2-4.9-5.9-2.5-5.9-0.2
		c0.1,1.3,0.1,2.5,0.1,3.8c-2-4.9-5.9-2.5-5.9-0.3c0.1,1.1,0.1,2.1,0.1,3.2c-0.6-0.5-1.2-1-1.8-1.5c-2.3-1.9-6.6,0.7-4.2,3.7
		c1.6,2,4,4.4,5.9,5.8c2.8,2.1,7,0,6.6-3.7c-0.1-0.7-0.1-1.1-0.2-1.8c1.9,3.2,6.3,1.6,6.2-1.1c-0.1-0.8-0.2-1.8-0.3-2.6
		c2.2,3.6,6.1,1.5,6-1l-0.3-2.7c2.1,3.5,6.2,1.4,5.9-1c-0.1-0.9-0.2-1.8-0.3-2.7c2.1,3.6,6,1.4,5.9-1l-0.4-2.7
		c2.1,3.6,6,1.4,5.9-1.1c-0.1-0.9-0.2-1.8-0.4-2.7c2.2,3.6,6,1.3,5.9-1.1c-0.1-0.9-0.2-1.8-0.4-2.7c2.1,3.6,5.9,1.3,5.9-1.1
		l-0.1-1.2c-0.1-0.4-0.1-0.8-0.1-1.2c1.8,3,5.6,1.1,5.6-1.4c0-2.7-0.6-7.4-1.3-9.2C202.5,363.7,197.8,364.9,197.9,367.7L197.9,367.7
		z"/>
	<path class="st2" d="M256,320.1C194.1,274,122.2,213.7,78.1,161.3c0.7,8.3,6.9,25.5,21.3,41.3c38.2,41.7,93.8,87.5,144.6,126.3
		c-9.6,7-18.8,13.6-27.6,19.8c-0.4,2,0,6.6,0.4,8.6c0.7,2,3,5.2,4.5,6.4c10.9-8,22.6-16.6,34.6-25.7c12,9.1,23.7,17.7,34.6,25.7
		c1.6-1.3,3.8-4.4,4.5-6.4c0.4-2,0.7-6.6,0.4-8.6c-8.7-6.1-18-12.8-27.6-19.8c50.8-38.8,106.4-84.6,144.6-126.3
		c14.5-15.8,20.7-33.1,21.3-41.3C389.8,213.8,317.9,274,256,320.1L256,320.1z"/>
	<path class="st3" d="M143.2,188.3c2.2-0.6,3.8-2.2,3.8-4.2c0-1.5-1.1-2.8-2.1-3.4c-0.4,3.4-1.6,6-4.1,7.1
		C141.2,188,142.1,188.3,143.2,188.3z"/>
	<path class="st1" d="M416.9,431c-5.9,0-10.7,4.8-10.7,10.7c0,5.9,4.8,10.7,10.7,10.7s10.7-4.8,10.7-10.7
		C427.6,435.8,422.8,431,416.9,431z M416.9,450.2c-4.7,0-8.4-3.7-8.4-8.4c0-4.7,3.7-8.4,8.4-8.4c4.7,0,8.4,3.7,8.4,8.4
		C425.3,446.4,421.6,450.2,416.9,450.2z M421.3,439.3c0-2-1.6-3.7-3.6-3.7h-5.2v12.3h2.3V443h1.6l2.3,4.9h2.5l-2.4-5.2
		C420.3,442.2,421.3,440.9,421.3,439.3L421.3,439.3z M417.6,440.6h-2.9V438h2.9c0.7,0,1.3,0.6,1.3,1.3
		C419,440,418.4,440.6,417.6,440.6L417.6,440.6z"/>
</g>
</svg>
