<?xml version="1.0" encoding="utf-8"?>
<!-- Generator: Adobe Illustrator 26.0.2, SVG Export Plug-In . SVG Version: 6.00 Build 0)  -->
<svg version="1.1" id="Layer_1" xmlns="http://www.w3.org/2000/svg" xmlns:xlink="http://www.w3.org/1999/xlink" x="0px" y="0px"
	 viewBox="0 0 512 512" style="enable-background:new 0 0 512 512;" xml:space="preserve">
<style type="text/css">
	.st0{fill:#F1BE48;}
	.st1{fill:#C8102E;}
</style>
<g>
	<path class="st0" d="M477,215.1c0,0,4-14.8,4-34.1c0-68.6-53.5-121-130.9-121c-55.8,0-103.2,41.4-128.6,41.4
		c-10.9,0-24.3-18.6-24.3-18.6s-14.8,9.9-4.1,32.6c0,0-17.5-14.2-44.1-14.2c-39,0-51.4,31.2-51.4,31.2c-29.7,10.4-27.5,27-51.5,28.9
		c0,0,2.7,26.2,35,27.2C68.7,211.3,31,214.7,31,214.7s10.7,20,43.8,20c21.4,0,36.2-8.3,36.2-8.3c-33.1,17.8-11.8,42.6-44.5,58.7
		c0,0,7.2,4.1,15.9,5.5c0,0,0.6,20.6,7.3,40.2c0,0-9.2-7.5-27.2-4.4c0,0,12.2,13.8,13.1,31.3c1.5,28,16.6,57.1,45.5,57.1
		c16.1,0,24.9-7.7,24.9-7.7c-3.9,14.6-28.9,24.2-28.9,24.2s13.2,12.4,32.9,12.4c30.7,0,35.1-32.5,67.9-32.5
		c25.1,0,46.8,21.7,86.7,21.7c100.9,0,159-106.2,163.7-147H361c0,0-13.9,42.6-45.2,42.6c-28.2,0-43.4-21.1-43.4-53.9
		c0-41.5,33.4-112.2,84.9-112.2c18.8,0,24.1,15.4,24.1,27.9c0,13.6-4.3,24.8-4.3,24.8L477,215.1L477,215.1z M57.5,166.7
		c17.8-1.9,26.9-26.4,56.7-26.4c23.6,0,38.5,20.2,38.5,20.2c-36.3-11-31.6,17.3-70.6,17.3C63.5,177.7,57.5,166.7,57.5,166.7
		L57.5,166.7z M121,405.6c-30.1,0-36.6-41.3-36.6-52.1c0-6-4.5-15.7-4.5-15.7c19.3,6.2,20.2,39.9,48.3,39.9
		c15.8,0,26.8-12.9,44.4-6.4C145.5,385.5,146.2,405.6,121,405.6L121,405.6z M357.5,150.8c-54.3,0-96.7,69.9-96.7,124.1
		c0,38,18.9,65.6,55.1,65.6c37.3,0,53.1-43.2,53.1-43.2h85.4c-7.1,40.6-67.2,125.2-149.8,125.2c-37.6,0-58.8-22-86.9-22
		c-38,0-42.7,34.1-68.2,34.1c-7.7,0-12.8-2.5-12.8-2.5c30.1-14.1,12.4-51.8,56.5-64.3c-13.7-7.4-27.2-0.7-46.1-0.7
		c-36.1,0-56.5-41.7-55.1-72.8c0,0,11.3,20.8,37.9,20.8c23.5,0,28.7-13.3,55.1-15.9c-5.6-9.1-20.4-12.5-32.8-15
		c-15.5-3.1-23.2-19.6-35.2-19.6c-12.7,0-14,18.9-31.7,17.9c0,0,8.6-4.2,11.5-20.5c2.8-16.3,12.3-28.6,29.9-28.6
		c17.7,0,35.4,13.4,41.3,11.5c-25.7-18.1-22.4-33.7-44.1-33.7c-21.1,0-21.3,14.5-50.8,14.5c-12.5,0-20.5-6-20.5-6
		c42-9.8,30.3-45.2,83.9-45.2c26.9,0,35.4,11.8,57.4,11.8c-38.3-27.1-36.4-58.4-67.5-58.4c-12.5,0-20.9,8.1-20.9,8.1
		s12.1-25.3,44.2-25.3c32.4,0,43.4,27.9,85.3,29.9c-34.6-14.2-35.5-40.7-35.5-40.7s8.3,11.8,21.1,11.8c34.1,0,76.3-41.7,129.7-41.7
		c69,0,120.7,49.9,120.7,111c0,14.5-2.5,23.3-2.5,23.3h-77.2c0,0,2.4-5.8,2.4-15.1C393.9,171.2,381.3,150.8,357.5,150.8L357.5,150.8
		z M100.2,288.8c7.2-1.6,11.4-13.3,18.4-13.3c7.5,0,8.1,10.6,38.4,20.7c-2.8,1.3-12.5,9.4-26.9,9.4
		C108.4,305.5,100.2,288.8,100.2,288.8L100.2,288.8L100.2,288.8z"/>
	<path class="st1" d="M468.6,204.4c0,0,2.5-8.8,2.5-23.3c0-61.1-51.7-111-120.7-111c-53.4,0-95.6,41.7-129.7,41.7
		c-12.8,0-21.1-11.8-21.1-11.8s1,26.5,35.5,40.7c-41.9-2-52.9-29.9-85.3-29.9c-32.1,0-44.2,25.3-44.2,25.3s8.4-8.1,20.9-8.1
		c31.1,0,29.2,31.2,67.5,58.4c-22,0-30.5-11.8-57.4-11.8c-53.6,0-41.9,35.4-83.9,45.2c0,0,8,6,20.5,6c29.5,0,29.7-14.5,50.8-14.5
		c21.6,0,18.4,15.6,44.1,33.7c-5.9,1.8-23.6-11.5-41.3-11.5c-17.6,0-27.1,12.3-29.9,28.6c-2.8,16.4-11.5,20.5-11.5,20.5
		c17.6,1,19-17.9,31.7-17.9c12,0,19.7,16.5,35.2,19.6c12.5,2.5,27.3,6,32.8,15c-26.3,2.6-31.5,15.9-55.1,15.9
		c-26.6,0-37.9-20.8-37.9-20.8c-1.4,31.1,19,72.8,55.1,72.8c18.9,0,32.5-6.7,46.1,0.7c-44.1,12.6-26.4,50.2-56.5,64.3
		c0,0,5.1,2.5,12.8,2.5c25.5,0,30.2-34.1,68.2-34.1c28.1,0,49.3,22,86.9,22c82.6,0,142.7-84.6,149.8-125.2h-85.4
		c0,0-15.9,43.2-53.1,43.2c-36.2,0-55.1-27.6-55.1-65.6c0-54.2,42.4-124.1,96.7-124.1c23.7,0,36.3,20.4,36.3,38.4
		c0,9.3-2.4,15.1-2.4,15.1L468.6,204.4L468.6,204.4L468.6,204.4z"/>
	<path class="st1" d="M152.8,160.4c0,0-14.9-20.2-38.5-20.2c-29.8,0-38.8,24.5-56.7,26.4c0,0,6,11,24.6,11
		C121.1,177.7,116.5,149.4,152.8,160.4L152.8,160.4z M172.6,371.3c-17.6-6.4-28.6,6.4-44.4,6.4c-28.1,0-29-33.6-48.3-39.9
		c0,0,4.5,9.7,4.5,15.7c0,10.8,6.5,52.1,36.6,52.1C146.2,405.6,145.5,385.5,172.6,371.3z M217.8,428.8c-6.4,0-11.6,5.2-11.6,11.6
		c0,6.4,5.2,11.6,11.6,11.6c6.4,0,11.6-5.2,11.6-11.6C229.4,434,224.2,428.8,217.8,428.8z M217.8,449.5c-5.1,0-9.1-4.1-9.1-9.1
		c0-5,4.1-9.1,9.1-9.1c5,0,9.1,4.1,9.1,9.1C226.9,445.5,222.8,449.5,217.8,449.5L217.8,449.5L217.8,449.5z"/>
	<path class="st1" d="M222.2,436.3c-0.5-1.7-2.1-2.7-3.9-2.7h-5.5V447h2.7v-5.3h1.9l2.7,5.3h2.3l-2.6-5.7
		C221.8,440.6,222.9,438.4,222.2,436.3z M218.2,439h-2.8v-2.7h2.9c0.4,0,0.8,0.2,1,0.5c0.3,0.3,0.4,0.7,0.3,1.1
		C219.6,438.5,218.9,439,218.2,439z"/>
</g>
</svg>
