<?xml version="1.0" encoding="utf-8"?>
<!-- Generator: Adobe Illustrator 24.2.3, SVG Export Plug-In . SVG Version: 6.00 Build 0)  -->
<svg version="1.1" id="Layer_1" xmlns="http://www.w3.org/2000/svg" xmlns:xlink="http://www.w3.org/1999/xlink" x="0px" y="0px"
	 viewBox="0 0 960 640" style="enable-background:new 0 0 960 640;" xml:space="preserve">
<style type="text/css">
	.st0{fill:#010101;}
	.st1{fill:#A2AAAD;}
	.st2{fill:#FFFFFF;}
	.st3{fill:#C8102E;}
</style>
<g>
	<path class="st0" d="M766.3,447.1c-8.3,0-15,6.7-15,15c0,8.3,6.7,15,15,15s15-6.7,15-15C781.3,453.8,774.6,447.1,766.3,447.1z
		 M766.3,473.8c-6.5,0-11.8-5.3-11.8-11.8c0,0,0,0,0,0c0-6.5,5.3-11.8,11.8-11.8c6.5,0,11.8,5.3,11.8,11.8
		C778.1,468.6,772.8,473.8,766.3,473.8L766.3,473.8L766.3,473.8z M772.5,458.6c0-1.3-0.5-2.6-1.5-3.6c-1-1-2.2-1.5-3.6-1.5h-7.2
		v17.1h3.2v-7h2.3l3.2,7h3.6l-3.4-7.3C771.1,462.6,772.5,460.7,772.5,458.6L772.5,458.6z M767.4,460.5h-4v-3.7h4
		c1,0,1.9,0.8,1.9,1.9C769.3,459.6,768.4,460.5,767.4,460.5z"/>
	<path class="st1" d="M877.2,220.2c-10.9-76.2-77.6-99.9-117.6-107.4l34.3-22.5c0,0-179-38.8-410.5,34.3
		C171.8,191.4,65.1,296.2,82.8,419.8c10.9,76.2,77.6,99.9,117.6,107.4l-34.3,22.5c0,0,179,38.8,410.6-34.3
		C788.2,448.6,894.9,343.8,877.2,220.2L877.2,220.2z"/>
	<path class="st2" d="M866.6,223.6c-14.4-100.8-138.9-102.5-138.9-102.5l35.9-23.6c0,0-170-27.6-378.7,38.3
		C200.7,194,75.3,289.8,93.4,416.4c14.4,100.8,138.9,102.5,138.9,102.5l-35.9,23.6c0,0,169.9,27.6,378.7-38.3
		C759.3,446,884.7,350.2,866.6,223.6L866.6,223.6L866.6,223.6z"/>
	<path class="st3" d="M847.3,229.7C828.8,101,629.5,128.3,526.5,160.8c-55.2,17.4-91.3,35.1-91.3,35.1
		C622.1,129,753,176.8,753,176.8c-62-4.4-120.3,15.7-120.3,15.7s62.6,12.6,70.9,70.7c11,76.7-54.3,164.5-255.6,228.1
		C338.3,526,246,531.5,246,531.5s130.2,19.2,326.8-42.9C754.8,431.1,862.8,338.4,847.3,229.7z"/>
	<path class="st3" d="M480.2,394.7c55.9-17.6,103.3-43.9,128.8-69c14.1-13.9,21.5-27.4,19.9-38.9c-0.6-4.4-2.6-8.2-5.6-11.5
		c-19.4-21.1-84.8-20.8-159.8,2.8c-86.7,27.4-153.3,75.7-148.7,107.9C319.5,418.2,393.5,422.1,480.2,394.7z"/>
	<path class="st0" d="M387.2,151.4c-182,57.5-290,150.2-274.5,258.9c18.4,128.7,217.8,101.4,320.8,68.9
		c55.2-17.4,91.3-35.1,91.3-35.1C337.9,511,207,463.2,207,463.2c62,4.4,120.3-15.7,120.3-15.7s-62.6-12.6-70.9-70.7
		c-11-76.7,54.3-164.5,255.6-228.1C621.7,114,714,108.5,714,108.5S583.8,89.3,387.2,151.4z"/>
	<path class="st0" d="M451.8,229.9c-69.1,21.8-105.3,49.4-117.7,78.4l-25.1,58.2c0,0,30.5-54.6,153.8-93.6
		c93-29.4,149.8-22,160.5,2.4c3.1,3.3,5,7.2,5.6,11.5c1.6,11.5-5.8,25-19.9,38.9c-23.3,32.8-67.8,68-106.8,91.8
		c31.2-9.8,171.1-76.2,160.9-147.1C653.7,204.6,572,191.9,451.8,229.9L451.8,229.9z"/>
	<path class="st0" d="M466.3,314.7c-36.2,11.4-64.1,30.8-62.3,43.2c1.8,12.4,32.6,13.2,68.8,1.8c36.2-11.4,64.1-30.8,62.3-43.2
		C533.3,304,502.5,303.2,466.3,314.7L466.3,314.7z"/>
</g>
</svg>
