<?xml version="1.0" encoding="utf-8"?>
<!-- Generator: Adobe Illustrator 26.0.2, SVG Export Plug-In . SVG Version: 6.00 Build 0)  -->
<svg version="1.1" id="Layer_1" xmlns="http://www.w3.org/2000/svg" xmlns:xlink="http://www.w3.org/1999/xlink" x="0px" y="0px"
	 viewBox="0 0 512 512" style="enable-background:new 0 0 512 512;" xml:space="preserve">
<style type="text/css">
	.st0{fill:#010101;}
	.st1{fill:#FF6720;}
	.st2{fill:#FFD100;}
	.st3{fill:#001871;}
	.st4{fill:#CE1126;}
	.st5{fill:#00843D;}
	.st6{fill:#CC8A00;}
	.st7{fill:#FFFFFF;}
</style>
<g>
	<path class="st0" d="M428.4,324.2c-5.6,0-10.2,4.6-10.2,10.2c0,5.6,4.6,10.2,10.2,10.2c5.6,0,10.2-4.6,10.2-10.2
		C438.6,328.8,434,324.2,428.4,324.2z M428.4,342.4c-4.4,0-8-3.6-8-8c0,0,0,0,0,0c0-4.4,3.6-8,8-8c4.4,0,8,3.6,8,8
		C436.4,338.8,432.8,342.4,428.4,342.4z M432.6,332.1c0-1.9-1.5-3.5-3.5-3.5c0,0,0,0,0,0h-4.9v11.6h2.2v-4.7h1.6l2.2,4.7h2.4
		l-2.3-4.9C431.6,334.8,432.6,333.5,432.6,332.1L432.6,332.1z M429.1,333.3h-2.7v-2.5h2.7c0.7,0,1.3,0.6,1.3,1.3
		C430.4,332.8,429.8,333.3,429.1,333.3z"/>
	<path class="st0" d="M478.7,315.8c0-16.4,16.1-77.3-100.9-169.4l19.7-4.4l-10.1-33.4l-19.5,13v-20.2h-38.3c-24.9-18-37-41-76.3-41
		c-16.4,0-33.7,3.3-37.4,3.3c-2.9,0-11.6-1.9-26.5-1.9c-43,0-46.9,32.1-41.6,43.3c-56.5,38.7-84.5,66.7-84.5,76.7
		c0,3.9,2.3,9,2.3,16.3c0,15.9-34.3,50.9-34.3,69.5c0,17.3,22.1,18.5,22.1,18.5c1.2,5.1-7.3,22.1,0.4,30.7
		c-10.6,11.5,1.8,17.3,1.8,26.4c0,6.2-4.3,8.1-4.3,19.6c0,13.1,6.1,28.9,38.4,28.9c12.7,0,24-2,33-2c2.5,27.1,14,37.7,16,44.5
		c1.5,5.4,5.1,17.2,12.3,17.2c9.4,0,61-16.9,100.2-40.7c19.7,7.3,44.7,4.9,53.7,4.9c9.9,0,14,6.1,19.8,6.1
		c3.5,0,30.2-29.8,28.5-94.9c16.7,28.3,26.6,46.7,27.6,57.2c21.6-7.7,39.9-59,31.9-91.6c0,0,27.3,44.3,68.7,37.8
		C481,330.2,478.7,322.1,478.7,315.8L478.7,315.8z"/>
	<path class="st1" d="M454.4,232.9c-27.3-43.9-75.1-80.9-86.1-89.1c-0.1,2.5-0.9,4.9-2.1,6.9c-0.7,1.1-1.5,2.2-2.4,3.1
		c-1,1-2.2,1.9-3.4,2.7c1.9,7.6,4.8,18.4,8.7,31c5.7,14,12.2,31.2,17.6,49.2c6.2,14.8,13.4,29.7,21.6,42.8
		c33.8,54.4,67.7,46.9,67.7,46.9C470.2,317.1,487.2,285.7,454.4,232.9L454.4,232.9L454.4,232.9z M361.3,107.9h-25.1l16.1,17.4h9.1
		L361.3,107.9L361.3,107.9z"/>
	<path class="st2" d="M408.5,286.3c-1.1-1.6-2.1-3.3-3.1-4.9c-4.7-7.5-9-15.5-13-23.7c-1.6-7-3.6-14-5.6-20.9
		c-5.4-18-11.9-35.2-17.6-49.2c-3.9-12.6-6.8-23.5-8.7-31c-1.3,0.8-2.7,1.3-4.2,1.7c-1.1,0.3-2.3,0.4-3.5,0.4
		c-1.1,0-2.2-0.1-3.3-0.3c-1.4-0.3-2.8-0.8-4.1-1.5c-4.8,112.4,6.3,131.8,8.3,163.9c28.4,44.8,29.4,57.8,29.4,57.8
		S416.1,355.3,408.5,286.3L408.5,286.3z"/>
	<path class="st3" d="M396.1,276.5c-1-6.2-2.3-12.5-3.8-18.9c-1.6-7-3.6-14-5.6-20.9c-5.4-18-11.9-35.2-17.6-49.2
		c-5.6-13.7-10.5-24.3-12.9-29.4c-1.1,0.3-2.3,0.4-3.5,0.4c-1.1,0-2.2-0.1-3.3-0.3c-1.1,12.1-4.9,63.8,2.5,110.4
		c10.5,66.8,35.9,91,35.9,91S405.2,334.4,396.1,276.5L396.1,276.5L396.1,276.5z M395.7,302.7l-20.1-10.8c-0.6-3.9-2.3-14.2-4.3-27.1
		l21.9,12.5C394.7,286.6,395.5,295.1,395.7,302.7L395.7,302.7z M387.2,249.3c2.2,8.2,4.1,16.4,5.4,24.3l-21.9-12.5
		c-1.2-7.7-2.4-15.4-3.7-23.1L387.2,249.3z M361.3,176.6c7.3,17,17.5,42.6,24.8,68.7l-19.6-11c-4.3-27.5-8.9-56.1-8.9-56.1
		C357.2,174.9,360.4,174.4,361.3,176.6L361.3,176.6z M350.9,180c0.1-3.6,3.5-3.9,3.9-1.4l8.7,55.4l-11.6,10.8
		C349.9,220.5,350.2,196.8,350.9,180z M354.7,268.2c-1-6.5-1.8-13.1-2.5-19.8l11.8-11l3.8,24l-12.2,12.1
		C355.3,271.8,355,270,354.7,268.2z M356.3,277.1l12.2-12.1l4.3,27.4l-9.9,12C360.5,296.4,358.2,287.3,356.3,277.1L356.3,277.1z
		 M363.9,307.8l9.6-11.7c1.6,6.5,6.6,27.1,6.8,28c-0.4,0.7-3.8,7-5.7,10.3C371.1,327.4,367.4,318.6,363.9,307.8z M387.2,354.6
		c-2.5-3-6.5-8.6-10.9-17l6.1-11l10.9,9.3C391.3,344.9,388.8,351.1,387.2,354.6L387.2,354.6L387.2,354.6z M393.8,332.5l-10.6-9.1
		c-2.3-9.3-4.5-18.6-6.8-27.9l19.4,10.5C395.9,316.6,395.1,325.4,393.8,332.5L393.8,332.5z"/>
	<path class="st4" d="M337,141.8c-57.1,42.7-87.7,106.3-97,128.1c0,0-1.2,2.6,0.2,5.4l18.1,35.2c0.8,1.5,2.4,1.8,3.6,0.7l29.7-26.8
		c2.1-1.8,2.7-4.8,2.7-4.8c13.5-77.5,31.9-115.4,43.2-132.6c-0.3-1.2-0.5-2.5-0.5-3.9C336.9,142.5,337,142.2,337,141.8L337,141.8z"
		/>
	<path class="st5" d="M384.3,119L369,129.2l3.5,11.6l17.2-3.8L384.3,119z M342.2,154.7c-1.1-1-2.1-2.1-2.9-3.4
		c-18.3,29.3-41.6,102.6-41.6,165.4c0,64.2,19.6,98.3,26.7,98.3c5.5,0,24.7-34.4,24.7-78.7c0-12.1-10.1-60.6-10.1-151.7
		C339.1,165,340.6,159.8,342.2,154.7L342.2,154.7z M244.4,271.9l16.2,34.9l29.5-27.3c0,0,14.2-82.8,39.5-128.5
		C262.8,215.9,244.4,271.9,244.4,271.9L244.4,271.9z M294.7,242.6c-0.3,1.3-0.6,2.7-0.9,4c-4,17.2-6.3,30-6.5,31.3
		c0,0.1,0,0.1,0,0.1l-2,1.9l-23.6,21.9l-13.9-30.1c0,0,0.5-1.5,1.6-4.2c0.4-1,0.9-2.2,1.5-3.6c2.8-6.4,7.7-16.6,15.6-29.6
		c0.8-1.4,1.7-2.8,2.6-4.2c11.1-17.7,27.4-40.1,50.7-65.3C309.1,186.4,300.4,218.2,294.7,242.6L294.7,242.6L294.7,242.6z M352.6,131
		c-6.6,0-11.9,5.3-11.9,11.9s5.3,11.9,11.9,11.9c6.6,0,11.9-5.3,11.9-11.9S359.2,131,352.6,131z"/>
	<path class="st2" d="M334.8,166.9c0,0-32.5,68.5-32.5,148.3c0,52.8,16.4,93.2,20.9,93.2c3.6,0,20.3-25.1,20.3-77.6
		C343.5,309.6,332.1,229.1,334.8,166.9L334.8,166.9z M321,213c0.6-2.1,3.5-2.7,3.1,0.9c-2.2,18.3-3.6,34.9-4.6,49.6l-11.4,8.8
		C311.1,250.1,316,229.7,321,213z M307.6,276.4l11.7-9.1c-0.8,13.3-1.2,25.2-1.3,35.4l-12.9,8.8
		C305.3,299.6,306.2,287.8,307.6,276.4L307.6,276.4z M305.1,315.3l12.9-8.8c-0.1,16.6,0.5,28.9,1.1,36.6l-11.6,7.2
		C305.9,338.7,305.1,327,305.1,315.3z M336.5,372.7c-1.5,1.1-6.2,2.7-13.8-9.8c-4.4,13.3-9.6,9.6-11.6,7.6
		c-1.2-5.2-2.2-10.8-3.2-16.9l13.1-8.1l18.1,12C338.5,362.6,337.6,367.7,336.5,372.7z M340.8,330.8c0,8.5-0.4,16.3-1.2,23.3
		l-16.5-11c-0.6-7.2-1.2-18.8-1.1-34.6l18.5,12.8C340.6,325,340.8,328.2,340.8,330.8z M340.2,317.5l-18.2-12.6
		c0.1-10.2,0.4-22,1.2-35.4l13.7,10.1C338.1,294.3,339.4,307.4,340.2,317.5L340.2,317.5L340.2,317.5z M336.4,275.7l-13.1-9.7
		c0.9-15.4,2.5-32.8,4.8-52.2c0.6-5.4,3.9-2.7,4,0.2C332.8,234.7,334.7,256.4,336.4,275.7L336.4,275.7z"/>
	<path class="st2" d="M306.1,152.8c4,0,3.5-5.3-0.2-5.3c-57.1,0-89.8,7.3-94.8,8.5c-3.2-28-19.2-36.9-19.2-55c0-7,4.6-8.5,8.5-8.5
		c13.3,0,23.3,15.6,41.9,15.6c17.2,0,20.9-12.2,30.7-12.2c14.7,0,8.2,39.2,34.4,39.2c8.3,0,13.7-3.3,13.7-3.3c3.5-2,0.2-6.2-2.9-4.6
		c0,0-5.2,2.7-10.4,2.7c-22.1,0-12.4-39.3-35.4-39.3c-11,0-14.7,12.1-30.5,12.1c-17.7,0-24.7-15.9-42.3-15.9
		c-10,0-13.5,6.7-13.5,13.4c0,20,19.8,35.3,19.8,62.8c0,27.9-9.5,52.6-9.5,91.4c0,45.3,43,58.6,43,100.8c0,23.9,9.2,38.6,19.4,38.6
		c5.6,0,10.9-3.3,13.4-12.1c1.5,0.6,2.8,1,4,1c2.9,0,13.5-3.1,13.5-15.7c0-36-61.8-54.6-61.8-111c0-27.1,4.3-70.5,11-70.5
		c3.5,0,7.8,15.2,16.2,15.2c10.3,0,6.7-30,11.3-30c3.7,0,9.2,14,15.7,14c5.3,0,7.1-10.8,9.4-19.4c0.8-4-4.8-5.1-5.6-1.1
		c-1.4,6.3-4.4,14.7-4.4,14.7c-3.3-3.4-8.8-13.6-15.4-13.6c-10.5,0-9,29.9-11.3,29.9c-4.4,0-7.2-15.5-16.7-15.5
		c-12.3,0-15.9,42.8-15.9,76.5c0,59.3,61.8,79.1,61.8,110.1c0,7.8-5.7,10.5-7.9,10.5c-0.9,0-1.9-0.2-2.8-0.6
		c0.3-2.2,0.4-4.5,0.4-7.2c0-18.3-10.1-21.7-14.2-21.7c-4.1,0-6.4,3.6-6.4,9.4c0,7.9,7,16.7,13.8,21.7c-1,4.9-3.2,9.5-7.8,9.5
		c-8.9,0-13.9-20.6-13.9-32.9c0-44.5-43-57.4-43-101.9c0-37.9,9.5-62.2,9.5-87.4c0-1.6,0-3.1-0.1-4.5
		C217.4,159.8,254.2,151.6,306.1,152.8L306.1,152.8z M258.7,357.2c0-3.1,0.8-4.3,1.6-4.3c5,0,7.3,10.1,7.3,14.1c0,1.1,0,3.1-0.1,5.5
		C262.6,367.8,258.7,360.6,258.7,357.2L258.7,357.2z"/>
	<path class="st6" d="M218.5,356.3c10-15.4,4.3-41.9-14.8-34.5c-11-18-23.5-42.3-23.5-72.4c0-32,6.5-40.4,6.5-68.7
		c0-48.2-22.3-57.8-36.6-67.5c-34.1,23.1-79.3,54.7-79.3,71.5c0,5,2.2,9.6,2.2,14.5c0,17.4-33.9,51.2-33.9,67.6
		c0,6.1,4.9,11.3,12.8,11.3c7.9,0,27.9-2.9,35.5-3.7c7.5-0.8,8.4-4.4,8.4-6.4c0-4.9-7.7-11.7-13.6-11.7c-4.9,0-5.3,2.9-5.3,3.6
		c0,3.2,4.6,4.1,4.6,4.1c5.8-0.8,5.9,4.3,0.3,4.3c-4.6,0-9.7-3.4-9.7-9.2c0-5.9,4.7-7.3,8.2-7.3c14.6,0,23.1,13.2,20.6,21.7
		c18.2,9,17.6,22.3,14.7,22.3c-6.3,0-1.9-16.7-25.6-16.7c-6.6,0-20.5,2-23.8,2.3c-3.3,0.3-4.2,0.8-4.6,3.5
		c-0.4,2.7-3.8,12.5-3.8,18.5c0,8.9,5.9,9.5,9.7,9.5c10,0,26.8-2.4,26.8-6.4c0-2.5-4.3-1.8-5.9-1.8c-3,0-4.3-1.9-4.3-2.9
		c0-2.6,4.3-3.9,9.4-3.9c8.5,0,9.4,5.5,8.9,8.1c-0.9,5.7,8.3,4.3,8.3,16.4c0,1.3-0.1,4.8-3,4.8c-2.9,0-2.9-3.6-2.9-5.7
		c0-2-3.3-5.2-6.1-5.2c-3,0-13.9,5.6-37.4,3.5c-9.2,11.6,1.7,12.5,1.7,24.2c0,13.2-4,12.2-4,20.3c0,15.9,17.5,20.1,34.9,20.1
		c36.1,0,76.8-8.4,91.1-34.2c-4.9,22.9-23.3,31-54.6,38.1c3.5,25.3,8.8,31.2,12.6,38c3.8,6.8,4.6,16.4,11.4,16.4
		c8,0,55.5-17.1,87.5-36.4L218.5,356.3z M130,138.1l16.9-12.7c0.9-0.7,2.2-0.7,3.1-0.1c12.4,8.7,19.3,17.2,19.6,17.5
		c0.9,1.2,0.7,2.8-0.5,3.7c-1.1,0.9-2.7,0.7-3.6-0.4c-0.1-0.1-6.2-7.6-17-15.4c-0.8,0.6-2.3,1.7-4,3c5.3,4.5,20.1,17.4,29.9,29.5
		c0.9,1.1,0.7,2.8-0.4,3.7c-1.2,0.9-2.8,0.7-3.7-0.4c-10-12.5-26-26.2-30.1-29.6c-1.4,1.1-2.8,2.1-4.3,3.2
		c9.7,8,16.6,16.2,16.9,16.6c1.1,1.3,0.5,3-0.3,3.7c-0.5,0.5-1.2,0.7-1.9,0.6c-0.3,0-0.7-0.1-1-0.3c-0.3-0.2-0.6-0.4-0.8-0.6
		c-0.1-0.1-8.2-9.7-18.8-18C128.7,141.3,128.4,139.3,130,138.1L130,138.1z M94.2,228.7c-2.9,0-1-7.1-1-9.8c-16.2-0.2-18-6,0.6-6.2
		c-0.5-2.4-2.5-12,0.4-17.1l-9.1-3.5c-7.4-3,6.7-7.8,4.6-12.2c0,0-4.2-3.2-4.2-6.8c0-3.6,5.6-7.9,16.4-7.9
		c20.2,0,25.5,17.3,41.6,17.3c3.1,0,11.6-1.7,11.6,1.7c0,3.4-6.8,7-12.9,7c-14.1,0-24.7-10.6-31.8-10.6c-0.7,0-2,0.2-2.5,1.5
		l-1.9,4.4c-1.4,3.2,0.7,4.5,0.7,4.5l24.9,14.7c5.2,3.1,2.5,5.5-0.2,6.3c0,0-15.3,4.7-28.8,6.3C101.2,225.1,97.2,228.7,94.2,228.7
		L94.2,228.7L94.2,228.7z M173.4,306.2c-34.2-10.1-12.5-52.4,3.4-48.2C156.1,276.9,166.5,298.7,173.4,306.2L173.4,306.2z"/>
	<path class="st6" d="M102.8,178.8l-10.1,2.7c-2.1,0.6-2.2,1.8-0.3,2.8l7.7,3.7c0.8,0.4,1.7,0,2.1-0.8l2.7-6
		C105.6,179.3,104.7,178.3,102.8,178.8L102.8,178.8z"/>
	<path class="st4" d="M211.9,324.2c-6.8-2-14.9,5.2-18.1,16c-3.1,10.8-0.2,21.2,6.7,23.2c6.8,2,14.9-5.2,18.1-16
		C221.8,336.6,218.8,326.2,211.9,324.2L211.9,324.2z M213.1,345.8c-2,6.9-6.7,11.5-10.5,10.4c-3.8-1.1-5.2-7.6-3.3-14.4
		c2-6.9,6.7-11.5,10.5-10.4C213.7,332.4,215.1,338.9,213.1,345.8L213.1,345.8z M88.4,328.9c-3.3-4.7-5.1-0.4-8.7,1.4
		c-3.5,1.8-8,0.8-6.2,6.2c2,5.8-2.2,17.7-0.4,21.4c1.5,2.9,4.7,4.1,7.4,2.7c2.4-1.2,3.5-3.3,4-5.8c1.3-6.6-2.5-15.8-0.8-16.7
		c1.8-0.9,7,7.6,13.1,10.4c2.3,1.1,4.6,1.4,7,0.2c2.7-1.4,3.6-4.7,2.1-7.6C104.1,337.5,92,334,88.4,328.9L88.4,328.9z M136.7,249.8
		c-1.8,0.5-4.6,2.1-9.2,3.3c-4.6,1.2-10.3,1.2-11.2-2.3c-0.1-0.3-0.1-0.6,0-1c0.4-2.8,4.5-6.6,4.5-6.6s-5.5-1.2-7.2-3.5
		c-0.2-0.3-0.4-0.6-0.5-0.9c-0.9-3.5,4.1-6.3,8.7-7.5c4.6-1.2,7.8-1.2,9.6-1.7c3.7-1,6.8-3.4,6-6.4c-1.4-5.4-8.5-4.1-12.5-3.1
		c-19.5,5.1-23.9,13.2-22.4,18.7c1.5,5.5,7.8,7,7.8,7s-4.8,4.4-3.3,9.9c1.5,5.5,9.2,10.4,28.7,5.2c3.9-1,10.8-3.4,9.3-8.8
		C144.3,249.4,140.4,248.8,136.7,249.8L136.7,249.8z M352.6,135.3c-4.2,0-7.6,3.4-7.6,7.6c0,4.2,3.4,7.6,7.6,7.6
		c4.2,0,7.6-3.4,7.6-7.6C360.3,138.7,356.8,135.3,352.6,135.3z"/>
	<path class="st7" d="M105.1,199.8c-1.4,5.1-0.4,11-0.1,12.6c16-1,22.5-3.9,22.5-3.9L105.1,199.8z M83.7,338.1
		c-1.7,0.9,2.1,10.1,0.8,16.7c1.1,3,5.5,14,13,10.2c7.5-3.8,1.2-13.8-0.7-16.5C90.7,345.7,85.5,337.2,83.7,338.1L83.7,338.1z
		 M146.3,227.7c-6.2,1.6-11.8,7.8-23,10.8c-4.1,1.1-7.6,1.3-9.7,1.3c1.7,2.3,7.2,3.5,7.2,3.5s-4.1,3.8-4.5,6.6
		c1.9-1.1,5-2.6,9.1-3.7c11.2-3,19.1-0.3,25.3-2c2.9-0.8,8.2-2.2,6.1-10.4C154.6,225.6,149.2,226.9,146.3,227.7L146.3,227.7
		L146.3,227.7z M301,192.5c-0.7-0.3-1.5-0.1-1.9,0.6c-4.9,9.8-9.6,19.7-13.9,29.7L269,230c-0.9,1.4-1.7,2.8-2.6,4.2l17.2-7.6
		c-4.5,10.5-8.2,20.1-11.1,28.4l-21.7,8.8c-0.5,1.2-1,2.4-1.5,3.6l22-8.9c-6.7,19.2-9.5,30.9-9.5,31.1c-0.1,0.5,0.1,1.1,0.5,1.4
		c0.1,0.1,0.3,0.2,0.5,0.2c0.7,0.2,1.5-0.3,1.7-1c0.1-0.2,2.7-11.5,9.1-30l11.6,19.6l2-1.9c0,0,0,0,0-0.1l-12.5-21
		c3.1-8.7,6.4-17.3,10-25.8l9,15.5c0.3-1.3,0.6-2.6,0.9-4l-8.6-14.8c4.8-11.3,10-22.5,15.5-33.5c0.2-0.3,0.2-0.7,0.1-1.1
		C301.6,193,301.3,192.7,301,192.5L301,192.5L301,192.5z M444.2,236c-21.6-34.8-67.5-76.1-78-85.3c-0.7,1.1-1.5,2.2-2.4,3.1
		c6.6,18.7,32.2,88.8,55.8,126.7c23,37.1,45.6,35.3,45.6,35.3S472.8,281.9,444.2,236L444.2,236L444.2,236z M457.8,271.4l-18.9-3.5
		l-22.4-36l26.9,7.9C450.2,251.3,454.7,261.9,457.8,271.4z M441.2,236.3l-26.9-7.9l-20.7-33.3l18.7,4.6
		C423.1,211.6,433.6,224.4,441.2,236.3z M367.4,155.5c8.2,7.3,24.9,22.7,41.5,40.5l-17.4-4.3l-11.2-18c-0.3-0.5-0.8-0.7-1.4-0.6
		c-0.2,0-0.4,0.1-0.5,0.2c-0.2,0.1-0.3,0.2-0.4,0.4c-0.2,0.3-0.3,0.7-0.2,1c0,0.2,0.1,0.4,0.2,0.5l11.7,18.8l-2.4,13.2
		C378.3,185.4,371,165.7,367.4,155.5L367.4,155.5L367.4,155.5z M389.2,211.9l2.6-14.4l20.4,32.8l-6.7,18.2
		C399.8,236.6,394.2,224,389.2,211.9z M422,279.1c-4.9-7.9-9.9-17.2-14.8-27.2l6.9-18.6l22.4,36.1l-6.9,20.6
		C427.1,286.8,424.5,283.2,422,279.1L422,279.1z M462.8,312.9c-4.9-0.6-17.2-3.8-31.2-20.4l6.7-20.1l10.6,17.1
		c0.4,0.6,1.3,0.8,1.9,0.4c0.7-0.4,0.9-1.3,0.4-1.9l-10.5-16.9l17.8,3.3C464.3,293.7,463.5,307.7,462.8,312.9L462.8,312.9
		L462.8,312.9z"/>
</g>
</svg>
