<?xml version="1.0" encoding="utf-8"?>
<!-- Generator: Adobe Illustrator 26.0.2, SVG Export Plug-In . SVG Version: 6.00 Build 0)  -->
<svg version="1.1" id="Layer_1" xmlns="http://www.w3.org/2000/svg" xmlns:xlink="http://www.w3.org/1999/xlink" x="0px" y="0px"
	 viewBox="0 0 512 512" style="enable-background:new 0 0 512 512;" xml:space="preserve">
<style type="text/css">
	.st0{fill:#FFFFFF;}
	.st1{fill:#236093;}
	.st2{fill:#C2C6C9;}
	.st3{fill:#8A2432;}
</style>
<g>
	<path d="M463.8,276.3c-5.2,0-9.4,4.2-9.4,9.4c0,5.2,4.2,9.4,9.4,9.4c5.2,0,9.4-4.2,9.4-9.4C473.2,280.5,469,276.3,463.8,276.3z
		 M463.8,293.1c-4.1,0-7.4-3.3-7.4-7.4c0,0,0,0,0,0c0-4.1,3.3-7.4,7.4-7.4c4.1,0,7.4,3.3,7.4,7.4
		C471.2,289.8,467.9,293.1,463.8,293.1z M467.7,283.6c0-0.8-0.3-1.7-0.9-2.3c-0.6-0.6-1.4-0.9-2.3-0.9H460v10.7h2v-4.4h1.4l2,4.4
		h2.2l-2.1-4.5C466.8,286.1,467.7,284.9,467.7,283.6L467.7,283.6L467.7,283.6z M464.5,284.7H462v-2.3h2.5c0.6,0,1.2,0.5,1.2,1.2
		C465.7,284.2,465.1,284.7,464.5,284.7z"/>
	<path class="st0" d="M442.4,286.6c14.5-21.1,22-42.1,22-62.6c0-54.1-55.3-90.4-137.6-90.4c0,0-3.9,0.1-6.7,0.1
		c-8.3-13.6-23.8-21.2-36.9-24l-24.9-39.4l-52.8,86.3C109.9,192.2,43.2,258.7,43.2,318.7c0,22.4,9.6,42.3,27.7,57.9L31,441.7
		c0,0,69.9-11.1,175.7-17.3l6.5-17.1c31-3.3,63.3-11.3,94-23.2c0.3,2.1,0.7,4.2,1.8,6.4l5.8,11.5c8.7,17.3,25.8,38,58.4,38
		c83,0,107.8-70.2,107.8-70.2C482.1,314.7,442.4,286.6,442.4,286.6L442.4,286.6z"/>
	<path class="st1" d="M436.1,287.6c15-20.5,23.6-42.2,23.6-63.5c0-48.7-48.5-85.8-132.9-85.8c-3.1,0-6.1,0.1-9.2,0.2
		c-7.8-15.3-25.5-22.5-37.2-24.6l-22-34.7l-49.7,81.3C119.8,193,47.8,257.1,47.8,318.7c0,22.2,10.1,42,29.1,56.9l-36.7,60
		c0,0,75.9-11,163.3-15.7l6.4-16.9c34.8-3.4,69.7-12.5,101.9-25.6c-0.2,1.3-0.8,6.6,1.4,11.1l5.8,11.6c9.1,18.3,25.7,35.4,54.2,35.4
		c79.7,0,103.2-66.3,103.2-66.3C476.3,332.1,459.3,305.2,436.1,287.6z"/>
	<path d="M452,348c-5.1,7.7-13.4,16.8-15.9,19.4l0,23.2l-1.5,0.1l-3.2,0.3l-8-12.4C365.5,419.4,322,394.3,322,394.3l13.1,20.1
		c23.3,29.8,99.2,19.1,131.6-36.1l-4.4-0.2C461.5,365.6,452,348,452,348L452,348z"/>
	<path class="st2" d="M366.7,261.9l-70.5-111.4c-2.4-0.5-5-0.8-7.8-0.8l70.8,111.9C361.7,261.6,364.2,261.7,366.7,261.9z
		 M152.1,276.3l106.4-173.9l6.9,10.9c2.8,0.3,5.5,0.7,8,1.1l-14.9-23.6L151.1,266.1C151.2,268.2,151.3,272,152.1,276.3z"/>
	<path class="st2" d="M270.3,346.4c-40.4,0-67.5,20.2-104.3,20.2c-51.3,0-67-36.2-67-61.2c0-77.1,90.9-123.6,90.9-123.6l1.8-2.9
		c-0.3,0.1-1.1,0.5-2.3,1.1c-15.1,7.4-96.7,51.1-96.7,125.5c0,11.9,2.7,22.6,7.6,31.9c1.1,2.1,2.3,4.1,3.6,6l-51.7,84.4
		c0,0,63.8-9.1,146.9-13.7l19.3-51c16.9-5,33.3-9.9,54.5-9.9c45,0,73.9,24.1,73.9,24.1S330.3,346.4,270.3,346.4L270.3,346.4z"/>
	<path class="st3" d="M288.4,149.7c-18.5,0.1-43.8,11.6-70.5,30.5l12.2-19.8l8.3-6.7l6.3-23l10.3-3.2l3-14.7
		c2.4,0.1,4.9,0.3,7.3,0.6l-6.9-10.9L152.1,276.3c2.3,12.5,9.7,30.1,34,30.1c48.5,0,118.6-44.8,172-44.8c0.4,0,0.8,0,1.2,0
		L288.4,149.7L288.4,149.7L288.4,149.7z M107.9,348.6l-43.6,71.3c0,0,54.4-7.3,130.5-11.8l16.2-42.9c-14.5,4.1-29.8,7.7-49,7.7
		C140.2,372.8,120.6,363.9,107.9,348.6L107.9,348.6z"/>
	<path class="st2" d="M394.8,408.8l3.6-5.9c-48.2,16-68.2-0.6-68.2-0.6C346.5,420.7,381.5,412.6,394.8,408.8L394.8,408.8z"/>
	<path class="st2" d="M337.4,412.1c13.9,17,56.2,15.3,89.3-4.6l2.5-6.6C408.5,415.3,362.3,428.4,337.4,412.1z M259.2,227.8
		L237.3,286c0,0-30.4,11.5-50.5,14.8c40.3,3.1,110.3-42.5,156-42.5c-20.6-6.4-70,13.1-70,13.1L259.2,227.8L259.2,227.8z"/>
	<path class="st1" d="M258.6,246.8c-4.1,11-8.9,23.6-13.4,35.6l21.7-8.9C264.4,265.2,261.5,255.8,258.6,246.8L258.6,246.8z"/>
	<path class="st0" d="M189.5,180c-68.2,26.5-121.1,74-121.1,121.7c0,20.6,9.2,36.7,23.8,48.9l8.1-13.3c-4.8-9.2-7.6-20-7.6-31.9
		C92.8,231.1,174.4,187.4,189.5,180L189.5,180L189.5,180z M427,281.4c8.1-13.4,12.7-27.4,12.7-41.4c0-53.2-61.4-76.1-118.3-80.6
		c-0.4,4.4-1.4,9.2-3.2,14.4l56.3,89C392.1,265.1,410.6,271.2,427,281.4L427,281.4z M296.2,150.5c8,1.7,14.2,6.3,17.9,14.4
		c4.6-17.6-1.1-43.5-40.7-50.5c-2.6-0.5-5.3-0.8-8-1.1c-2.4-0.3-4.8-0.4-7.3-0.6l-3,14.7l-10.3,3.2l-6.3,23l-8.3,6.7l-12.2,19.8
		c26.8-18.9,52-30.5,70.5-30.5C291.2,149.7,293.8,149.9,296.2,150.5L296.2,150.5z"/>
	<path class="st0" d="M358.1,266.4c-58.4,0-122.6,45.5-173.1,45.5c-15,0-19.5-5.6-19.5-5.6l-2.2,3.4c0,0-61.8-29.7,22.6-121.5
		c0,0-72.6,37.9-78.4,114.5l4.4-3.7c0,0-2.3,51.6,56.1,51.6c47,0,63.6-17.4,107.2-17.4c93,0,107.9,53,107.9,53s-60.9,18-64.9-15.7
		c0,0-9.3,39.4,68.8,19.6c0,0,4.9-7.7,4.3-17.8c0,0,7.2,7.2,8.5,12.8c0,0,5.9-6.8-3.6-25c0,0,8.1,7.4,13.4,18.2l3.3-2.7
		c0,0,0.2-7.9-15.4-29.1l-10.7,6.7c0,0-24.9-46.9-117.2-40.9c0,0,76.9-27.3,121.7,28.3l9.6-6.6c0,0,26.9,26.1,33.8,56.7l1.5-0.1
		l0-23.2l0.1-27.7l7.8,9.1c0,0,3.8-6.9-0.7-21.2c0,0,18.1,17.7,23.5,50.6l1.4-18.3C468.1,344.2,441.8,266.4,358.1,266.4L358.1,266.4
		z M425.4,319.1l-2.7,19.9l-12.5-13.2l-6.1,3.2c-8.4-10.6-40.7-37.6-78.6-37.6c-54.3,0-100.8,39.2-147.3,39.2
		c-50.8,0-52.8-30.3-52.8-42.3c0-22.3,13-46.6,13-46.6c-4.5,13.6-23.5,80.7,43.3,80.7c52.6,0,80.8-36.3,142.1-36.3
		c59,0,82.8,33.6,82.8,33.6l4.6-2.9l8.7,9.4l0.7-9.7l5.4-9.4c-12.4-24.4-40.1-33-40.1-33c36.3,6.8,47.1,33.3,47.1,33.3L425.4,319.1
		L425.4,319.1z"/>
	<path class="st0" d="M222.6,369.3l-5.2,13.7c30.6-1.1,61.6-7.3,90.3-17.3C276.2,351.1,227.6,367.6,222.6,369.3L222.6,369.3z"/>
	<path class="st1" d="M305.5,145.1c-16.7-15.9-56.1-2.9-56.1-2.9l-1.1,4.2C288,131.6,305.5,145.1,305.5,145.1z"/>
	<path class="st2" d="M231.4,166.5c49.3-27.6,69.5-20.2,77.1-13.5c-23.5-24.6-73,7.2-73,7.2L231.4,166.5L231.4,166.5L231.4,166.5z"
		/>
</g>
</svg>
