<?xml version="1.0" encoding="utf-8"?>
<!-- Generator: Adobe Illustrator 26.0.2, SVG Export Plug-In . SVG Version: 6.00 Build 0)  -->
<svg version="1.1" id="Layer_1" xmlns="http://www.w3.org/2000/svg" xmlns:xlink="http://www.w3.org/1999/xlink" x="0px" y="0px"
	 viewBox="0 0 512 512" style="enable-background:new 0 0 512 512;" xml:space="preserve">
<style type="text/css">
	.st0{fill:#A2AAAD;}
	.st1{fill:#041E42;}
	.st2{fill:#C8102E;}
	.st3{fill:#FFFFFF;}
</style>
<g>
	<path class="st0" d="M381.9,354.1c-5.4,0-9.9,4.4-9.9,9.9c0,5.4,4.4,9.9,9.9,9.9c5.4,0,9.9-4.4,9.9-9.9
		C391.8,358.5,387.4,354.1,381.9,354.1z M381.9,371.7c-3.1,0-6-1.9-7.2-4.8c-0.4-0.9-0.6-1.9-0.6-3c0-4.3,3.5-7.7,7.7-7.7
		c4.3,0,7.7,3.5,7.7,7.7C389.7,368.2,386.2,371.7,381.9,371.7L381.9,371.7z M386,361.6c0-1.4-0.8-2.6-2.1-3.1
		c-0.4-0.2-0.8-0.3-1.3-0.3h-4.8v11.3h2.1V365h1.5l2.1,4.6h2.3l-2.2-4.8C385.1,364.3,386,363.1,386,361.6L386,361.6z M382.6,362.9
		H380v-2.5h2.6c0.7,0,1.2,0.6,1.2,1.2C383.8,362.3,383.3,362.9,382.6,362.9z"/>
	<path class="st0" d="M393.5,341.2L481,139.8c0,0-63.3,37.5-135.7,66.2l124.4-92.5L391.4,127c-11.2-6.7-50.1-26.9-113-26.9
		c0,0-5.5,0.1-10.2,0.2c-2.3-6.8-13.3-38.9-13.3-38.9L234.8,103C120.2,117.8,31,185.5,31,258.5c0,32.6,14,75.6,78.5,98.8L77,437.7
		l86.1-67.9c18.5,2.5,39,3.8,61.1,3.8c25.9,0,51.3-2,75.8-5.7l94.2,82.7l-32.1-97C362,353.6,380.9,347.5,393.5,341.2L393.5,341.2z"
		/>
	<path class="st1" d="M464.8,158c0,0-73.8,43-156,71.4l-2.9-8l141-97.8l-156.7,40.1l87.7-35.3c0,0-37.1-20.7-99.5-20.7
		c-5.2,0-10.4,0.1-15.6,0.4l-9.1-26.7l-48.8,101.2l-74.4,21.1l69.1-28.3l22.7-46.2l4.7-9.7l4.1-8.4C127.1,126,38.6,188,38.6,258.5
		c0,39.5,21.7,75.7,81.3,94.3l-30.8,67l71.7-58c18.6,2.7,39.6,4.1,63.4,4.1c29.8,0,56-2.5,78.2-6.1l79.5,70.6l-29.7-81.8
		c23.1-6.8,35.5-13,35.5-13L464.8,158L464.8,158L464.8,158z"/>
	<path class="st0" d="M165.9,252.6l6.1-13.4l-36-9.9C136,229.3,125.8,247.6,165.9,252.6L165.9,252.6z"/>
	<path class="st0" d="M385.8,152.7l-114.6,27.8l-20.2-63.1l-32,76.3l-87,21.8l60.9,14.9l-11.7,23.3c1.1,0,2.1,0.1,3.2,0.1
		c1.5,0,3,0,4.5,0c4.2,0,8.5-0.1,12.8-0.4c10.6-0.6,21.6-2,32.8-4c8.5-1.5,17.2-3.4,25.8-5.5c11.5-2.8,23-6.2,34.4-9.8l-6.6-17.6
		L385.8,152.7L385.8,152.7z M340.6,355.9c-3.1,1.1-5.6,2.2-7.6,3.9c-1.9,1.6-3.4,3.7-4.5,7c-0.4,1.3-0.7,2.6-1,3.9l26.6,21
		L340.6,355.9L340.6,355.9L340.6,355.9z M134.5,357.4c-0.8-0.3-1.7-0.5-2.6-0.6c-0.8-0.1-1.5-0.2-2.3-0.2l-14.5,28.9l27.2-20.2
		C140.7,362.1,138.7,358.9,134.5,357.4z"/>
	<path class="st2" d="M267.8,316.4c-33.6-6.4-53.8-12.9-53.8-12.9s15.5-6,38.5-16.5c20.5-9.4,46.9-22.4,73.4-37.9
		c21.3-12.5,42.8-26.6,61.3-41.8c0,0-107.7,58.7-197.1,58.7c-60.1,0-87.9-27.9-87.9-46.6c0-55.7,98-84.5,120-90.3l4.7-9.7
		C132.8,138,97.7,175,97.7,175s-31.5,19-43.4,54.4c-3,8.8-4.5,18.1-4.5,27.4c0,42.6,27.9,98.3,171,98.3
		c101.5,0,155.5-26.9,155.5-26.9c-16.5-0.5-33-1.6-49.5-3.2C304.4,322.6,284.4,319.5,267.8,316.4L267.8,316.4L267.8,316.4z
		 M352.2,127.7c0,0-29.5-14.4-87-12.5l2.6,7.8C274.2,122.3,308.8,119,352.2,127.7z"/>
	<path class="st3" d="M172,297.4c35.4,0,65.1-6.3,80.5-10.4c20.5-9.4,46.9-22.4,73.4-37.9c-22.3,8.5-92.9,33.6-142.8,33.6
		c-75.8,0-99.5-43.9-99.5-68.7c0-22.2,14.1-38.9,14.1-38.9s-26.1,18.3-26.1,48.7C71.6,273.7,121.6,297.4,172,297.4L172,297.4z"/>
	<path class="st3" d="M201.2,320.8c-140.9,0-147.2-75.1-146.9-91.4c-2.8,8.3-4.5,17.4-4.5,27.4c0,0,1.5,83,162.4,83
		c52.4,0,99.6-11.1,114.5-14.9c-22.4-2.3-42.4-5.4-59-8.5C256.6,318.1,234.4,320.8,201.2,320.8L201.2,320.8z M378.5,260.6
		c-4.6-9.6-17.9-11.3-29.9-3.8c-11.9,7.6-17.9,21.4-13.3,31.1c4.6,9.6,17.9,11.3,29.8,3.7C377.1,284.1,383,270.2,378.5,260.6
		L378.5,260.6z"/>
	<path class="st3" d="M259.2,296.4l-0.1-3.4l-3,3.7l-4.6,0.6l2.9,1.6l-2.9,3.8l4.9-2.6l3.4,2.4l-0.6-4l4.6-2.6L259.2,296.4
		L259.2,296.4z M295,279.5l-0.1-3.4l-3.1,3.8l-4.8,0.6l3,1.6l-3,3.9l5.2-2.7l3.5,2.6l-0.6-4.2l4.8-2.7L295,279.5z M321,282.2
		l-0.1-3.2l-2.8,3.5l-4.4,0.6l2.7,1.5l-2.7,3.5l4.7-2.4l3.2,2.3l-0.5-3.8l4.3-2.5L321,282.2L321,282.2z M285.1,301.7v-3.1l-2.9,3.4
		l-4.4,0.4l2.7,1.6l-2.8,3.5l4.7-2.3l3.2,2.4l-0.5-3.8l4.4-2.4L285.1,301.7L285.1,301.7z M310.8,305.4l0-3.2l-2.9,3.5l-4.4,0.4
		l2.7,1.6l-2.8,3.5l4.7-2.4l3.2,2.4l-0.5-3.8l4.4-2.4L310.8,305.4L310.8,305.4z M332.1,257.1l-0.1-4l-3.5,4.4l-5.6,0.7l3.4,1.9
		l-3.4,4.5l5.9-3.1l4.1,3l-0.7-4.8l5.5-3.2L332.1,257.1z M367.2,236.3l-3.2,5.8l6.7-4.4l6,3.1l-2.2-5.8l6.1-4.5l-6.9,1.4l-1.2-4.8
		l-3.3,5.8l-6.9,1.5L367.2,236.3L367.2,236.3z M423,207.5l-8.3,0.9l-0.7-6.1l-4.8,6.8l-8.3,1.1l5.5,2.9l-4.6,6.9l8.5-4.7l6.5,4.5
		l-1.7-7.4L423,207.5L423,207.5z M379.3,308.4l0-4.9l-4.4,5.3l-6.8,0.7l4.2,2.4l-4.3,5.4l7.2-3.6l4.9,3.7l-0.7-5.9l6.7-3.7
		L379.3,308.4L379.3,308.4z M392.2,276.4l-0.1-4.4l-4,4.9l-6.2,0.8l3.9,2.1l-3.9,5l6.6-3.4l4.6,3.3l-0.8-5.4l6.1-3.5L392.2,276.4
		L392.2,276.4z M403.4,245l-0.1-4.9l-4.3,5.4l-6.8,0.9l4.2,2.3l-4.2,5.5l7.2-3.8l5,3.6l-0.8-5.9l6.6-3.8L403.4,245L403.4,245z
		 M343.4,304.9l-3.3,4l-5.1,0.5l3.1,1.8l-3.2,4l5.4-2.7l3.7,2.7l-0.6-4.4l5-2.8l-5,0.4L343.4,304.9L343.4,304.9z M250.9,128.1
		l-16.4,74.5l32.2-20.9L250.9,128.1L250.9,128.1z M367.1,162.4l-132.6,40.2c0,0,48.7,10.6,50.2,10.8
		C286.2,213.7,367.1,162.4,367.1,162.4L367.1,162.4z M260.4,243.9l-25.8-41.2v46.8C243.1,247.9,251.7,246,260.4,243.9L260.4,243.9z
		 M184.4,253.8c1.5,0,3,0,4.5,0c4.2,0,8.5-0.1,12.8-0.4l32.8-50.8L196,231L184.4,253.8z"/>
	<path class="st3" d="M220.6,195l-71.5,19.3l85.4-11.7L220.6,195L220.6,195z M328.5,366.8l17.6,13.9l-13.1-21
		C331.1,361.4,329.6,363.5,328.5,366.8z M121,378.4l13.6-21c-0.8-0.3-1.7-0.5-2.6-0.6L121,378.4L121,378.4L121,378.4z"/>
	<path class="st2" d="M350.4,259.6c-9.7,6.1-14.8,17.6-11.4,25.6c3.4,8,14,9.5,23.7,3.4c9.7-6.1,14.8-17.6,11.4-25.6
		C370.7,255,360.1,253.5,350.4,259.6L350.4,259.6z"/>
</g>
</svg>
