<?xml version="1.0" encoding="utf-8"?>
<!-- Generator: Adobe Illustrator 26.0.2, SVG Export Plug-In . SVG Version: 6.00 Build 0)  -->
<svg version="1.1" id="Layer_1" xmlns="http://www.w3.org/2000/svg" xmlns:xlink="http://www.w3.org/1999/xlink" x="0px" y="0px"
	 viewBox="0 0 512 512" style="enable-background:new 0 0 512 512;" xml:space="preserve">
<style type="text/css">
	.st0{fill:#00823E;}
	.st1{fill:#A2AAAD;}
	.st2{fill:#FFFFFF;}
</style>
<g>
	<path d="M324.1,416.4c-4.8,0-8.7,3.9-8.7,8.7c0,4.8,3.9,8.7,8.7,8.7c4.8,0,8.7-3.9,8.7-8.7C332.8,420.2,328.9,416.4,324.1,416.4z
		 M324.1,431.8c-2.8,0-5.2-1.7-6.3-4.2c-0.3-0.8-0.5-1.7-0.5-2.6c0-3.8,3-6.8,6.8-6.8c3.8,0,6.8,3,6.8,6.8
		C331,428.8,327.9,431.8,324.1,431.8L324.1,431.8z M327.7,423c0-0.8-0.3-1.5-0.9-2.1c-0.6-0.6-1.3-0.9-2.1-0.9h-4.2v9.9h1.9v-4h1.3
		l1.9,4h2.1l-2-4.2C326.9,425.4,327.7,424.3,327.7,423L327.7,423z M324.8,424.1h-2.3v-2.2h2.3c0.6,0,1.1,0.5,1.1,1.1
		C325.8,423.6,325.4,424.1,324.8,424.1L324.8,424.1z"/>
	<path class="st0" d="M333.6,295.8c2-3.4,3.8-6.8,5.3-10.2L481,209.5H331.5c-11.2-11.7-27.4-18.9-47.3-20.9L272.3,71.1L201.7,188
		h-38l-12.9,21.5H31l80.9,65.2l-50.3,84.1h36.9l-49.6,82l153.2-82.1c4.5,0,9.1-0.2,13.6-0.4l93,74.9l-10-99.1
		C312.7,324.6,324.1,312,333.6,295.8L333.6,295.8z"/>
	<path d="M332.9,280l117.2-62.7H328c-11-13.1-28.5-20.5-50.9-21.4L266.9,95l-60.8,100.7h-38l-12.9,21.5H53l69.1,55.6l-46.7,78.1
		h36.9l-42,69.6l130-69.6c6,0,12.1-0.2,18.1-0.5l80.9,65.2l-8.6-85.3c14.7-9.3,26.5-21.9,36.2-38.5C329.2,288,331.2,284,332.9,280z"
		/>
	<path class="st1" d="M322.8,240c0,0-1.2-3.8-2.9-7.2l-23.8,11.6c1.5,4,3.8,13.7-2.1,28.1c-6.7,16.4-26.8,45.3-81.6,45.3h-73.5
		l-36.2,17.8h64.9l-8.3,2.2l-46.5,42.5l83.6-44.8h3.5c8.4,0,16.2-0.3,23.5-0.9l14.7-1.8c2.8-0.5,5.6-1,8.3-1.5
		c27.3-5.8,45-17.4,57.8-33.5c3.4-4.3,6.5-8.8,9.3-13.7c4-6.9,6.8-13.4,8.6-19.6C324.6,255.4,324.8,247.2,322.8,240L322.8,240
		L322.8,240z M153.6,250.4L97,232.8l0,0l45.3,36.5L153.6,250.4L153.6,250.4z M240,211.3h23.1l-6.9-68.4L240,211.3z M328,247.8
		c0.6,1.1,1.1,2.2,1.5,3.3c0.1,0.2,0.2,0.5,0.3,0.7c0.3,0.9,0.7,1.8,0.9,2.7c0.1,0.3,0.2,0.7,0.3,1c0.2,0.9,0.5,1.8,0.7,2.7
		c0.1,0.3,0.1,0.6,0.2,0.9c0.2,1.3,0.4,2.5,0.6,3.8l0,0l36.2-19.6l19.5-10.6L328,247.8z M275.2,332.7c-1.7,0.2-3.3,0.3-4.9,0.4
		c-0.1,0-0.2,0-0.4,0c-1.6,0.1-3.2,0.2-4.7,0.2c-0.1,0-0.3,0-0.4,0c-1.6,0.1-3.1,0.1-4.6,0.1h-0.2c-1.6,0-3.1,0-4.5,0v0l24.7,46.9
		L275.2,332.7L275.2,332.7z"/>
	<path class="st1" d="M260,227.9h-67.3l-0.1-0.1l-53.6,90l36.3-17.7l20.7-33.8l6.3-10.4l-4.7-3.8l-9.4-7.6l0,0h56.2
		c1.1,0,2.1,0,3.1,0c0.1,0,0.2,0,0.2,0c0.9,0,1.8,0.1,2.6,0.1c0.3,0,0.5,0,0.8,0.1c0.6,0,1.3,0.1,1.9,0.1c0.4,0,0.7,0.1,1,0.1
		c0.5,0.1,1,0.1,1.5,0.2c0.4,0.1,0.8,0.1,1.1,0.2c0.4,0.1,0.8,0.1,1.2,0.2c0.4,0.1,0.8,0.1,1.2,0.2c0.3,0.1,0.7,0.1,1,0.2
		c0.4,0.1,0.8,0.2,1.1,0.3c0.3,0.1,0.6,0.2,0.9,0.2c0.4,0.1,0.7,0.2,1.1,0.4c0.6,0.2,1.2,0.5,1.8,0.7l0.6,0.3c0.5,0.3,1,0.5,1.5,0.8
		c0.3,0.2,0.6,0.4,0.9,0.6c0.1,0.1,0.3,0.2,0.4,0.3c0.3,0.2,0.6,0.5,0.9,0.7c0.1,0.1,0.2,0.2,0.3,0.3c0.3,0.3,0.5,0.6,0.8,0.9
		c0.1,0.1,0.2,0.2,0.2,0.3c0.2,0.3,0.5,0.6,0.7,1c0,0.1,0.1,0.2,0.1,0.2c0.2,0.4,0.4,0.8,0.6,1.2c0,0,0,0.1,0,0.1
		c0.2,0.5,0.4,0.9,0.5,1.4l0,0l23.5-11.5C289.7,229.6,271.5,227.9,260,227.9L260,227.9L260,227.9z"/>
	<path class="st2" d="M223.3,334.6l56.7,45.7l-24.7-46.9c-7.3-0.1-13.5-0.5-17.3-0.6L223.3,334.6 M134.4,344.5l-21.6,35.8l46.5-42.5
		 M175.2,300.1l-36.3,17.7h73.5c54.8,0,74.9-28.9,81.6-45.3c5.9-14.4,3.7-24,2.1-28.1l-23.5,11.5c0.1,0.5,0.3,0.9,0.4,1.4
		c2.1,10.9-6.8,26.5-21.9,35.3c-11.9,7-26.3,7.5-38.7,7.5H175.2"/>
	<path class="st2" d="M192.6,227.8l0.1,0.1H260c11.4,0,29.7,1.6,36.1,16.5l23.8-11.6c1.7,3.4,2.9,7.2,2.9,7.2
		c2.1,2.6,3.8,5.2,5.2,7.8l60.2-15H320c-7.3-13.4-23.9-21.5-47.9-21.5H240l16.2-68.4v0l-41.3,68.4H177l-12.9,21.5H97v0l56.6,17.6
		l-11.3,18.9l-39.6,66.3l36.2-17.8L192.6,227.8L192.6,227.8z"/>
</g>
</svg>
