<?xml version="1.0" encoding="utf-8"?>
<!-- Generator: Adobe Illustrator 26.0.2, SVG Export Plug-In . SVG Version: 6.00 Build 0)  -->
<svg version="1.1" id="Layer_1" xmlns="http://www.w3.org/2000/svg" xmlns:xlink="http://www.w3.org/1999/xlink" x="0px" y="0px"
	 viewBox="0 0 512 512" style="enable-background:new 0 0 512 512;" xml:space="preserve">
<style type="text/css">
	.st0{fill:#C8102E;}
	.st1{fill:#FFFFFF;}
</style>
<g>
	<path class="st0" d="M263.1,357.4c-4.3,0-7.8,3.5-7.8,7.8c0,4.3,3.5,7.8,7.8,7.8c4.3,0,7.8-3.5,7.8-7.8
		C270.9,360.9,267.4,357.4,263.1,357.4z M263.1,371.4c-3.4,0-6.1-2.7-6.1-6.1c0,0,0,0,0,0c0-3.4,2.7-6.1,6.1-6.1
		c3.4,0,6.1,2.7,6.1,6.1C269.3,368.6,266.5,371.4,263.1,371.4z M266.3,363.4c0-0.7-0.3-1.4-0.8-1.9c-0.5-0.5-1.2-0.8-1.9-0.8h-3.8
		v8.9h1.7v-3.6h1.2l1.7,3.6h1.8l-1.8-3.8C265.6,365.5,266.3,364.5,266.3,363.4L266.3,363.4z M263.7,364.4h-2.1v-2h2.1
		c0.5,0,1,0.4,1,1C264.7,364,264.2,364.4,263.7,364.4L263.7,364.4z"/>
	<path class="st0" d="M443.7,191.1c18.9-16.2,37.3-42.2,37.3-72.1c0-4.3-5.3-5.5-7.4-2.6c-19.5,26.6-37.9,36.7-49,40.6
		c18.5-14,36.6-36.8,41.2-62.7c0.5-4.7-4.6-6.1-7-3.6c-22.6,22.6-53.7,46.7-137.4,46.7c-20.2,0-43.3-0.6-58.3-0.6
		c-67.9,0-92.9,42-98.5,53.7c-5.6-0.8-11.3-1.3-16.9-1.3C83.4,189.1,31,241.5,31,305.9c0,64.4,52.4,116.7,116.7,116.7
		c47.4,0,89.3-28,107.6-71.5c1.3,0.1,2.7,0.4,3.8,0.4c14.8,0,17.9-4.3,17.9-8c0-2-1.9-4.3-2.9-5.7c21.7-0.1,28.1-1.1,37.5-4.4
		c1.5-0.5,2.4-1.9,2.4-3.4c0-3.2-6.6-8.5-11.3-12.6c30.4-0.5,52.7-5.9,52.7-13c0-1.4-0.1-3.1-8.2-9.5c17.1-4.7,47.2-16.2,47.2-23.7
		c0-2.9-2.5-4.7-5.5-6.7c26.7-10,49.1-27.7,49.1-34.1c0-5.1-7.5-5.6-11.3-5.8c13.3-8.5,31.8-23,31.8-29.3
		C458.5,188.8,448.4,191.3,443.7,191.1L443.7,191.1L443.7,191.1z"/>
	<path class="st1" d="M436,192.7c21.2-15.9,41.4-43.4,41.4-73.8c0-0.6-0.6-0.7-0.9-0.5c-32.8,44.8-62.7,44.4-62.7,44.4
		c-1.3,0-1.6-1.8-0.6-2.6c21.2-12.5,43.9-38.2,49-66.7c0.1-0.4-0.5-0.8-0.9-0.4c-24.1,24.1-57.3,47.8-139.9,47.8
		c-26.5,0-40.3-0.6-58.3-0.6c-71.7,0-93.7,47.7-96.4,54c-6.3-1.1-12.7-1.6-19.1-1.6c-62.5,0-113.1,50.7-113.1,113.1
		c0,62.5,50.7,113.1,113.1,113.1c47.8,0,88.8-29.7,105.3-71.7c2.1,0.4,4.2,0.6,6.1,0.6c11.5,0,14.3-2.6,14.3-4.4
		c0-1.2-7.4-9.3-3.7-9.3c25.6,0,31.3-1,40.7-4.2c-4.5-7-20.8-16.2-12.4-16.2c40.5,0,53.8-7.8,53.8-9.5c0-1.9-12.9-11.2-12.9-11.2
		c18.7-3.1,51.9-18,51.9-22c0-2.3-9.5-6.2-8-8.4c29.6-9.8,51.6-29,51.6-32.4c0-2.8-17.3-2.5-17.3-2.5v-1.8
		c15-7.8,37.9-26.7,37.9-30.8C454.9,192.6,433.5,197.1,436,192.7L436,192.7z"/>
	<path class="st0" d="M175.5,284.5c-3.7-4.8-8.5-8.6-14.1-10.9l-0.9,0.9l1.9,12.9c0.6,0.5,1.2,1,1.7,1.5l9.5,0.1
		C174.2,287.5,174.9,286,175.5,284.5L175.5,284.5z M134.6,274.6l10.5,7.8c0.7-0.1,1.5-0.1,2.2-0.1l9.3-9.2l-0.2-1.3
		c-2.8-0.7-5.7-1.1-8.6-1.1c-4.5,0-9,0.9-13.2,2.6L134.6,274.6L134.6,274.6z M157.2,277.7l-5.1,5c2.1,0.4,4.2,1.1,6.2,2.1
		L157.2,277.7L157.2,277.7z M161,325.3c-1.8,1.2-3.8,2.2-5.8,2.9l5.8,4.3L161,325.3L161,325.3L161,325.3z M114.3,357.6l16.7-16.4
		c-6.5-3.1-12-7.9-16-13.9l-14,18.8C104.8,350.5,109.3,354.4,114.3,357.6L114.3,357.6z M167.2,292.6c0.9,1.3,1.7,2.8,2.3,4.3
		c0.8-1.4,1.5-2.8,2.2-4.2L167.2,292.6L167.2,292.6z M135.9,343.2c-0.4-0.1-0.8-0.3-1.2-0.4l-17.1,16.8c6.7,3.8,14.1,6.3,21.8,7.3
		L135.9,343.2L135.9,343.2z M167.1,320.4l-0.9,0.1c-0.5,0.6-1,1.1-1.5,1.7l-0.1,13.1l1,0.8c3.2-1.9,6-4.2,8.4-7
		C170.6,325.8,168.1,322.8,167.1,320.4z M134.5,286.4c1.8-1.2,3.8-2.2,5.8-2.9l-5.8-4.3L134.5,286.4L134.5,286.4z M113,323.9
		c-0.2-0.4-0.4-0.8-0.6-1.1l-24-0.2c2.1,7.6,5.6,14.5,10.2,20.6L113,323.9L113,323.9z M160.9,337.1l-10.5-7.8
		c-0.7,0.1-1.5,0.1-2.2,0.1l-9.3,9.2l0.2,1.3c2.8,0.7,5.7,1.1,8.6,1.1c4.5,0,9-0.9,13.2-2.6L160.9,337.1L160.9,337.1z M138.3,334.1
		l5.1-5c-2.1-0.4-4.2-1.1-6.2-2.1L138.3,334.1z M164.6,341.2l-0.2,24c7.5-2.1,14.5-5.6,20.6-10.2l-19.2-14.4
		C165.4,340.8,165,341,164.6,341.2L164.6,341.2z M128.3,319.2c-1.2-1.8-2.2-3.8-2.9-5.8l-4.3,5.8L128.3,319.2L128.3,319.2z
		 M131.4,322.9l-13.1-0.1l-0.8,1c3.8,6.4,9.6,11.5,16.5,14.4l0.9-0.9l-1.9-12.9C132.5,323.9,132,323.4,131.4,322.9z M130.7,289.5
		l0.1-13.1l-1-0.8c-6.4,3.8-11.5,9.6-14.4,16.5l0.9,0.9l12.9-1.9C129.7,290.6,130.2,290.1,130.7,289.5L130.7,289.5z M119.5,296.4
		l5,5.1c0.4-2.1,1.1-4.2,2.1-6.2L119.5,296.4z M113.8,297.2c-0.7,2.8-1.1,5.7-1.1,8.6c0,4.5,0.9,9,2.6,13.2l1.3,0l7.8-10.5
		c-0.1-0.7-0.1-1.5-0.1-2.2L115,297L113.8,297.2L113.8,297.2L113.8,297.2z M139.7,344.2l3.4,23.1c5.9,0.4,11.8,0,17.6-1.2l0.2-23.4
		c-4.2,1.5-8.7,2.3-13.1,2.3C145,345,142.3,344.7,139.7,344.2z M182,259.3c0-1.6,0-3.2-0.1-4.8c-0.2-0.2-0.5-0.3-0.7-0.5l-16.7,16.4
		c4.9,2.3,9.2,5.6,12.7,9.7C179.9,273.4,182,265.8,182,259.3L182,259.3z M129.8,271.1c0.4-0.2,0.8-0.4,1.1-0.6l0.2-24
		c-7.5,2.1-14.5,5.6-20.6,10.2L129.8,271.1L129.8,271.1z M155.8,267.5l-3.4-23.1c-1.5-0.1-3.1-0.2-4.6-0.2c-4.4,0-8.8,0.5-13,1.4
		l-0.2,23.4c4.2-1.5,8.7-2.3,13.1-2.3C150.5,266.7,153.2,267,155.8,267.5L155.8,267.5z M196.3,343.9c-7.1-3.7-13.8-8-19.1-12.2
		c-2.3,2.7-5,5-8,7l18.8,14C191,350,193.8,347.1,196.3,343.9z M178,252.1c-6.7-3.8-14.1-6.3-21.8-7.3l3.5,23.8
		c0.4,0.1,0.8,0.3,1.2,0.4L178,252.1z M86.1,305.9c0,4.4,0.5,8.8,1.4,12.9l23.4,0.2c-1.5-4.2-2.3-8.7-2.3-13.1c0-2.7,0.3-5.4,0.8-8
		l-23.1,3.4C86.1,302.8,86.1,304.3,86.1,305.9z M86.7,297.4l23.8-3.5c0.1-0.4,0.3-0.8,0.4-1.2L94,275.6
		C90.2,282.4,87.7,289.8,86.7,297.4z M96,272.4l16.4,16.7c3.1-6.5,7.9-12,13.9-16l-18.8-14C103.1,263,99.2,267.4,96,272.4L96,272.4z
		 M147.7,318.6c7,0,12.7-5.7,12.7-12.7c0-7-5.7-12.7-12.7-12.7s-12.7,5.7-12.7,12.7C135,312.9,140.7,318.6,147.7,318.6z"/>
	<path class="st0" d="M147.7,229.6c-42.1,0-76.3,34.2-76.3,76.3c0,42.1,34.1,76.3,76.3,76.3c25.7,0,48.5-12.7,62.3-32.2
		c-2.9-1-5.8-2.2-8.8-3.6C189,362.5,169.6,373,147.7,373c-37.1,0-67.1-30-67.1-67.1c0-37.1,30-67.1,67.1-67.1
		c12.4,0,24,3.4,33.9,9.2c-0.1-3.3-0.1-6.7,0.2-10.3C171.6,232.5,160,229.6,147.7,229.6L147.7,229.6z"/>
	<path class="st0" d="M232.5,352.9c-4.9,1.2-11.3,0.4-18.1-1.5c-14.5,21.3-39,35.2-66.7,35.2c-44.6,0-80.7-36.1-80.7-80.7
		c0-1.4,0-2.8,0.1-4.3c-2.5,3.8-1.8,10-6.2,10c-3.5,0-1.6-4.8-4.1-4.8c-1.6,0-1.8,2.2-3.8,2.2c-0.2,0-0.4-0.1-0.6-0.1
		c-0.4,0-0.6,0.9-1.4,0.9c-1,0-1.8-1.2-2.6-1.2c-0.9,0-1.2,1.8-2.4,1.8c-1.3,0-2.5-2.1-3-3.1c0.8,57.2,47.4,103.2,104.7,103.2
		c43.9,0,81.5-27,97.1-65.3c-11.7-3.6-23-9.5-23-9.5C222.5,342.8,232.5,352.9,232.5,352.9z M53.4,265.8c2.4,2,0.5,5.5,2.2,7.9
		c13.3-38.1,49.5-65.4,92.1-65.4c13.9,0,27.2,2.9,39.2,8.2c0.9-2.2,1.9-4.4,3.1-6.5c-12.9-5.7-27.2-8.9-42.2-8.9
		c-44,0-81.7,27.2-97.2,65.6C51.4,267.3,52.4,265,53.4,265.8z M275.7,158.1h57.6c73.6,0,105.9-26.3,118.6-49.7
		c0.7-1.4-0.2-1.7-1.6-0.5c-16,14.4-39.9,39.5-137.6,39.5h-41.2c-64.8,0-89.2,29.2-95.6,48.7c3.2,0.8,6.4,1.8,9.6,2.9
		C197,178.4,218.9,158.1,275.7,158.1L275.7,158.1z"/>
	<path class="st0" d="M274.3,173c-57.7,0-90.9,39.6-87.1,77.5c2.8,28.2-12.9,51.1-12.9,51.1s22-10,22-50.1
		c0-38.1,37.9-65.8,69.8-65.8c30.9,0,66.7,0.2,84.4,0.2c94.2,0,116.9-43.5,120.2-52c0.6-1.3-0.3-1-0.6-0.4
		c-19.7,26.5-47.2,41.6-121.9,41.6C300.2,175.1,285.1,173,274.3,173L274.3,173z"/>
	<path class="st0" d="M295.8,206c-15.6,0-17.1,4.3-17.1,4.3c-0.5,0.6-0.2,2-1.3,2.4c-3.6,1.4-7.5-1.6-10.6,2.4
		c-1.8,2.4-6.3-0.6-9.2,1.1c-0.7,0.4,0,2,0.5,2.3c1.4,0.6,3.6,0.4,4.5,1.1c0.9,0.7,0.8,1.8,1.6,2.4c1,0.8,3,1.1,3.8,2.3
		c0.7,0.9,0.9,2.7,1.9,2.8c23.4,1.3,47.4,1.3,69.6-7.3C341.9,215.9,317.6,206,295.8,206L295.8,206z M203.9,257.5
		c0.3,2.3-0.3,5.7,0.2,5.8c16.3,1.8,32.8-1.1,47.9-8c4.2-1.8-16.4-12.5-33.4-12.5c-5.6,0-9.3,2.4-9.3,2.4c-1,0.5-1.7,2.8-2.8,4.4
		c-0.8,1.2,0.8,3.2,0.1,4C205.2,255.1,203.7,256,203.9,257.5L203.9,257.5L203.9,257.5z M226.2,217.9c-0.8,0.1-1.4,1.4-2,2.2
		c-1.5,2.1-6.2,1.6-6.1,4c0.1,4.3-4.8,5.1-5.5,8.2c-0.6,2.4-1.9,4.3-2.1,6.9c17.3,0.1,35-1,50.3-9.8
		C264.8,227.6,239.7,215.9,226.2,217.9L226.2,217.9z M281.2,203.1c-1.3-5-7.3-5.9-11.5-8.4c-1.6-1-3.6-0.5-5.5,0.3
		c-4.1,1.8-9.4-1.2-13.6,1.8c-1.2,0.9-1.9,2.5-3.4,2.9c-1.9,0.5-3.9,0.6-5.9,0.8c-0.7,0.1-2.1,0.6-2,1.4c0.4,3.5-2.9,4.3-5.5,5.2
		c-2.5,0.9-1.6,4.2-1.7,6.7C248.9,214.1,266.4,211.7,281.2,203.1L281.2,203.1z M195.4,286.2c4.3,2.2,25.2-0.8,36.1-7.5
		c-11.2-9.5-29.1-12.9-29.1-12.9C199.9,272.5,197.4,279.2,195.4,286.2L195.4,286.2z"/>
	<path class="st0" d="M192.3,290.1c-2,1.1-4.4,4.2-2.5,5.4c3.3,2.2,8.8,7.3,34.2,7.3c24.7,0,34.1-7.6,38.8-12.4
		c0-3.1-21.8-9.3-24.7-7.6c-0.9,0.4-1,1.3-1.1,1.7c-1,0.4-4,0.4-4.7,1c-1.7,1.2-1.4,3.3-1.8,3.4c-3.9,1-8.6-1.5-12.3,0.2
		c-1,0.5-0.9,3.2-2.2,3.3c-2.6,0.2-5.6-1.4-8.1-0.6c-0.4,0.1-1.8,0.3-2.7,0.9c-1.4-0.7-2.1-0.9-3.9-1.3c-1.3-0.3-2.6,0.6-4.3,0.3
		C195.4,291.4,193.7,289.4,192.3,290.1z M292.5,272.3c4.6-2.4,10.1-2.6,13.4-7.1c-20.5-10.7-44.4-9.6-47.4-7.9
		c-0.7,0.4-1.6,1.9-2.5,2.5c-1.4,0.9-2.7,0.5-3.6,1.4c-0.6,0.6,0.1,2-0.3,2.6c-0.5,0.7-1.6,0.9-2.4,1.2c-0.7,0.4-2.2-0.2-3.4,0.2
		c-1.1,0.5-1.2,1.5-1.9,1.9c-2.7,1.4-6.7-0.2-8.6-0.2c-1,0-0.7,1.6-0.4,1.9c1.2,1.2,4.8,1.6,4.6,3.4c0,0.4-0.9,1.6-1.4,1.7
		c1.9,4,19.4,9.3,42.4,1.7C284.9,274.4,288.8,274.2,292.5,272.3L292.5,272.3L292.5,272.3z M318.7,242.7c1.9-1.3,4.3-1.3,5.4-3.1
		c2.5-3.2-21.5-8.5-31.2-8.5c-9.7,0-27.5,2.4-30.6,3.5c-1.3,0.5-1.3,3.1-2.8,3.3c-2.9,0.4-5.7,0.7-8.6,0.9c-0.9,0.1-0.7,1.6-0.4,1.8
		c1.9,1.5,2.5,2.5,3.2,4.8c0.1,0.2,2,0,2.4,0.4c1.9,1.6,3.2,3.9,5.6,4.5c11.3,2.7,22.3,3.5,33.9,0.8c1.2-0.3,2.2-1.3,3.3-1.4
		c4.1-0.5,8.3-0.8,11.5-3.8C312.7,243.8,316.2,244.4,318.7,242.7L318.7,242.7z M346.3,193.7c0.7-0.4,0.1-2.6-0.4-2.7
		c-2.6-0.4-5.4-1.4-8.2,1.1c-1,0.9-2.7-1-4-0.2c-1.1,0.6-2.1,2.3-3.1,2.8c-2.7,1.2-5.3-1.6-8.3-1.3c-0.9,0.1-0.7,2-1.5,2.2
		c-2.6,0.6-4.8-2.2-6.2-1.2c-2.2,1.4-4.1,3.2-6.7,2c-2.6-1.2-6-3.6-7.7-2.1c-3.1,2.7-6.8-1.2-9.5-0.2c-2.3,0.9-8.4,2.3-4.2,4.8
		C299.2,206.9,326.3,205.3,346.3,193.7L346.3,193.7L346.3,193.7z M217.8,340.9c-0.7-1.2-2.4-0.6-3.6-1.3c-0.9-0.5-1.3-2.4-2.2-3.1
		c-0.7-0.5-2.3,0.7-3.1,0.2c-1.2-0.7-2.1-2.2-3-3.2c-1-1.1-1.9-2.3-2.9-3.5c-0.9-1.1-1.9-2-3.1-2.7c-0.6-0.4-1.9,0.4-2.7,0.2
		c-1.4-0.4-2.2-2.8-3.3-3.7c-0.6-0.6-1.7-0.7-2.2-1.2c-0.6-0.6-0.7-1.6-1.3-2.3c-0.8-0.9-2-1.2-2.9-1.9c-1.2-1-2.1-3.4-3-4.8
		c-0.9-1.4-2.3-1.5-3.1-2.7c-1.1-1.5-1.7-4-3.1-5.5c-1.3-1.5-4.7,0.9-5.8,3c-1.7,3.4-1.6,7.6,1,10.5c12.7,14.2,29.2,25.9,48,29
		C220.1,345.9,218.6,342.4,217.8,340.9L217.8,340.9z M259.5,336.1c-1.9-0.5-3.6-1.6-5.4-2.3c-1.1-0.4-2.1,1.2-3.3,0.5
		c-2.4-1.4-4.4-3.4-6.3-4.9c-1.5-1.2-4.5-4.2-5.8-3.6c-0.5,0.2-1.2,3-2.5,2.1c-3-2.2-4.9-4.6-7.6-7c-1.3-1.1-2.5,2.5-4.1,1.8
		c-3.7-1.8-5.2-5.8-8-8.6c-3.3-3.3-6.5-7.1-11-8.3c-0.8-0.2-0.3,0.9-1,1.5c-3.5,2.7-7.3-1.9-10.7-3.5c-3.1-1.4-5.8-3.7-9.3-3.9
		c-0.7-0.1-0.7,1.1-0.4,1.4c19.8,23.5,47.3,41,77.5,40.3c0.7,0,2.1,0.1,1-1.4C261.7,339,260.7,336.4,259.5,336.1L259.5,336.1z
		 M287.6,319c-0.9-0.1-2.3,1.1-3,0.9c-2.3-0.4-4.2-2.5-7-4c-1.2-0.6-1.8,2.2-2.7,2.1c-4.7-0.3-11.5-5.3-15.7-7.8
		c-0.7-0.5-5.2,0.4-6,0.6c-2.7,0.5-6.1-4.2-8.3-5.2c-1.6-0.8-3.9-1.5-5.4-0.4c-2.1,1.5-4.5,0.7-6.8,0.7c-0.9,0-1.7,1.9-2.8,2.2
		c-3.1,1-6.5-1.2-9.6,0.4c-0.1,0-0.5,0.7-0.5,0.9c0.2,1.9,2.3,2.2,3.7,3.1c21.8,13.8,55.4,18.3,74.2,14.1c0.4-0.1-0.2-1.7-1.5-2.7
		c-1.3-1-3.2-1.4-4-2C290.3,320.6,289.3,319.3,287.6,319L287.6,319z M331.4,298.9c-2.3,0.7-4.1-1-6-0.3c-0.4,0.2-0.7,0.9-1.1,0.9
		c-3.6,0.1-6-3.8-9.7-3.5c-0.9,0.1-0.9,1.7-1.7,1.9c-2.3,0.5-4.3-2.2-6.3-1.2c-1.5,0.7-2.5,0.7-3.9,0.2c-1.8-0.5-3.2-2.1-4.9-2.4
		c-1.5-0.2-3.1,1.3-4.8,0.8c-4.3-1.3-7.7-5.4-12.3-4.4c-2.3,0.5-4.3-1.1-5.9-0.1c-1.7,1-2.2,2.3-4,3.3c-1.2,0.7-4,0.6-5.2,1.4
		c-0.9,0.6-1.2,2-2.3,2.5c-2,0.8-4.4,0.2-6.4,1.3c-0.2,0.1-0.3,1.2,0.5,1.4c17.8,6,46.5,12.6,80.9,3.7c1.1-0.3,1.3-1,0.4-2
		C336.8,300.3,334.2,298.1,331.4,298.9z M372.5,268.8c-3,1.4-6.5-0.2-9.9,0.6c-0.9,0.2-0.2,1.5-1.1,1.6c-3.3,0.5-6.7-0.4-9.8,0.8
		c-2.4,0.9-5.3-0.1-8-0.1c-1,0-1,1.4-1.2,2.5c-0.1,0.9-1.6,1.5-2,1.4c-3.3-1-6.5-1.3-9.8-1.8c-8.4-1.2-16.7-3.9-24.6-1.6
		c-2.6,0.8-6,1.4-8,3.4c-0.8,0.8-1.6,2.3-2.6,2.7c-4.8,1.8-10.1,2.1-14.9,3.8c-1.5,0.5-4.2,2.6-3.2,2.8c0,0,14.9,4.3,31.1,4.3
		c31.2,0,55-7.7,72.3-17.2C379.9,270.9,374.8,267.7,372.5,268.8L372.5,268.8z M406.7,234.7c-1.9,0.6-4.5-1.2-6.2,0
		c-2.4,1.8-5.3,1.5-7.8,1.2c-1.2-0.1-3.1-0.5-4.1,0.3c-0.7,0.5,0.3,1.4,0.9,2c-6.3,2.2-13.3,0.1-19.3,2.6c-0.4,0.2-0.7,2.4-1.8,2.6
		c-5.5,1.1-10.6-1-16.1,0c-1.4,0.3-0.8,3.2-2.2,3.3c-4.9,0.2-9.7-0.2-14.5-0.4c-5.8-0.2-11.2,1.9-16.7,3.5c-1.6,0.5-2.1,3.1-3.9,3.3
		c-4.7,0.7-9.6-0.1-13.9,2c-0.3,0.1-0.3,1.6,0,1.8c5.3,3,11.4,5.1,15,9.9c36.9-0.4,76.6-5.2,107.3-30.4c0.6-0.5-3-1.2-5-1.7
		c-1.9-0.4-3.5-0.4-5.8-1.2C410.6,232.8,408.7,234,406.7,234.7L406.7,234.7z M445,200c-0.4-0.2-6-1.2-9-0.5
		c-0.7,0.2-1.1,1.2-1.7,1.3c-4,0.6-6.8,2.5-10.8,2.7c-0.8,0-2.7,0.6-3.8,1.1c-1.5,0.7-3.5-1-4.6,0.3c-0.7,0.8,0.5,2.8-0.8,3.5
		c-3.5,1.7-7.6-1.3-11.1,0.9c-1,0.7,1.1,2.9-0.2,3.3c-5,1.6-13.5-6.2-16.8,1.8c-0.5,1.3-2.1,0.7-3,0.4c-0.9-0.2-2.3-0.7-2.8-0.2
		c-3,2.5-4.8,3.5-9.1,2.3c-1.1-0.3-1.1,2.9-3.2,2.4c-2.4-0.6-4.7-2.3-6.9-1.3c-1,0.5-0.3,3.1-1.8,3.3c-6,0.6-12.1-0.3-17.6,2.2
		c-1.4,0.6-1.5,3-3.4,3.4c-4.2,0.7-8.4,0.2-12.3,1.5c-0.6,0.2-0.5,2.1,0.5,2.2c2.5,0.4,5.4,0,7.3,1.1c2.4,1.4,3.9,5.4,6.2,5.5
		c47.4,0.9,81.6-16.1,105.1-35.6C446,200.6,445.5,200.2,445,200L445,200z M433.4,172.2c-0.7,0.3-0.5,2.7-1.8,3.3
		c-2.3,1.1-5,1-7.5,1.8c-0.9,0.3-0.9,1.5-1.7,2c-1.3,0.8-3.1,0.1-4.1,0.9c-6,4.4-13.1,2.4-19.7,3.5c0.1,5-7.8,1.9-11,4.1
		c-3.5,2.4-3.1,1.7-8.3,1.8c-1.6,0-0.8,2.4-2.1,2.5c-4.2,0.1-9.6-1.3-12.8-0.3c-0.6,0.2-0.7,2.8-1.9,3.1c-2.3,0.6-4.7,0.9-6.9,1.6
		c-1.7,0.5,0.5,3.7-1.7,4.5c-3.9,1.2-8.1,0.3-12,2.5c-1.5,0.9-3.8,0-5.7,0.4c-1.7,0.3-2.3,2.1-1,2.9c1.2,0.7,3.3,0.5,4.6,1.1
		c2.8,1.4,5.2,3.4,8.3,3.6c50,3.1,114.8-32.5,125-75.6c0.4-1.7-0.4-1.4-0.8-0.4C461.4,161.2,433.4,172.2,433.4,172.2L433.4,172.2z"
		/>
</g>
</svg>
