<?xml version="1.0" encoding="utf-8"?>
<!-- Generator: Adobe Illustrator 26.0.2, SVG Export Plug-In . SVG Version: 6.00 Build 0)  -->
<svg version="1.1" id="Layer_1" xmlns="http://www.w3.org/2000/svg" xmlns:xlink="http://www.w3.org/1999/xlink" x="0px" y="0px"
	 viewBox="0 0 512 512" style="enable-background:new 0 0 512 512;" xml:space="preserve">
<style type="text/css">
	.st0{fill:#00205B;}
	.st1{fill:#FFFFFF;}
	.st2{fill:#D14520;}
</style>
<g>
	<path class="st0" d="M421.2,423.4c-5.8,0-10.6,4.7-10.6,10.5c0,5.8,4.7,10.5,10.6,10.5s10.5-4.7,10.5-10.5
		C431.8,428.1,427,423.4,421.2,423.4L421.2,423.4z M421.2,442.2c-4.6,0-8.3-3.7-8.3-8.3c0,0,0,0,0,0c0-4.6,3.7-8.3,8.3-8.3
		c4.6,0,8.3,3.7,8.3,8.3C429.5,438.5,425.8,442.2,421.2,442.2z M425.5,431.5c0-0.9-0.4-1.9-1-2.5c-0.7-0.7-1.6-1-2.5-1h-5.1v12h2.3
		V435h1.6l2.3,4.9h2.5l-2.4-5.1C424.6,434.3,425.5,433,425.5,431.5L425.5,431.5z M422,432.8h-2.8v-2.6h2.8c0.7,0,1.3,0.6,1.3,1.3
		C423.3,432.2,422.7,432.8,422,432.8L422,432.8L422,432.8z"/>
	<path class="st1" d="M256,481c124.3,0,225-100.7,225-225c0-124.3-100.7-225-225-225C131.7,31,31,131.7,31,256
		C31,380.3,131.7,481,256,481z"/>
	<path class="st0" d="M268.5,41.8c25.7,40.3,37.3,55.1,37.3,77.6c0,27.1-22.7,49-49.8,49c-27.1,0-49.8-21.9-49.8-49
		c0-22.5,11.6-37.4,37.3-77.6C130.8,48.3,41.4,141.7,41.4,256c0,118.5,96.1,214.6,214.6,214.6c118.5,0,214.6-96.1,214.6-214.6
		C470.6,141.7,381.2,48.3,268.5,41.8L268.5,41.8z M256,451.1c-107.7,0-195-87.3-195-195.1c0-90.4,61.5-166.4,144.9-188.5
		c-4.4,5.5-19.2,25.8-19.2,52c0,37.8,31.1,68.5,69.3,68.5c38.2,0,69.3-30.7,69.3-68.5c0-26.2-14.7-46.4-19.2-52
		c83.4,22.1,144.9,98.2,144.9,188.5C451.1,363.7,363.7,451.1,256,451.1L256,451.1z"/>
	<path class="st0" d="M296.6,279.4h-14v22.4c0,4.5-3.6,8.1-8.1,8.1c-4.5,0-8.1-3.6-8.1-8.1v-28.5h16.2v-21.1h-16.2v-16.4
		c0-4.5,3.6-8.1,8.1-8.1c4.5,0,8.1,3.6,8.1,8.1v10.2h14v-47.3h-59.2v29c5.7,0,10.4,4.6,10.4,10.4v66c0,3.3-2.7,5.9-5.9,5.9
		c0,0,0,0,0,0v119.5c0,8.5-4.5,12.4-6.6,13.8c6.9,0.8,13.8,1.3,20.7,1.3c8.6,0,17-0.6,25.2-1.9c0,0,15.4-3.1,15.4-16.6L296.6,279.4
		L296.6,279.4z"/>
	<path class="st0" d="M237.4,279.4h-14v24.6c0,3.3-2.6,5.9-5.9,5.9c-3.3,0-5.9-2.6-5.9-5.9v-70.4c0-3.3,2.7-5.9,5.9-5.9c0,0,0,0,0,0
		v-29h-30.4v29c3.3,0,5.9,2.7,5.9,5.9v70.4c0,3.3-2.7,5.9-5.9,5.9V414c0,8.7-4.8,11.5-7,12.4c13.4,6.8,28,11.9,43.3,14.9
		c0,0,14,2.1,14-11.9V279.4z"/>
	<path class="st0" d="M182.7,414V309.9c-3.3,0-5.9-2.7-5.9-5.9v-70.4c0-1.6,0.6-3.1,1.7-4.2c1.1-1.1,2.6-1.7,4.2-1.7v-29h-30.4v29
		c3.3,0,5.9,2.7,5.9,5.9v70.4c0,3.3-2.7,5.9-5.9,5.9v70.9c0,14.8-7.6,17.2-11.6,17.4c9.5,9.2,20,17.3,31.5,23.9
		C172.1,422.1,182.7,426,182.7,414 M417.6,245.9v-31.9c0-8.5-6.9-15.4-15.4-15.4H384c-8.5,0-15.4,7-15.4,15.4v42.6
		c0,2.3,1.4,5.4,3.1,6.9l24.4,21.8c1.7,1.5,3.1,4.6,3.1,6.9v9.4c0,4.6-3.7,8.3-8.3,8.3c-4.6,0-8.3-3.7-8.3-8.3v-22.2h-14v121.4
		c30.3-28.1,49.1-67.4,49.1-111v-6.3c0-2.3-1.4-5.3-3.1-6.9l-24.4-21.8c-1.7-1.5-3.1-4.6-3.1-6.9v-14.5c0-3.3,2.7-6,6-6
		c3.3,0,6,2.7,6,6v12.4L417.6,245.9L417.6,245.9L417.6,245.9z"/>
	<path class="st0" d="M147.8,380.8V214.1c0-8.5-6.9-15.4-15.4-15.4h-22.6c-8.5,0-15.4,6.9-15.4,15.4v75.8c0,38,14.3,72.7,38,99.6
		C137,395.5,147.8,397.2,147.8,380.8L147.8,380.8z M129.2,301.7c0,4.5-3.6,8.1-8.1,8.1c-4.5,0-8.1-3.6-8.1-8.1v-66
		c0-4.5,3.6-8.1,8.1-8.1c2.2,0,4.2,0.9,5.8,2.4c1.5,1.5,2.4,3.6,2.4,5.8V301.7z M358.2,303.9v-34.5c0-5.9-6.6-8.6-6.6-8.6
		s6.6-2.7,6.6-8.6v-38.1c0-8.5-7-15.4-15.4-15.4H301l0,29c2.4,0,4.6,1.4,5.5,3.7c0.3,0.7,0.5,1.5,0.5,2.3v70.4
		c0,2.4-1.4,4.6-3.7,5.5c-0.7,0.3-1.5,0.5-2.3,0.5V426c0,6-2.4,10.6-5.7,13.9c10.9-2.6,21.4-6.3,31.4-10.9c0,0,7.1-3.5,7.1-16.5
		V309.9c-4.6,0-8.3-3.7-8.3-8.3v-25.8c0-3.5,2.9-6.4,6.4-6.4c2.6,0,4.9,1.6,5.9,3.9c0.3,0.8,0.5,1.6,0.5,2.4v138
		c0,3.9-0.5,7.2-1.4,9.9c8.2-4.6,16-9.8,23.3-15.8c0,0,3.8-3.2,3.8-18.3v-79.9c-1.6,0-3.1-0.6-4.2-1.7
		C358.8,307,358.2,305.5,358.2,303.9L358.2,303.9z M339.6,245.1c0,3.9-3.1,7-7,7c-3.9,0-7-3.2-7-7v-10.5c0-3.9,3.1-7,7-7
		c0,0,0,0,0,0c1.9,0,3.7,0.7,5,2.1c1.3,1.3,2.1,3.1,2.1,5V245.1z"/>
	<path class="st2" d="M292.3,120.1c0-25.4-22-39-36.3-74.5c-14.2,35.5-36.3,49.1-36.3,74.5c0,17.4,14.3,34.3,36.3,34.3
		C277.9,154.4,292.3,137.5,292.3,120.1z"/>
</g>
</svg>
