<?xml version="1.0" encoding="utf-8"?>
<!-- Generator: Adobe Illustrator 26.0.2, SVG Export Plug-In . SVG Version: 6.00 Build 0)  -->
<svg version="1.1" id="Layer_1" xmlns="http://www.w3.org/2000/svg" xmlns:xlink="http://www.w3.org/1999/xlink" x="0px" y="0px"
	 viewBox="0 0 512 512" style="enable-background:new 0 0 512 512;" xml:space="preserve">
<style type="text/css">
	.st0{fill:#041E42;}
	.st1{fill:#B9975B;}
	.st2{fill:#FFFFFF;}
	.st3{fill:#C8102E;}
</style>
<g>
	<path class="st0" d="M311.9,468.3v8.5h-2.1v-8.5h-2.5v-2.1h7.1v2.1H311.9L311.9,468.3z M323.5,476.9v-6.3l-1.8,3.9h-1.9l-1.8-3.9
		v6.3h-2.1v-10.7h2.1l2.7,5.7l2.7-5.7h2.1v10.7L323.5,476.9L323.5,476.9z M55.1,76.7V162c0,23.3,3.3,84.6,34.1,151.3
		C126.7,394.6,181.9,442.5,256,481c73.5-38.2,129.1-85.9,166.8-167.7c30.8-66.7,34.1-128,34.1-151.3V76.7
		C394.8,44.4,323.8,31,256,31C188.8,31,117.6,44.2,55.1,76.7L55.1,76.7z"/>
	<path class="st1" d="M66,83.4V162c0,22.5,3.2,82,33.1,146.7c34.9,75.6,87.8,124.1,156.9,160c69.4-36,122.2-84.6,156.9-160
		C442.8,244,446,184.6,446,162V83.4c-55-28.6-127-41.5-190-41.5C192.8,41.9,120.9,54.8,66,83.4L66,83.4L66,83.4z"/>
	<path class="st0" d="M337.9,242.8c9-5,21-16.3,21-16.3c6.5-19.1,12-44.6,12-44.6c0-2.5-3-6.6-3-6.6c-3.1-1.6-10.1-2.6-10.1-2.6
		c-10.4,1.7-24,11.9-34.8,20.4c5.6,0,15.4-1.8,15.4-1.8c-2,5-9,18.2-9,18.2c4.5,0.3,13.2-1.7,13.2-1.7c-3.4,10.4-9.8,23-9.8,23
		L337.9,242.8L337.9,242.8z M262.9,207.3c-1.4-0.6-2.8-1.2-4.2-1.7c-2.6-1-5.2-2-7.8-3c0,0-0.9,0-2.5,0.2c-0.4,0-0.9,0.1-1.4,0.2
		c-1.3,0.2-2.5,0.4-3.8,0.6c-6.6,1.3-17.3,4.2-32.1,10.9h0l-1.3-2.6l-1.7-3.5l-16.9,23.3h0c5.7,1.1,11.7,1.4,17.2,1.4
		c12-0.1,21.7-1.9,21.7-1.9c6.3-5.3,11.9-11.1,15.7-15.2c1.1-1.2,2.1-2.4,3.2-3.6c1.1-1.3,1.8-2.1,2-2.4
		C254.9,208.9,258,208.3,262.9,207.3L262.9,207.3L262.9,207.3z M288.7,222.7c-9.5-7.6-15.7-9.6-15.7-9.6s0.6,10.8-0.3,14.3
		c-9.3,12.7-20.3,24.6-20.3,24.6l33.2-15.2C287.4,229.7,288.7,222.7,288.7,222.7z"/>
	<path class="st0" d="M256,139.9c-102.7,0-170.9,33.3-176.3,36c3.3,64.1,29.8,179.9,139.3,255.5c14.6-7.8,24.4-21,30.2-31.3
		c11.5,14,12.7,33.4,12.7,33.4c-0.8,9.5-5.9,20.1-5.9,20.1h0c9.5-4.9,18.8-10.3,27.9-16.1c14.6-9.4,27.9-19.5,39.9-30.1l0,0
		c0.3-0.3,0.7-0.6,1-0.9c38.6-39.9,39.7-99.8,39.7-99.8c-8.4-34.9-23.2-47-23.2-47c2.9,16,4.8,33.5,4.8,33.5
		c-9.4,20.8-26.2,34.6-26.2,34.6c-15.1,1.7-27.2,0.2-48.2-6.9c-18.2-6.2-31.8-15.8-31.8-15.8s-6.9-0.4-14.9,0.4
		c-6.8,0.7-14.9,2.5-14.9,2.5c9-16,14.4-32.2,15.4-39.6c-6.2-6.5-12.8-12.7-19.6-17.6c-15,0.7-26.9,1.6-26.9,1.6l5-20.5
		c0,0-3.4,2.9-7.3,6.7c-4.1,4.1-8.7,9.3-8.7,9.3c-9,3.6-21.6,5.6-21.6,5.6c-6.5-1.7-12.6-5.9-12.6-5.9
		c15.1-22.4,39.8-31.4,39.8-31.4c-4.5-5.3-4.2-9.5-4.2-9.5c6.3-4.2,12-7.6,17.1-10.4c-1.2,3.3-1.4,5.6-1.4,5.6s8.6-7,13.9-10.1
		c3.8-2.3,7.7-4.5,11.6-6.6c3.8-12.3,10.3-22.2,12-23.6c0,0,3.4-0.6,5.2-0.3c0.3,4,4.9,10.4,6.8,12.9c-9.5,3.1-17.8,9.3-17.8,9.3
		s20.9-5.6,39.5-6.2c25.1-0.8,40.6,4.8,40.6,4.8c-3.8,5.4-8.9,11.2-8.9,11.2c41.5-14.1,45.9-24.8,68.4-29.7c8.2,1.3,15.6,4,15.6,4
		c5.3,5.6,6.6,11.4,6.6,11.4c-3.1,24-12.8,50.9-12.8,50.9c-7.6,9.3-20.6,17.7-20.6,17.7c13-1.7,32.4-7.6,32.4-7.6
		c12,8.8,27.8,27.9,34.4,36.1c13.6-37.8,19-73.4,20.4-100C426.9,173.2,358.7,139.9,256,139.9L256,139.9L256,139.9z"/>
	<path class="st2" d="M140.7,301.2c0,0,5.5-8.6,9.6-12.6l-5.8-16.4c-2.2-2.1-4.1-4.1-5.9-6.4c-1.5-1.9-2.9-3.9-4.2-6l-5.8,15.1
		C128.7,274.8,134,289.7,140.7,301.2L140.7,301.2z M148.6,309.8c0,0,3.4,11.6,13.5,19.6c0,0,15.1-6.3,37-8.4c0,0-28-11.5-46.3-24.4
		C152.8,296.7,148.8,301.7,148.6,309.8z M230.1,231.2c0,0-9.7,1.9-21.7,1.9c-5.5,0-11.4-0.3-17.2-1.4l12.3,5.8
		c8.9,0.4,19.4,0.3,30.1-2.2c5.1-4.8,13.1-13.5,17.3-20.8c0,0,0.1-2,0-4.5c-0.2,0.2-0.9,1.1-2,2.4c-1,1.2-2.1,2.4-3.2,3.6
		C241.9,220.1,236.3,225.9,230.1,231.2L230.1,231.2L230.1,231.2z M194.6,304.5c0,0,1-1.6,2.4-4.2c-5.3-5-11.2-8.6-11.2-8.6
		c6.5-0.2,12,0.8,14.5,1.3c0.4-1,0.8-2.1,1.2-3.2c-6.4-5.1-14.1-8.7-14.1-8.7c7-1,14-0.5,16.4-0.3c0.2-1,0.3-2,0.4-3
		c-7.6-5.2-18.6-8.3-18.6-8.3c5-1.6,9.6-2.3,12.5-2.7l-5.6-6.5c0,0-6.2-0.3-13,0.2c-8.7,0.6-16.6,1.7-16.6,1.7
		c-1.3,1-3.3,2.6-4.8,3.8c-2.7,2.4-3.7,3.7-5.4,5.9l0.3,16C158.1,290.4,178.3,299.7,194.6,304.5L194.6,304.5z M280.4,350.5
		c0,0,2.9,6.9,4.8,16.8c1.6,8.5,0.8,13.7,0.8,13.7c-26.9-30.9-66-49.8-66-49.8s54.1,44.6,41.8,102.4c-0.8,9.5-5.9,20.1-5.9,20.1h0
		c9.5-4.9,18.8-10.3,27.9-16.1c14.6-9.4,27.9-19.5,39.9-30.1C308.5,373.4,280.4,350.5,280.4,350.5L280.4,350.5z M211.1,214.5
		c14.7-6.6,25.5-9.6,32.1-10.9c1.3-0.2,2.5-0.5,3.8-0.6c0.5-0.1,0.9-0.1,1.4-0.2c1.7-0.2,2.5-0.2,2.5-0.2h0
		c-19.6-3.5-42.8,5.8-42.8,5.8l1.7,3.5L211.1,214.5L211.1,214.5z"/>
	<path class="st3" d="M218.6,224c-2.9,1.2-6.8-0.4-8.1-1.8c-1.1,1.8-2.2,3.8-2.2,3.8s8.1,3.8,17.7-0.8c5.9-2.8,7.3-8,7.3-8
		c-3.6,0.3-7.1,0.7-10.3,1.3C222.5,219.9,221.4,222.9,218.6,224L218.6,224z M79.3,161.7c52.9-24.1,118.5-35,176.7-35
		c58,0,123.7,10.9,176.7,35V91.5c0,0-69.6-36.2-176.7-36.2S79.3,91.5,79.3,91.5L79.3,161.7L79.3,161.7z"/>
	<path class="st2" d="M174.3,112.1c-5,0.9-10,2-15,3.1V78.6c-3.1,0.7-6.1,1.4-9.2,2.1v45.9c8-2,16.1-3.7,24.3-5.2
		C174.3,121.4,174.3,112.1,174.3,112.1z M256.3,95.5c0.7,0,1.5,0,2.2,0c2.5,6.1,5,12.3,7.5,18.4c3.3,0.1,6.6,0.2,10,0.3
		c-2.5-6.2-5-12.4-7.4-18.6c1,0,2.1,0.1,3.1,0.1c1.5-2.6,2.9-5.2,4.4-7.7V76.3c-1.4-2.7-2.9-5.4-4.4-8.1c-8.2-0.3-16.4-0.3-24.7-0.2
		c0,15.3,0,30.6,0,45.8c3.1-0.1,6.3-0.1,9.4-0.1V95.5L256.3,95.5z M256.3,77.2c3.4,0,6.8,0,10.3,0.1v9c-3.4-0.1-6.8-0.1-10.3-0.1
		C256.3,86.3,256.3,77.2,256.3,77.2z M113.9,118.8c3.5-1.2,7-2.3,10.5-3.4v-9.3c-3.5,1.1-7,2.2-10.5,3.4v-9
		c4.9-1.6,9.8-3.2,14.7-4.7v-9.2c-8,2.4-15.9,5-23.7,7.8c0,15.3,0,30.6,0,45.8c3-1.1,6-2.1,9-3.1V118.8L113.9,118.8z M388.3,115.6
		c3.3,1,6.6,2.1,9.9,3.2v18.3c3,1,6,2.1,9,3.1v-37.9c-1.4-3.1-2.8-6.3-4.2-9.4c-6.5-2.3-13-4.4-19.5-6.3c-1.4,2.2-2.8,4.4-4.2,6.7
		v37.9c3,0.9,6.1,1.8,9.1,2.7V115.6L388.3,115.6z M388.3,97.3c3.3,1,6.6,2.1,9.9,3.2v9c-3.3-1.1-6.6-2.2-9.9-3.2V97.3z M220.6,115.2
		c1.4-2.8,2.9-5.5,4.4-8.2V77c-1.5-2.5-2.9-5.1-4.4-7.6c-6.8,0.5-13.5,1.2-20.2,2.1c-1.5,2.8-2.9,5.7-4.3,8.5v30
		c1.4,2.4,2.9,4.9,4.3,7.3C207.1,116.5,213.8,115.8,220.6,115.2C220.6,115.2,220.6,115.2,220.6,115.2z M205.4,80.1
		c3.4-0.4,6.8-0.7,10.2-1v27.3c-3.4,0.3-6.8,0.7-10.2,1C205.4,107.4,205.4,80.1,205.4,80.1z M307.3,70.9c-3.1-0.4-6.2-0.7-9.4-1
		v45.9c3.1,0.3,6.2,0.6,9.4,1V70.9z M357.7,117.7v-30c-1.4-3-2.9-5.9-4.3-8.9c-8.1-1.8-16.2-3.4-24.3-4.7v45.8
		c8.1,1.4,16.3,2.9,24.3,4.7C354.9,122.3,356.3,120,357.7,117.7z M348.5,114.3c-3.4-0.7-6.7-1.4-10.1-2V84.9c3.4,0.6,6.7,1.3,10.1,2
		C348.5,86.9,348.5,114.3,348.5,114.3z"/>
</g>
</svg>
