<?xml version="1.0" encoding="utf-8"?>
<!-- Generator: Adobe Illustrator 26.0.2, SVG Export Plug-In . SVG Version: 6.00 Build 0)  -->
<svg version="1.1" id="Layer_1" xmlns="http://www.w3.org/2000/svg" xmlns:xlink="http://www.w3.org/1999/xlink" x="0px" y="0px"
	 viewBox="0 0 512 512" style="enable-background:new 0 0 512 512;" xml:space="preserve">
<style type="text/css">
	.st0{fill:#0E4431;}
	.st1{fill:#DDC9A3;}
	.st2{fill:#EAAA00;}
	.st3{fill:#AC1A2E;}
	.st4{fill:#FFFFFF;}
</style>
<g>
	<path class="st0" d="M330.5,371.7c-4.3,0-7.8,3.5-7.8,7.8c0,4.3,3.5,7.8,7.8,7.8c4.3,0,7.8-3.5,7.8-7.8
		C338.2,375.2,334.8,371.7,330.5,371.7L330.5,371.7z M330.5,385.6c-1.6,0-3.2-0.6-4.3-1.8c-1.1-1.1-1.8-2.7-1.8-4.3
		c0-3.4,2.7-6.1,6.1-6.1c3.4,0,6.1,2.7,6.1,6.1C336.6,382.9,333.8,385.6,330.5,385.6z M333.7,377.7c0-0.7-0.3-1.4-0.8-1.9
		c-0.5-0.5-1.2-0.8-1.9-0.8h-3.8v8.9h1.7v-3.6h1.2l1.7,3.6h1.8l-1.8-3.8C333,379.8,333.7,378.8,333.7,377.7L333.7,377.7z M331,378.7
		h-2.1v-1.9h2.1c0.5,0,1,0.4,1,1C332,378.3,331.6,378.7,331,378.7z"/>
	<path class="st1" d="M481,177.4c0,0-16-5.3-29.9-8c0.2,0,15.5-12.3,15.5-12.3s-61.8-16.3-135.4-11.4c0,0-10.7-35-60.2-35
		c-36.8,0-57.8,23.1-64.3,41c-69.4,15.5-122.2,51-122.2,51l12.7,9.6c-32.7,17.4-66.2,45-66.2,45s3.3,16.6,23.3,42.9
		c0,0,13.4,10.3,48.8,23.6c0,0,6.8-1.7,10.1-3.4c4.9,1.6,9.9,3,14.8,3.9c-0.2,4.5-1.5,10.8,6.7,18.4l-6,3.2c0,0,7.4,18.3,48.1,27.9
		c15.5-3.7,86.2-17.1,110.6,27.4l123-120.9h-26.2L481,177.4L481,177.4z"/>
	<path class="st0" d="M457.5,182.6c-15-5.7-35-9.8-35-9.8l12.4-9.6c-67.2-13.5-113.2-9.2-113.2-9.2s-9.2-34.9-54-34.9
		c-43.3,0-56.2,38.7-56.2,38.7c-59.2,11.7-115,45.7-115,45.7l13.6,10.2C75.2,230.8,39,260.1,39,260.1c5.1,16,20.1,35.3,20.1,35.3
		c13.9,9.7,44.4,21.6,44.4,21.6c4.4-1,9.1-3.7,9.1-3.7s15.2,6,31.4,6c5.9,0,12.5-0.7,12.5-3c0-4-12.1-5.2-12.1-9.7
		c0-3.3,7.3-7.8,35-7.8c16.6,0,35.4,1.2,35.4,1.2c-13.7,0-40.5,3.5-40.5,9.8c0,4.9,18.2,5.2,18.2,11.8c0,9.6-14.3,12.9-30.9,12.9
		c-14.9,0-22-4.2-25.3-4.2c-1.3,0-2.1,0.6-2.1,1.5c0,3.5,6.6,10.4,11.9,12.4l-7.2,4.2C147,359,177,367,177,367
		c85.6-18.7,111.9,24,111.9,24l100.3-103.8h-23.6L457.5,182.6z"/>
	<path class="st2" d="M307.8,165.7c-27.6-0.9-55.3,0.7-81.7,4.8c-0.2,1.7-0.3,3.4-0.3,5.1c0,1.9,0.1,3.8,0.4,5.6
		c25.8-2.8,54.2-3.7,82.6-0.7c0.2-1.6,0.3-3.3,0.3-5C309,172.1,308.6,168.8,307.8,165.7z M267.4,217.2c15.3,0,28.7-8.3,35.9-20.6
		c-22.6,2.9-44.2,6.7-63.2,10.4C247.4,213.3,256.9,217.2,267.4,217.2L267.4,217.2z M267.4,133.9c-21.3,0-38.8,15.9-41.3,36.5
		c0,0,20.9-9.4,77.7-15.1C296.6,142.6,283,133.9,267.4,133.9C267.4,133.9,267.4,133.9,267.4,133.9z"/>
	<path class="st3" d="M307.8,165.7c0.8,3.2,1.2,6.6,1.2,9.9c0,1.7-0.1,3.3-0.3,5c18.1,1.9,36.1,5.4,53.5,11.1
		c-19.6,0.7-39.6,2.5-58.9,5c-7.2,12.3-20.6,20.6-35.9,20.6c-10.4,0-20-3.8-27.3-10.2c-40.2,8-68.5,16.1-68.5,16.1
		c19.9,0.9,31.2,5.5,31.2,5.5c-51.4,10.4-99.3,30.2-114.8,37c3.7,5.9,8.5,12.8,8.5,12.8l-7.7,9.5c13.7,2.5,30.8,1,30.8,1l25.5-15.6
		l20,6l6-8.2h-6.6l13.2-21.3l11.1,21.2h-5l3.4,7.3l13.8-2.5l5.9-7.5h-5.3l7.9-12.1h-5.9l12.4-21.1l10.6,21.8l-4.7,0l7.1,12.7h-5.6
		l11.5,21l11.5-16.2h-7.9l11.9-17.9h-7.6l17.2-29.4L275,257h-6.2l10.1,17.5h-7.2l9.8,21.7l16.7-27.2H289l13.6-22.1h-8.3l18.2-37
		l19.1,38.8h-6.7l12.3,20.4h-8.4l9.4,20.2l15.4-23.4h-8.3l17.9-25.8h-9.6l28.6-39.5l15.1,27.2l32.1-39.5
		C392.4,174.4,350.3,167,307.8,165.7L307.8,165.7z M225.8,175.5c0-1.7,0.1-3.4,0.3-5.1c-38.7,5.9-74.8,17-104.1,32.8
		c0,0,45.2-15.8,104.1-22.1C225.9,179.3,225.8,177.5,225.8,175.5L225.8,175.5z"/>
	<path class="st4" d="M272.2,190.6c-54.3,1.8-103.2,15.3-103.2,15.3c-0.4-2.4-0.7-4.8-1.1-7.2c-1.7,2.8-3.3,5.6-5,8.4
		c0,0-24.6,9-40.8,17.5c20.8-7.2,37.7-11.6,37.7-11.6c-1.7,3.6-3.3,7.1-5,10.7c3.1-2.8,6.1-5.5,9.2-8.2c2.2,1.2,4.4,2.4,6.6,3.6
		c-0.3-2.7-0.6-5.2-0.9-7.9C169.7,211.1,224.5,195.8,272.2,190.6L272.2,190.6z"/>
</g>
</svg>
