<?xml version="1.0" encoding="utf-8"?>
<!-- Generator: Adobe Illustrator 26.0.2, SVG Export Plug-In . SVG Version: 6.00 Build 0)  -->
<svg version="1.1" id="Layer_1" xmlns="http://www.w3.org/2000/svg" xmlns:xlink="http://www.w3.org/1999/xlink" x="0px" y="0px"
	 viewBox="0 0 512 512" style="enable-background:new 0 0 512 512;" xml:space="preserve">
<style type="text/css">
	.st0{fill:#001E62;}
	.st1{fill:#FFFFFF;}
	.st2{fill:#A6192E;}
</style>
<g>
	<path class="st0" d="M409.5,379.1c-5,0-9,4-9,9c0,5,4,9,9,9c5,0,9-4,9-9C418.5,383.2,414.4,379.1,409.5,379.1L409.5,379.1z
		 M409.5,395.3c-3.9,0-7.1-3.2-7.1-7.1c0,0,0,0,0,0c0-3.9,3.2-7.1,7.1-7.1c3.9,0,7.1,3.2,7.1,7.1
		C416.5,392.1,413.4,395.3,409.5,395.3z M413.2,386.1c0-0.8-0.3-1.6-0.9-2.2c-0.6-0.6-1.4-0.9-2.2-0.9h-4.4v10.3h1.9v-4.2h1.4l2,4.2
		h2.1l-2-4.4C412.3,388.5,413.2,387.4,413.2,386.1L413.2,386.1z M410.1,387.2h-2.4V385h2.4c0.6,0,1.1,0.5,1.1,1.1
		C411.2,386.7,410.7,387.2,410.1,387.2L410.1,387.2z"/>
	<path class="st1" d="M431.3,253.9l32.2-33.8l-18.3-84.3l-81.4-24.2l-7.3,6.8c-27.2-8.1-76.2-16.5-108.9-16.5
		C126.5,102.1,31.4,169.4,31,255.2c0,73.4,63.3,154.9,217.7,154.9c122.3,0,232.3-81.4,232.3-81.4L431.3,253.9z"/>
	<path class="st0" d="M420.5,253l33.8-35.5L438,142.4L366,121l-7.4,6.8c-24.3-8-76.2-17.6-111-17.5c-118.1,0.2-207.9,65-208.2,144.9
		c-0.4,83.8,80.9,146.4,209.3,146.4c89.8,0,181.8-47.9,220.7-75.2L420.5,253L420.5,253L420.5,253z"/>
	<path class="st1" d="M262,281.4h-19.6V298l19.6,0V281.4z M381.3,259.3c-15.3-13.4-37.5-27.5-65.6-34.3v62.3
		C337,281.4,360.3,271.4,381.3,259.3L381.3,259.3L381.3,259.3z M187.6,289.7v-67.5c-19.5,5.6-41.3,16.7-41.3,34.1
		C146.2,268.3,164.7,282.7,187.6,289.7L187.6,289.7z M242.8,230.3h19.1v-15.8l-19.1-0.8V230.3z"/>
	<path class="st1" d="M407.9,260.8c0,0-51,34.8-107.2,45.3v-98.8c61,7.7,97.2,47.6,97.2,47.6l40.7-42l-13.1-59l-55.6-16.2l-7,7.7
		c-22.5-8.8-69.1-20.2-120.6-20.2c-103.2,0-187.6,58.5-187.7,130.7C54.4,326.1,126,387,241.5,387c106.7,0,183.7-50.8,207.9-64.5
		L407.9,260.8z M231.8,242.2v-40.5c14.1-0.7,29.8,0,40.9,1.3v39.1L231.8,242.2L231.8,242.2z M272.7,268.9v40.7
		c-11.5,1.4-29,1.7-40.9,0.8v-41.6H272.7z M202.5,204.1v103.6c-17,0-71.3-20-71.3-51.4C131.1,217.4,186.6,206.7,202.5,204.1z"/>
	<path class="st2" d="M404.9,275.4c-66.7,39.2-111.1,46.8-165.3,46.3c-76.1-0.7-119.5-31.2-119.5-67.4c0-32.7,39.8-63.9,121-63.9
		c54.7,0,120.6,14.6,155.8,49.3l29.3-29.9l-10-47.4l-43.2-12.6l-7.8,8.9c-23.7-9.5-63.7-22.6-125.3-22.6
		C147,136,65.5,189.7,65.5,254.7c0,67.9,71,121.1,171.7,121.1c102.1,0,162.1-38.5,196.7-56.7L404.9,275.4L404.9,275.4L404.9,275.4z"
		/>
</g>
</svg>
