<?xml version="1.0" encoding="utf-8"?>
<!-- Generator: Adobe Illustrator 26.0.2, SVG Export Plug-In . SVG Version: 6.00 Build 0)  -->
<svg version="1.1" id="Layer_1" xmlns="http://www.w3.org/2000/svg" xmlns:xlink="http://www.w3.org/1999/xlink" x="0px" y="0px"
	 viewBox="0 0 512 512" style="enable-background:new 0 0 512 512;" xml:space="preserve">
<style type="text/css">
	.st0{fill:#041E42;}
	.st1{fill:#FFB81C;}
	.st2{fill:#FFFFFF;}
</style>
<g>
	<path class="st0" d="M313.1,373.1c-4.5,0-8.1,3.6-8.1,8.1c0,4.5,3.6,8.1,8.1,8.1c4.5,0,8.1-3.6,8.1-8.1
		C321.2,376.7,317.6,373.1,313.1,373.1L313.1,373.1z M313.1,387.6c-0.8,0-1.7-0.2-2.4-0.5c-1.6-0.6-2.8-1.9-3.5-3.5
		c-0.3-0.8-0.5-1.6-0.5-2.4c0-3.5,2.9-6.4,6.4-6.4c3.5,0,6.4,2.9,6.4,6.4C319.5,384.7,316.6,387.6,313.1,387.6L313.1,387.6z
		 M316.4,379.3c0-0.7-0.3-1.4-0.8-2c-0.5-0.5-1.2-0.8-2-0.8h-3.9v9.3h1.7v-3.8h1.3l1.8,3.8h1.9l-1.8-3.9c0.5-0.2,1-0.5,1.3-1
		C316.3,380.5,316.4,379.9,316.4,379.3L316.4,379.3z M313.7,380.3h-2.2v-2h2.2c0.6,0,1,0.5,1,1C314.7,379.9,314.2,380.3,313.7,380.3
		L313.7,380.3z"/>
	<path class="st1" d="M468.3,225c-0.5-1.3-1.5-2.3-2.7-2.9l-23.6-11.4l-7.3-5.6L424,191.9l-3.5-15.7c-0.2-0.8-0.5-1.5-1-2.1
		c-0.5-0.6-1-1.1-1.7-1.5l-16.6-9.4l-10.5-10.5c-0.5-0.5-1.1-0.9-1.7-1.2L324,123.1c-1-0.5-2.2-0.6-3.3-0.4L232,140.5
		c-24.1-1.9-45.3,1.1-46.2,1.3c-5.4,0.9-5.5,6.8-3.6,8.7L49.5,176.9c-1.3,0.3-2.5,1-3.3,2.1l-14,18.5c-2.5,3.3-0.6,8.3,3.7,8.9
		c1,0.1,97,13.3,97,71.5c0,21.4-14.7,42.5-14.9,42.7c-2.1,3-0.8,7.9,3.5,8.7l54.2,9.8c4.1,3.3,17.9,13,38,13
		c23.8,0,30.5-9,32.1-16.4c11.8-5,26.6-16.9,26.6-26.5c0-6-5.4-10-10.4-10c-0.6,0-1.1,0.2-1.6,0.3c0,0-2.5-4.7-8.7-4.7
		c-2.6,0-5.5,1.3-7.7,2.3c5.4-6.2,14.4-13.7,28.8-18.4c22.2-7.4,51.1-13.6,65.5-16.5c-22,63.9-97.3,97.5-98.1,97.8
		c-4.5,1.9-3.7,7.6-1.8,8.8l-8.2,3.7c-5.9,2.6-3.4,11.1,2.7,10.6c79.5-6.8,138-34.6,178.7-84.9h16.4c0.9,0,1.9-0.2,2.7-0.7
		c16-9,26.8-8.6,26.9-8.6c2.2,0.1,4.3-1.1,5.3-3.1c7.9-16.1,16.5-24.7,16.6-24.8c1.2-1.2,2.3-3.4,1.2-6.1L468.3,225L468.3,225
		L468.3,225z"/>
	<path class="st0" d="M439,215.4l-8.3-6.4l-11.9-14.7l-3.8-17l-17.3-9.8l-11-11l-65.1-28.3L232.4,146c-24.1-2-45.8,1.2-45.8,1.2
		l7.5,6.5L50.6,182.4l-14,18.5c0,0,101.8,13.1,101.8,77c0,23.5-15.9,45.9-15.9,45.9l55.6,10c0,0,13.8,12.6,35.6,12.6
		c25.3,0,26.9-10.6,26.9-14.7c11.1-3.6,26.2-15.8,26.2-22.6c0-2.7-2.8-4.4-4.9-4.4c-1.7,0-4,1.3-5.8,2.1c1.1-2.4-0.5-6.5-4.5-6.5
		c-3.4,0-9.1,4.8-20.1,5.8c0,0,8.5-22.5,39.5-32.8c31.4-10.4,75.4-18.5,75.4-18.5C327.8,328,242.4,365,242.4,365l31.5-7.1
		c-14.6,7.7-41.5,19.6-41.5,19.6c79.4-6.8,137.2-34.1,177.8-86.4l2.8,1.5h15c17.9-10,29.9-9.3,29.9-9.3
		c8.5-17.3,17.7-26.3,17.7-26.3l-12.3-30L439,215.4L439,215.4z"/>
	<path class="st2" d="M111.6,214.6c3,1.8,6,3.8,8.8,5.9c3-1,6.1-2,9.1-2.9c5.4-20.5,16.4-34.1,16.4-34.1
		C123.1,191.9,113.5,210.5,111.6,214.6z M206.1,167.8c0,0,9.1,15.5,25.3,15.5l16.9-1.2l13.8-14.5l18.9-2.9c-7-4.2-14.9-7.3-23-9.5
		l-15.8,22.1l10-23.5c-2.9-0.6-5.8-1.2-8.8-1.6l-13.6,19l8.4-19.7c-3.4-0.4-6.9-0.7-10.3-0.9l-10.4,14.5l6.3-14.7
		c-14.7-0.6-25.5,0.6-25.5,0.6l3.6,3.1L206.1,167.8L206.1,167.8z M227.4,313.3c2,9,8,11.5,8.6,14.9c0,0,15.6-3.2,26-18.7
		C241.8,319.7,227.4,313.3,227.4,313.3L227.4,313.3z M410.3,276c0-8.8-14.6-17.3-21.5-17.3c-28.3,0-27.9,60.1-127.7,111.1
		C346.1,357.5,410.3,299.7,410.3,276z"/>
	<path class="st2" d="M212.7,188.3l-0.2,2.5c-6.3,1.3-16.2,5.3-25.7,12.8l47-6.7l4-9.4c-25,3.7-36.3-17.6-36.3-17.6l-1.9-6.5
		L54.5,195.9c15.7,1.1,32.9,6.1,48.7,14.1c3.8-12.5,13.1-22.2,13.1-22.2l79.7-17.8C196,169.8,199.1,180.1,212.7,188.3L212.7,188.3z"
		/>
	<path class="st2" d="M427.6,237l12.4-4.4c0,0,14.7,9.3,21.3-2.6l-22.5-10.6c-6.3,3.6-12.5,5.5-18.2,6.4v0
		c-16.8,2.4-29.7-4.7-29.7-4.7c-14,0-23.5,2.2-31.7,6.3h0c-6.7,3.3-12.4,7.9-19,13.5l19.6-21.6l3-17.9l-56-6.4
		c3.6,12.7,12.5,19.7,12.5,19.7L309,226.3L296.5,240c-4.6-1.4-9.5-2.2-14.6-2.3c-0.3-6.9,2.4-14.8,8.5-22.3
		c-8.1,6.1-12.9,13.9-13.9,22.5c-3.5,0.3-7,0.9-10.3,1.8c-1.7-5.7-1.6-12.8,1.1-20.5c-4.7,7.2-6.6,14.7-5.7,22
		c-3.3,1.3-6.5,2.8-9.5,4.7c-2.9-4.5-4.7-10.4-4.9-17.5c-1.7,7.3-1.2,14,1.3,19.9c-10.6,7.9-15.4,17.5-15.4,17.5
		c-33.7-6.1-54.2,22.2-54.9,42c-2.1-13.8,2.3-38.1,29.4-49.6l9-21.1c0.5-1.3,1.3-2.5,2.2-3.6l0,0c2.1-2.5,5.2-4.3,9.7-5.5
		c21.8-5.6,44-17.9,55.7-33.4l-31.7,0.9c-14.3,10.8-20.3,25.4-20.3,25.4l-9.7,2.3l11.2-26.1l-47,6.7c-13.4,10.5-26,27.8-26,53.6
		c0,12.8,4.2,23.4,4.3,23.4l0,0c0,0-5.3-7.2-8.5-19.6l0,0c-1.5-5.9-2.3-11.9-2.3-18c0-12.7,3.6-24.7,7.8-34.2v0
		c5.3-12.4,11.4-20.6,11.4-20.6s-17.4,7.1-29.4,25.1l0,0c-3.7,5.6-6.9,12.3-8.9,20.1c8.6,9.1,15,19.6,17.9,31
		c1.1,4.4,1.7,8.9,1.7,13.5c0,22.1-9.2,36-9.2,36l30.9,6.3c0,0,11.7,17,36.8,17c7.9,0,18.4-0.9,18.4-5.9c0-3.8-9.4-9-9.4-20.1
		c0-18,22.6-36.7,46.8-44.6c28.3-9.3,71.6-20.2,93.4-20.2c61.7,0,59.7,40.8,59.7,40.8l3-0.1c13.7-7.7,25.9-9.2,29.5-9.5
		c0.3,0,0.7-0.1,1-0.1c0,0,6.1-11.4,13.2-19.6C469,257.9,459.8,238.6,427.6,237L427.6,237z"/>
	<path class="st2" d="M252.7,195.4l31.7-0.9c5.3-7,8.5-14.7,8.5-22.7c0-13.9-7.1-22-7.1-22l34.4-7.6l10.7,5.2
		c0,0-25.2,9.7-25.2,37.1c0,3.6,0.5,7.2,1.5,10.6l56,6.4c0,0,6.2,15,23.1,15c8.2,0,14.5-4.6,14.5-4.6c18.4,13.9,35.3,6.2,35.3,6.2
		l-6.3-5.2l-6,3.2l3.7-5.6l-2.3-2.6l-8.1,4.2l5.1-7.7l-1.8-2l-6.9,3l3.9-6.7l-2.8-4.3c-2.6,11.3-12.7,12.7-21.4,12l-0.5-5
		c-1.9,1.2-4.2,1.9-6.5,1.9c-6.8,0-12.3-5.5-12.3-12.3c0-3.9-19.1-21-19.1-21l24.8,7.6c20.7,6.4,19.8,16.7,20.1,22.3
		c3.5,1.5,11.4,2.7,14.9-5.5l-2.6-13.6l-16.5-8l-11.3-10.6l-63.4-25.6l-62.4,13.8c14.7,3.5,26.9,11.2,26.9,11.2s4.7,10.7-1.4,22.7
		C270.7,184.8,260.5,189.5,252.7,195.4L252.7,195.4z M408,186.3l-3.1,11.9c0-9-5.3-14.2-21.1-23.5L408,186.3L408,186.3z"/>
	<path class="st1" d="M440,232.7c0,0-8.5-3.9-19.3-6.8c-16.8,2.4-29.7-4.7-29.7-4.7c-14,0-23.5,2.2-31.7,6.3
		c90.1,7.9,101.4,27.9,95.5,50.1c0.3,0,0.7-0.1,1-0.1c0,0,6.1-11.4,13.2-19.6c0,0-9.2-19.2-41.4-20.8L440,232.7L440,232.7L440,232.7
		z M162.2,208.8c-6,1.4-12,2.9-17.9,4.5c-3.7,5.6-6.9,12.3-8.9,20.1c8.6,9.1,15,19.6,17.9,31c1.1-1.2,2.2-2.3,3.4-3.5
		c-1.5-5.9-2.3-11.9-2.3-18C154.4,230.4,158,218.3,162.2,208.8L162.2,208.8z M363,201.4c-19.1-3.5-37.8-5.5-56-6.4
		c3.6,12.7,12.5,19.7,12.5,19.7L309,226.3c19-0.4,38.9,0.4,38.9,0.4l-7.5,14.2l19.6-21.6L363,201.4L363,201.4z M232.3,220.8
		l-9.7,2.3l11.2-26.1c-17,1.7-32.8,4-47,6.7c-13.4,10.5-26,27.8-26,53.6c0,12.9,4.3,23.4,4.3,23.4c-3.5-14.9,4.7-29.6,4.7-29.6
		s18.8-12,49.1-17.7c2.1-2.5,5.2-4.3,9.7-5.5c21.8-5.6,44-17.9,55.7-33.4c-10.9,0-21.4,0.3-31.7,0.9
		C238.4,206.2,232.3,220.8,232.3,220.8L232.3,220.8z M127.7,226.2c0.5-2.9,1.1-5.8,1.8-8.7c-3.1,0.9-6.1,1.9-9.1,2.9
		C122.9,222.3,125.4,224.2,127.7,226.2z M387.9,199.4c2.6,0,4.5-1.2,4.5-1.2c-0.2-0.9-0.4-1.7-0.6-2.6c-0.6,0.4-1.5,0.8-2.6,0.8
		c-2.8,0-4.5-2.1-4.5-4.5c0-2,1.4-3.8,3.3-4.3c-2.5-3.5-4.9-5-4.9-5s-4.3,2.4-4.3,7.7C378.8,195.6,383.2,199.4,387.9,199.4z"/>
</g>
</svg>
