<?xml version="1.0" encoding="utf-8"?>
<!-- Generator: Adobe Illustrator 26.0.2, SVG Export Plug-In . SVG Version: 6.00 Build 0)  -->
<svg version="1.1" id="Layer_1" xmlns="http://www.w3.org/2000/svg" xmlns:xlink="http://www.w3.org/1999/xlink" x="0px" y="0px"
	 viewBox="0 0 512 512" style="enable-background:new 0 0 512 512;" xml:space="preserve">
<style type="text/css">
	.st0{fill:#FFFFFF;}
	.st1{fill:#CC0000;}
</style>
<g>
	<path class="st0" d="M410.4,389.3c-5.8,0-10.6,4.7-10.6,10.5c0,5.8,4.7,10.5,10.6,10.5c5.8,0,10.5-4.7,10.5-10.5
		C421,394,416.3,389.3,410.4,389.3L410.4,389.3z M410.4,408.1c-4.6,0-8.3-3.7-8.3-8.3c0,0,0,0,0,0c0-4.6,3.7-8.3,8.3-8.3
		c4.6,0,8.3,3.7,8.3,8.3C418.7,404.4,415,408.1,410.4,408.1z M414.8,397.4c0-0.9-0.4-1.9-1-2.5c-0.7-0.7-1.6-1-2.5-1h-5.1v12h2.3
		V401h1.6l2.3,4.9h2.5l-2.4-5.1C413.8,400.2,414.8,398.9,414.8,397.4L414.8,397.4z M411.2,398.7h-2.8v-2.6h2.8
		c0.7,0,1.3,0.6,1.3,1.3C412.5,398.1,411.9,398.7,411.2,398.7L411.2,398.7z"/>
	<path class="st0" d="M476,93.3C476,31,405.9,31,396.5,31l-17,0c0,0,24,24.1,24,32.8c0,2-1.6,3.6-3.6,3.6c0,0,0,0,0,0h-61.1
		c-2,0-3.6-1.6-3.6-3.6c0-8.7,24-32.8,24-32.8c-23.3,0-56.7,5.2-79.9,21.7c-6.6-0.7-13.1-1-19.7-1c-107.8,0-195.1,87.4-195.1,195.1
		c0,21.3,3.4,41.7,9.7,60.9C59.8,325.3,36,361.4,36,407.4c0,39.8,19.7,73.6,19.7,73.6s35-51.2,113.4-51.2c6,0,7.6-5.2,7.8-6.3
		c25.1,11.8,53.2,18.4,82.8,18.4c107.8,0,195.1-87.4,195.1-195.1c0-34.6-9-67.1-24.8-95.3C451.5,144.9,476,127.7,476,93.3L476,93.3z
		"/>
	<path d="M468,93.3c0-38.7-35.5-55.6-71.2-54.3c0,0,14.7,14.2,14.7,24.8c0,5.6-4.2,11.6-15.9,11.6h-52.9c-11.9,0-19-4.1-19-10.9
		c0-11.2,17.6-24.3,17.6-24.3s-35.8,2.2-59.7,20.9c-7.2-0.8-14.6-1.3-22-1.3c-103.3,0-187.1,83.8-187.1,187.1
		c0,35.6,9.9,68.9,27.2,97.2c-2.8,1.5-5.6,2.5-9.6,2.5c-13.1,0-13.2-29-13.2-29s-33,38.5-33,90c0,31.7,13.4,58.9,13.4,58.9
		s37.1-44.7,111.6-44.7c0,0-35.4-14.2-35.4-31.4c0,0,0.2-1.8,1.4-4.1c33.1,29.6,76.7,47.6,124.6,47.6
		c103.3,0,187.1-83.7,187.1-187.1c0-37.1-10.8-71.6-29.4-100.6C435.3,143.3,468,131,468,93.3L468,93.3z M92.2,246.8
		c0-92.5,74.9-167.4,167.4-167.4c2.2,0,4.3,0.1,6.5,0.2c-3.5,6.8-5.5,14.8-5.5,24.2c0,43,47.7,43.4,47.7,43.4L285,208.7l-40.4-51.2
		c-14.3-18.2-29.2-22-39.2-22c-20.3,0-36,14.4-46.8,42.7l-51.8,137C97.5,294.3,92.2,271.2,92.2,246.8L92.2,246.8L92.2,246.8z
		 M113.1,327.8c10.8-3.5,27.4-7.6,45.7-7.6c23.5,0,44.8,5.8,44.8,5.8l20.6-54.4l19.5,35.4l-17.7,18.5c-10.8,11.3-37.6,4.2-67.2,4.2
		c-20.6,0-33.1,2.3-41.5,5.2C115.9,332.6,114.5,330.2,113.1,327.8L113.1,327.8z M427,246.8c0,92.4-74.9,167.4-167.4,167.4
		c-39.3,0-75.3-13.5-103.9-36.2c27.6,1.2,42.6,19,81.5,19c57,0,90.5-34.6,102.7-66.9l63.8-168.5C418.5,186.6,427,215.7,427,246.8
		L427,246.8z"/>
	<path class="st1" d="M412.7,47.3c0,0,6.9,6.5,6.9,16.5s-7.8,19.6-24,19.6h-52.9c-20.5,0-27-10.5-27-19c0-8.5,4.8-13,4.8-13
		s-51.9,10.1-51.9,52.3c0,35.5,39.7,35.4,39.7,35.4h11.6l-32.4,85.6l-49.2-62.3c-3.1-3.9-15-18.9-32.8-18.9
		c-24.8,0-35.6,27.8-39.2,37.5l-52.3,138.2c0,0,19.3-7.1,45-7.1c21.6,0,39.8,4.4,39.8,4.4l24.2-64l30.8,55.8l-21.8,22.8
		c-14.3,15-44.2,6.7-73,6.7c-53.8,0-48.6,16.7-68.7,16.7c-14.2,0-17.9-17.3-17.9-17.3S52,370.8,52,407.4c0,23.8,8.3,44.7,8.3,44.7
		s41.9-35.7,84.1-35.7c0,0-18.8-9-18.8-26.1c0-4.9,6.4-20.4,27.2-20.4c32.2,0,45.6,19.1,84.4,19.1c54.4,0,84.6-33.7,95.2-61.7
		l71.2-188.1c0,0,56.4,0.1,56.4-45.9C460,51.1,412.7,47.3,412.7,47.3L412.7,47.3z"/>
</g>
</svg>
