<?xml version="1.0" encoding="utf-8"?>
<!-- Generator: Adobe Illustrator 26.0.2, SVG Export Plug-In . SVG Version: 6.00 Build 0)  -->
<svg version="1.1" id="Layer_1" xmlns="http://www.w3.org/2000/svg" xmlns:xlink="http://www.w3.org/1999/xlink" x="0px" y="0px"
	 viewBox="0 0 512 512" style="enable-background:new 0 0 512 512;" xml:space="preserve">
<style type="text/css">
	.st0{fill:#00468B;}
	.st1{fill:#F26924;}
	.st2{fill:#FFFFFF;}
</style>
<g>
	<path class="st0" d="M425.3,420.7c-5.6,0-10.2,4.6-10.2,10.2c0,5.6,4.6,10.2,10.2,10.2c5.6,0,10.2-4.6,10.2-10.2
		C435.5,425.2,431,420.7,425.3,420.7L425.3,420.7z M425.3,438.8c-3.2,0-6.2-1.9-7.4-4.9c-0.4-1-0.6-2-0.6-3.1c0-4.4,3.6-8,8-8
		c4.4,0,8,3.6,8,8C433.3,435.3,429.8,438.8,425.3,438.8L425.3,438.8z M429.5,428.5c0-0.9-0.4-1.8-1-2.4c-0.6-0.6-1.5-1-2.4-1h-4.9
		v11.6h2.2v-4.7h1.6l2.2,4.7h2.4l-2.3-4.9C428.6,431.3,429.5,430,429.5,428.5L429.5,428.5z M426.1,429.8h-2.7v-2.5h2.7
		c0.7,0,1.3,0.6,1.3,1.3C427.3,429.2,426.8,429.8,426.1,429.8z"/>
	<path class="st0" d="M256,38.9C131.7,38.9,31,136.1,31,256c0,119.9,100.7,217.1,225,217.1c124.3,0,225-97.2,225-217.1
		C481,136.1,380.3,38.9,256,38.9L256,38.9z"/>
	<path class="st1" d="M256,54.9C140.6,54.9,47,145,47,256c0,111,93.6,201.1,209,201.1c115.4,0,209-90,209-201.1
		C465,145,371.4,54.9,256,54.9L256,54.9z"/>
	<path class="st0" d="M103.4,303.8v-13.1l-13-11.4v25.3C94.4,303.5,99.3,304.9,103.4,303.8z"/>
	<path class="st0" d="M451.7,244.1c-18.4,6.5-41.3,14-59.1,20.1c-6-1-10.1,2.4-14.3,5.2c-6.3,2.7-14.3,1.6-20.5,4.3
		c-5.8,4.8-14.4,6.8-21.6,3.8c-1.9-2.2-4.4-4.8-7.5-4.1c-4.7,0.5-5.7,9.1-11.6,4.6c-3.6,1.9-6.8,4.6-10.8,5.5l-6,1.5l-2.3,4.8
		l-2.1,4.4l-1.4,3l-2.1,4.4l-1.4,3l-2.1,4.4l-1.4,3l-2.1,4.4l-16.6,35.4c-1,2.2-3,3.8-5.4,4.4l-26.8,6.4c0.1,0.1,0.3,0.2,0.3,0.4
		l17.7,36.8V366c0-0.5,0.2-0.9,0.6-1.3c0.4-0.3,0.8-0.5,1.3-0.4l9.6,1.1c0.8,0.1,1.5,0.8,1.5,1.7v60.8c0,0.9-0.7,1.6-1.6,1.7
		l-10.7,0.6c-0.7,0-1.3-0.3-1.6-0.9l-21-40.9v39c0,0.5-0.2,0.9-0.6,1.3c-0.4,0.3-0.8,0.5-1.3,0.4l-9.6-1.3c-0.8-0.1-1.4-0.8-1.4-1.7
		v-59.7l-11.2,2.7l8.9,56.4c0.1,0.5-0.1,0.9-0.5,1.2c-0.4,0.3-0.8,0.4-1.3,0.3l-10.8-3.5c-0.5-0.2-0.8-0.6-0.9-1.1l-2-12.8L188,405
		l-2.7,10.5c-0.1,0.4-0.3,0.7-0.7,0.8c-0.3,0.2-0.7,0.2-1.1,0.1l-10.3-3.3c-0.7-0.2-1.1-0.9-0.9-1.6l9.2-36l-8.9,2.1
		c-1.3,0.3-2.6-0.2-3.2-1.3c-0.2-0.4-0.4-0.7-0.4-1.2l-5.5-36c-0.1-0.8,0.1-1.6,0.6-2.3c0.5-0.6,1.2-1.1,2-1.2l90.1-12.4
		c2.6-0.4,4.9-2,6.1-4.4l5.7-11.6l2.1-4.4l1.4-2.9l2.1-4.4l1.4-2.9l2.1-4.4l0.6-1.2c-4.2-0.3-10.3,2.9-13.5,3.6
		c-4.8,1.4-12-1-13.7,5.3c-2.8,2.1-7.4,2.7-10.6,1.1c-3.9-5.9-10.6-1-15.1-0.9c-7.1,1.1-12.8-4.9-19.5-1.5
		c-8.6,5.2-18.9-4.5-26.1,3.7c-4.6,0.4-8.9-1.8-13.9-1.5c-7.3,0-13.5,2.3-20.3,3.5c-7.7,5-18.2,2.6-27,2c-4.4,1.8-9.9,1.3-14.8,1.4
		v48.4c0,2.9-1.5,3.7-3.8,0.3l-9.2-13.2v-34.7c-3-1.6-5.5,2.3-8.3,3.5c-2.8,1.3-5.2-1-6.4-3.2c0-1.2-0.8-2.3-2.1-2.9
		c-1.4-0.2-4,0.6-6.2,1.4c-0.9-3.4-1.7-6.8-2.5-10.2c1.8-1.2,4.1-2.7,3.5-4.8c-1.2-2.5-4.6-2.3-5.4-5.3c0.4-3,1.3-7,4.9-7.7
		c2.7-2.5,2.3-7.6,1.5-11.1c-2.4-3.2-5.7-5.7-4.4-10.2c0-1.2-1.2-2.7,0-3.8c2.9-1.2,5.8,1.6,7.9,3.5c1.9,0.4,2.4-1.8,3.2-2.9
		c0.7-1.5-0.5-3.4-2-3.7c-1.3,0.3-2.6-0.6-2.6-1.8c0.5-2,1.2-4,3.5-4.5c2.5-0.9,5,0.1,7,1.4c2.4,2.2,2.2,5.7,4.6,7.5
		c3.1-2.9,0.7-8.8,4.4-11.6c5.2-2.3,10.3-6.2,16.6-5.2c1.7,3.3,0.6,9.3,6,9.6c1.5-1.3,1.6-4.7,4.4-3.4c2.4,1,2.3,5.2,5.2,4.6
		c2.9-5.4-2.6-9.9-1.9-15.1c3.9-2.6,9.1-0.4,11.8,2.7c1.2,2.5-3.6,4-0.3,6.1c4.9-1.8,7,3.8,11.3,2.7c2.8-5.1,8.7-5.7,13.6-4.3
		c7.3-0.1,11.5,10.8,19.1,6.5c4.1-2.8,12.2,1.1,13.5-5.5c-0.5-2.9,1.6-5.6,4-6.4c4.1-1.2,7.9,7.2,11.4,0.8
		c6.4,2.6,13.9,2.5,20.9,3.6c10.8,5.7,24.9,4.9,37.1,5.3c10.6,5.6,25.6-2.4,37.7-0.5L307,228l-47.4-102.1v94.9c0,1.7-1.3,3-3,3
		h-46.1c-1.1,0-2-0.6-2.6-1.5l-30.3-50.5v48.9c0,1.7-1.3,3-3,3h-41.1c-0.8,0-1.6-0.3-2.1-0.9c-0.6-0.6-0.9-1.3-0.9-2.1V111.4
		C87.4,145.9,59.9,197.9,59.9,256c0,103.9,87.8,188.2,196.1,188.2c108.3,0,196.1-84.3,196.1-188.2C452.1,252,452,248,451.7,244.1
		L451.7,244.1z M141.4,345c0,2.3-1.4,4.1-4.3,1.5l-6.8-6.1c-1.4-1.3-1.8-2.5-1.8-4v-2.6c0-1.6-0.6-2.9-1.6-3.8l-3.6-3.3
		c-2.2-2-2.7,0.8-2.7,0.8v1.9c0,2.2,1.3,3.9,1.3,3.9l14.3,18.6c2.9,3.8,5.3,9.3,5.3,14.9v11.1c0,9.7-4.1,13.8-8.8,9.6l-19.4-17.5
		c-4-3.6-5.7-8.9-5.7-11.5v-10.1c0-3.3,0.6-4.3,1.9-3.1l8.5,7.7c1.3,1,2.6,3.2,2.6,4.4v2.2c0,1.8-0.1,3.9,1.2,4.9l3.7,3.1
		c1.3,1.2,3.1,1.4,3.1-0.6v-2.5c0-1.5-0.4-2.7-1.3-4l-17-22.1c-1.5-2-2.6-3.9-2.6-7.3v-17.4c0-4.2,5.1-9.9,12.3-3.4l18.7,16.9
		c1.2,1.1,2.8,3.4,2.8,7.2V345L141.4,345z M171,409.4c0,0.9-0.8,1.7-1.7,1.7c-0.3,0-0.6-0.1-0.9-0.2l-20.7-12.3
		c-0.5-0.3-0.8-0.9-0.8-1.4v-60.6c0-0.6,0.3-1.2,0.8-1.5c0.5-0.3,1.2-0.3,1.7,0l9.6,5.7c0.5,0.3,0.8,0.8,0.8,1.4v51.2l10.3,6.1
		c0.5,0.3,0.8,0.9,0.8,1.4L171,409.4L171,409.4z M316.3,412.1c0,1.7,0,9.5-13,11.8l-26.3,4.7c-0.5,0.1-1-0.1-1.4-0.4
		c-0.4-0.3-0.6-0.8-0.6-1.3v-60.5c0-0.8,0.6-1.5,1.3-1.6l26.9-5.4c13-2.6,13,5.2,13,5.2V412.1z M294.3,324.3V309
		c0-5.1,12.3-9.3,27.6-9.3c15.2,0,27.6,4.2,27.6,9.3v15.3c0,5.1-12.3,9.3-27.6,9.3C306.7,333.6,294.3,329.4,294.3,324.3L294.3,324.3
		z M350.3,351.4c0,0.5-0.3,1-0.8,1.2l-12.5,6.1c-0.2,0.1-0.4,0.3-0.5,0.5c-0.1,0.2-0.2,0.5-0.2,0.7v12.3c0,0.7,0.6,1.3,1.3,1.3
		c0.2,0,0.5,0,0.7-0.1l10.1-4.9c0.4-0.2,0.9-0.2,1.3,0.1c0.4,0.2,0.6,0.7,0.6,1.1v8.7c0,0.5-0.3,1-0.8,1.2l-12.4,5.6
		c-0.5,0.2-0.8,0.7-0.8,1.2v11.5c0,0.4,0.2,0.9,0.6,1.1c0.4,0.3,0.9,0.3,1.3,0.1l10.2-4.6c0.4-0.2,0.9-0.1,1.3,0.1
		c0.4,0.2,0.6,0.7,0.6,1.1v8.6c0,0.5-0.3,1-0.8,1.2l-24.2,10.9c-0.4,0.2-0.9,0.2-1.3-0.1c-0.4-0.2-0.6-0.7-0.6-1.1v-60.9
		c0-0.5,0.3-1,0.7-1.2l24.2-11.9c0.6-0.3,1.4-0.1,1.8,0.6c0.1,0.2,0.2,0.4,0.2,0.6V351.4L350.3,351.4z M389.9,377.8l-7.5,5.1
		c-0.6,0.4-1.4,0.3-1.8-0.3l-11.3-14.8l-2.1,1.5v23.2c0,0.4-0.2,0.9-0.6,1.1l-10.3,7c-0.4,0.3-0.9,0.3-1.4,0.1
		c-0.2-0.1-0.4-0.3-0.5-0.5c-0.1-0.2-0.2-0.4-0.2-0.7v-60.2c0-0.4,0.2-0.9,0.6-1.1l20.2-14c6.2-4.3,11.6-3.5,11.6,5v16
		c0,10.3-7.6,16-7.6,16l11.2,14.7C390.6,376.5,390.5,377.3,389.9,377.8C389.9,377.8,389.9,377.8,389.9,377.8L389.9,377.8
		L389.9,377.8z M417.6,301.6c0,1.4-0.1,3.5-1.4,4.8l-7.6,7.8c-0.9,0.9-1.4,0.3-1.4-0.6v-4.7c0-2.3-0.9-2.3-2.2-1l-1.2,1.2
		c-1.8,1.8-1.8,4.5-1.8,5.4v3.3c0,2.1,0.6,3.6,2.7,3.9l6,1.1c2.9,0.5,6.8,2.4,6.8,7c0,3.9,0,10.6-5.1,17.3l-12.3,16.3
		c-5.1,6.7-10.1,4.8-10.1-4.9V353c0-1.7,0.4-2.8,1.4-3.7l8.2-8.5c1.4-1.4,2.3-1.4,2.3,0.8v2.7c0,3.1,2.4,0.6,3.5-0.4
		c1.1-1.1,1.7-1.7,1.7-4.2v-1.6c0-1.7-1.3-2.3-3.6-2.8l-7.1-1.6c-5.6-1.2-6.4-5-6.4-9.3v-6.1c0-4.6,0.8-8.6,4.1-12.4l13.1-14.4
		c4.8-5.3,10.4-6.1,10.4,2.2V301.6L417.6,301.6z"/>
	<path class="st0" d="M200.1,396.6l-3.8-24.1l-5.4,21.1L200.1,396.6z M371.9,339.3l-4.2,2.9c-0.4,0.3-0.6,0.7-0.6,1.1V354
		c0,0.5,0.3,1,0.7,1.2c0.4,0.2,1,0.2,1.4-0.1l2.9-2c1.6-1.1,2.8-3.6,2.8-5.8v-6.2C374.9,339.3,373.6,338.2,371.9,339.3L371.9,339.3z
		 M297.7,372.9l-9.6,1.9v40.7l10.2-1.8c5-0.9,5-6.6,5-6.6v-30C303.3,377,303.3,371.8,297.7,372.9L297.7,372.9L297.7,372.9z
		 M214.4,84.2c0-1.7,1.4-3,3-3c0,0,0,0,0,0h72.4c1.2,0,2.2,0.7,2.7,1.7l41.7,89.8l34.7-70.6C337,80.6,298.1,67.8,256,67.8
		c-26,0-50.8,4.9-73.5,13.7l31.9,61.5L214.4,84.2L214.4,84.2z M352.1,216.1c8.3-2.5,15.9-7,22.9-13.2c6.2-2,13.4-3.2,20.1-2.3
		l0.6,0.9c-0.5,2.5-3.6,4.5-5.8,5.8c-4.7,0.1-10.4-0.7-14,2.9c-5.1,5.3-11.5,8.9-16.2,14.1c0.4,1.7,2.3,3,1.2,4.9
		c-3.6,2.6-9.4,0.6-11.4,5.8c-1.6,9.9-14,2.2-18.9,8.7c-2.4,3.1-9.4,6.9-14.8,8.3l-5.1,10.9c5.9,2.1,14.1,5.3,19.6,4.4
		c12.7-4.1,17.6-23.4,32.5-22.3c8.4,1.5,15.7-1.1,21.6-6.6c5.7-2.2,6.1,7,11.4,6.1c0.5-3.4,0.7-7.5,4.6-8.9c1.8-0.7,4.7-0.5,5,1.9
		c-4,5.7,4.7,7.5,3.5,12.9c0.7,2.3,3.4,2.3,5.2,1.7c3-5.8,9.3-6.3,15.1-6.6c4.5-6.6,15.2-0.4,17.7-9.8l4.2-1.4
		c-5.9-49.2-31.5-92.5-69.1-122.7l-55.5,118C334.6,226.7,346.4,223.3,352.1,216.1L352.1,216.1z"/>
	<path class="st2" d="M262.3,318.9c-1.2,2.4-3.5,4.1-6.1,4.4l-90.1,12.4c-1.6,0.2-2.8,1.7-2.6,3.4c0,0,0,0,0,0l5.5,36
		c0.1,0.8,0.6,1.6,1.3,2c0.7,0.5,1.6,0.6,2.4,0.4l8.9-2.1l5.3-20.8c0.2-0.7,0.9-1.1,1.6-1c0,0,0,0,0,0l17.5,4.3
		c0.5,0.1,0.9,0.6,1,1.1l1.6,9.9l11.2-2.7v-4.5c0-0.5,0.2-0.9,0.6-1.3c0.4-0.3,0.8-0.5,1.3-0.4l13.9,1.7c0.4,0,0.7,0.3,1,0.5
		l26.8-6.4c2.4-0.6,4.4-2.2,5.4-4.4l16.6-35.4l-17.5-8.9L262.3,318.9L262.3,318.9z M270.2,302.9l17.4,8.9l1.4-3l-17.4-8.9
		L270.2,302.9z M295.9,294.1l-17.1-8.7l-0.9,1.8l-0.6,1.2l17.2,8.8L295.9,294.1L295.9,294.1z M273.8,295.6l17.3,8.8l1.4-3l-17.3-8.8
		L273.8,295.6L273.8,295.6z M334.2,172.8l-41.7-89.8c-0.5-1.1-1.6-1.7-2.7-1.8h-72.4c-1.7,0-3,1.4-3,3c0,0,0,0,0,0V143l-31.9-61.5
		c-19,7.4-36.5,17.5-52,29.9v109.5c0,0.8,0.3,1.6,0.9,2.1c0.6,0.6,1.3,0.9,2.1,0.9h41.1c1.7,0,3-1.3,3-3v-48.9l30.3,50.5
		c0.5,0.9,1.5,1.5,2.6,1.5h46.1c1.7,0,3-1.3,3-3v-94.9L307,228l-5.7,11.5L280.9,281l17,8.7l2.3-4.8l10.4-22.1l5.1-10.9l10.5-22.4
		l55.5-118c-4.1-3.3-8.3-6.4-12.7-9.3L334.2,172.8L334.2,172.8z M321.9,318.3c15.2,0,27.6-4.2,27.6-9.3s-12.3-9.3-27.6-9.3
		s-27.6,4.2-27.6,9.3S306.7,318.3,321.9,318.3z"/>
</g>
</svg>
