<?xml version="1.0" encoding="utf-8"?>
<!-- Generator: Adobe Illustrator 26.0.2, SVG Export Plug-In . SVG Version: 6.00 Build 0)  -->
<svg version="1.1" id="Layer_1" xmlns="http://www.w3.org/2000/svg" xmlns:xlink="http://www.w3.org/1999/xlink" x="0px" y="0px"
	 viewBox="0 0 512 512" style="enable-background:new 0 0 512 512;" xml:space="preserve">
<style type="text/css">
	.st0{fill:#154B94;}
	.st1{fill:#C32032;}
	.st2{fill:#FFFFFF;}
</style>
<g>
	<path class="st0" d="M438.4,433.4c-6.1,0-11,4.9-11,11c0,6.1,4.9,11,11,11c6.1,0,11-4.9,11-11C449.4,438.3,444.5,433.4,438.4,433.4
		L438.4,433.4z M438.4,453c-4.8,0-8.6-3.8-8.6-8.6c0,0,0,0,0,0c0-4.8,3.8-8.6,8.6-8.6c4.8,0,8.6,3.8,8.6,8.6
		C447,449.1,443.2,453,438.4,453z M442.9,441.8c0-1-0.4-1.9-1.1-2.6c-0.7-0.7-1.6-1.1-2.6-1.1h-5.3v12.5h2.3v-5.1h1.7l2.4,5.1h2.6
		l-2.5-5.3C441.9,444.8,442.9,443.4,442.9,441.8L442.9,441.8z M439.2,443.2h-2.9v-2.7h2.9c0.8,0,1.4,0.6,1.4,1.4
		C440.6,442.6,440,443.2,439.2,443.2z M447.1,99.8L481,39.7H367.7l-16.2,15.8l-16.2-15.8H176.8l-16.2,15.8l-16.2-15.8H31l33.9,60.1
		v292c0,5.9,0,51.7,55.4,51.7h87.6c31.5,0,46.8,28.8,46.8,28.8h2.5c0,0,15.3-28.8,46.8-28.8h87.6c55.4,0,55.4-45.9,55.4-51.7
		L447.1,99.8L447.1,99.8z"/>
	<path class="st1" d="M225.9,184.9l195.8,141.8V184.9H225.9z"/>
	<path class="st2" d="M90.3,164.9h331.3v8H90.3V164.9z M90.3,391.8c0,23.3,16,26.3,30,26.3h87.6c19.9,0,36.1,10.5,48.1,20.1
		c12-9.6,28.1-20.1,48.1-20.1h31.7L90.3,240.3V391.8L90.3,391.8z M90.3,223.8l268.2,194.2h11.4L90.3,215.6L90.3,223.8L90.3,223.8z
		 M191.8,184.9l229.9,166.5v-8.3L203.2,184.9H191.8z M286.6,342.7l19.4,14l5.6-7.8l-11.5-8.3l9.1-12.6l11.5,8.3l5.6-7.8l-11.5-8.3
		l9.1-12.6l11.5,8.3l5.6-7.8l-19.4-14L286.6,342.7L286.6,342.7z M189.5,198.2l-17.9-13l-35.2,48.6l7.9,5.8l15.8-21.8l4.4,3.2
		l-7.4,27.8l7.9,5.7l7.5-28.1c5,2,10.9,0.5,14.2-4l5.5-7.6C196,209.5,194.8,202.1,189.5,198.2L189.5,198.2L189.5,198.2z
		 M183.1,210.6l-3.3,4.6c-0.6,0.9-1.6,1.5-2.7,1.6c-1.1,0.2-2.2-0.1-3.1-0.7l-8.4-6.1l8.2-11.3l8.4,6.1
		C184,206.2,184.5,208.8,183.1,210.6z M346.4,386l7.5-28.1c5,2.1,10.9,0.5,14.2-4l5.5-7.6c3.9-5.3,2.7-12.8-2.7-16.6l-17.9-13
		l-35.2,48.6l7.9,5.8l15.8-21.8l4.4,3.2l-7.4,27.8L346.4,386L346.4,386z M355.3,330.2l8.4,6.1c1.8,1.3,2.3,3.9,0.9,5.7l-3.3,4.6
		c-1.3,1.8-3.9,2.2-5.7,0.9l-8.4-6.1L355.3,330.2z M245.4,238.8l-35.2,48.6l7.9,5.7l21.1-29.2l-8.4,38.4l7.9,5.7l35.2-48.6l-7.9-5.7
		L245,283l8.4-38.4L245.4,238.8L245.4,238.8z M170.3,258.5l7.9,5.8l10-8.1l13.2,9.6l-4.5,12l7.9,5.7l21.9-58.3l-7.9-5.8L170.3,258.5
		L170.3,258.5L170.3,258.5z M204.4,257.8l-9.6-6.9l17.4-14L204.4,257.8L204.4,257.8z M301.3,279.2l-6.7-4.8
		c-5.3-3.9-12.8-2.7-16.6,2.6l-21.3,29.4c-3.9,5.3-2.7,12.8,2.7,16.6l6.6,4.8c1.6,1.2,3.5,1.9,5.5,2.2l-0.1,1.7l4.2,3.1l18.8-26
		l-15.5-11.2l-4.8,6.6l7.5,5.4l-6,8.2c-1,1.3-2.7,2-4.3,1.6c-0.5-0.1-1-0.4-1.5-0.7l-3.4-2.5c-1.8-1.3-2.3-3.9-0.9-5.7l19.1-26.4
		c1.3-1.8,3.9-2.2,5.7-0.9c0,0,0,0,0,0l3.4,2.5c1.8,1.3,2.3,3.9,0.9,5.7l-4.7,6.4l7.9,5.8l5.7-7.9
		C307.8,290.5,306.6,283.1,301.3,279.2L301.3,279.2z M400.5,351.1c-7.3-5.3-17.4-3.6-22.7,3.6c-9.5,13.2,8.9,29.2,3.9,36.1
		c-2.3,3.2-6.9,4-10.1,1.6c-3.2-2.3-4-6.9-1.6-10.1l2.3-3.2l-7.9-5.7l-2.2,3c-5.5,7.6-3.8,18.3,3.8,23.8c7.6,5.5,18.3,3.8,23.8-3.8
		c9.4-13-9-29-3.9-36.1c1-1.4,2.5-2.3,4.2-2.6c1.7-0.3,3.4,0.1,4.8,1.1c2.9,2.1,3.5,6.1,1.4,9l-1.9,2.6l7.9,5.7l1.8-2.5
		C409.4,366.5,407.8,356.3,400.5,351.1z M165.6,145.3h-14.2v-15.6h14.2v-9.6h-14.2v-15.6h14.2v-9.6h-24V155h24V145.3z M344.1,128.1
		h5.5l10.3,26.9h9.8l-10.4-27.2c5.2-1.3,9.1-6,9.1-11.6v-9.4c0-6.6-5.3-11.9-11.9-11.9h-22.2V155h9.8L344.1,128.1L344.1,128.1z
		 M344.1,104.5h10.3c2.3,0,4.1,1.8,4.1,4.1v5.7c0,2.3-1.8,4.1-4.1,4.1h-10.3V104.5z M103.3,118.9L119,155h9.8V94.9H119V131
		l-15.7-36.1h-9.8V155h9.8L103.3,118.9L103.3,118.9z M305.8,155h8.2c6.6,0,11.9-5.3,11.9-11.9v-36.3c0-6.6-5.3-11.9-11.9-11.9h-8.2
		c-6.6,0-11.9,5.3-11.9,11.9v36.3C293.9,149.6,299.2,155,305.8,155L305.8,155L305.8,155z M303.7,108.6c0-2.3,1.8-4.1,4.1-4.1h4.2
		c1.7,0,3.2,1,3.8,2.5c0.2,0.5,0.3,1,0.3,1.6v32.6c0,2.3-1.8,4.1-4.1,4.1l0,0h-4.2c-2.3,0-4.1-1.8-4.1-4.1L303.7,108.6L303.7,108.6z
		 M390.2,130.1l4.4-7.1l14.1,31.9h9.8l-18.2-41.1l11.8-18.9h-9.8l-12.1,19.5V94.9h-9.8V155h9.8L390.2,130.1L390.2,130.1z M265.8,155
		h9.8v-24.9l12.9-35.2h-9.8l-8,21.9l-8-21.9h-9.8l12.9,35.2L265.8,155L265.8,155z M196.5,155l5.1-31.5l5.1,31.5h11.7l9.8-60.1h-9.8
		l-5.9,35.9l-5.9-35.9h-10.3l-5.9,35.9l-5.9-35.9h-9.8l9.8,60.1H196.5L196.5,155z"/>
	<path class="st2" d="M368.9,42.5l-17.4,16.9l-17.4-16.9H177.9l-17.4,16.9l-17.4-16.9H35.8l31.9,56.6v292.8
		c0,14.7,5.1,48.9,52.6,48.9h87.6c28.1,0,43.8,21.6,48.1,28.5c4.3-6.8,19.9-28.5,48.1-28.5h87.6c47.5,0,52.6-34.2,52.6-48.9V99.1
		l31.9-56.6C476.2,42.5,368.9,42.5,368.9,42.5z M431.4,95.7v296.1c0,16.4-6.9,36-39.7,36h-87.6c-22.3,0-38.1,12.5-48.1,22.5
		c-9.9-10-25.8-22.5-48.1-22.5h-87.6c-32.8,0-39.7-19.6-39.7-36V95.7L57.9,55.4h79.9l22.6,22l22.6-22h145.7l22.6,22l22.6-22h80
		L431.4,95.7L431.4,95.7L431.4,95.7z"/>
</g>
</svg>
