<?xml version="1.0" encoding="utf-8"?>
<!-- Generator: Adobe Illustrator 26.0.2, SVG Export Plug-In . SVG Version: 6.00 Build 0)  -->
<svg version="1.1" id="Layer_1" xmlns="http://www.w3.org/2000/svg" xmlns:xlink="http://www.w3.org/1999/xlink" x="0px" y="0px"
	 viewBox="0 0 512 512" style="enable-background:new 0 0 512 512;" xml:space="preserve">
<style type="text/css">
	.st0{fill:#FFFFFF;}
	.st1{fill:#010101;}
	.st2{fill:#B9975B;}
	.st3{fill:#C8102E;}
</style>
<g>
	<path class="st0" d="M439.1,171.4c-26.8-26.8-62.3-41.6-100.1-41.9c2.7-12.5,7-25.8,12.6-39.7l0.1-0.3c1.1-2.7,0.8-5.9-0.8-8.3
		c-1.6-2.5-4.3-4-7.3-4.1l-0.3,0c-1.7,0-3.4-0.1-5.1-0.1c-14.2,0-42.5,1.7-72.6,13c-31.8,12-57.3,31.3-75.6,57.4
		c-7.6,10.8-17.8,28.3-23.4,50.6c-0.8,3.1-1.5,6.2-2.1,9.4c-1,0-2.1,0-3.1,0c-12.6,0-27.7-1.4-45-4.1c-15.3-2.4-40.9-11-46.4-13.1
		c-4-1.5-8-3.1-11.9-4.8l-4.6-2l-22.4-10l13.5,26.3c5.2,11.2,10,20.2,13.6,25.7c9.2,14.3,19.8,26.1,32.1,35.5l12.3,22.7
		c7.2,13.4,14.5,24.1,22.3,32.7c4.4,4.8,9.2,9,12.4,11.7c4.5,3.7,9.5,7.1,15,10.1l6.4,13.9c0.7,1.5,7.4,13.3,17.4,23.2
		c6.4,6.4,17.8,13.6,24,16.2l0.8,0.3c4.7,2,17.1,7.3,37,7.3c3.7,0,7.5-0.2,11.5-0.6l0.5-0.1c3,3.8,4.5,6.6,4.7,8.6
		c0.2,1.4-0.4,2.8-1.5,5.2c-0.6,1.1-2,2.5-3.7,4.2l-0.1,0.1c-1,1-2.1,2.1-3.2,3.3l-0.3,0.4c-1.2,1.3-2,3-2.2,4.8
		c-0.2,1.8,0,3.6,0.8,5.2c1.5,3.1,4.7,5.1,8.1,5.1c0.2,0,0.4,0,0.6,0l0.5,0c7.2-0.4,22-4.5,32-16.8c2.5-3.1,4.6-6.3,6.4-9.7
		c14.7,5,30.2,7.5,46.1,7.5c38.3,0,74.2-14.9,101.3-41.9c27-27.1,41.9-63,41.9-101.3C481,234.4,466.1,198.5,439.1,171.4L439.1,171.4
		z"/>
	<path class="st1" d="M435.5,175c-26.1-26.1-60.8-40.5-97.7-40.5c-1.6,0-3.3,0-5,0.1c3.1-17.2,8.9-33.9,14.1-46.7l0.1-0.3
		c0.5-1.2,0.4-2.6-0.4-3.7c-0.7-1.1-1.9-1.8-3.2-1.8l-0.3,0c-1.7,0-3.3-0.1-5-0.1c-13.8,0-41.4,1.7-70.8,12.7
		c-30.9,11.6-55.5,30.3-73.3,55.6c-7.3,10.4-17.2,27.4-22.6,48.9c-1.1,4.3-2,8.7-2.8,13l-0.5,0c-2.2,0.1-4.5,0.1-6.8,0.1
		c-12.8,0-28.2-1.4-45.8-4.2c-15.7-2.5-41.8-11.2-47.4-13.3c-4.6-1.8-9.2-3.6-13.7-5.6l-2.1-0.9l-10.2-4.5l5.9,12.2
		c5,11.1,10.5,20.9,14.2,26.6c13.7,21.4,30.7,36.8,52,47.1c12.6,6.1,27.1,8.8,34.7,9.8c5.7,0.8,15.3,1.5,19.9,1.5h0l0.9,0
		c0.4,1.5,0.8,3.1,1.3,4.7c-0.3,0-0.5,0-0.8,0c-8.7,0-16.5-0.6-26.1-2.1c-8-1.2-15.4-2.9-22.8-5.2c-3.2-1-6.5-2-9.2-3.2l-11.1-4.9
		l5.8,10.7c7,13,14.1,23.4,21.6,31.7c4.1,4.6,8.8,8.6,11.9,11.2c4.4,3.6,9.2,6.9,14.5,9.7c14.3,7.7,27.7,11.2,43.5,11.2
		c0.2,0,0.4,0,0.6,0l2.7,0c1.2,1.5,2.4,3,3.6,4.5c-1.5,0.1-2.8,0.1-4.3,0.1c-2.1,0-4.4-0.1-7.4-0.3c-8-0.5-21.3-3.4-24.9-5.1
		l-10.5-5l4.9,10.5c0.6,1.3,7.1,12.5,16.4,21.8c5.8,5.8,16.7,12.7,22.4,15.1l0.8,0.3c4.4,1.9,16.2,6.9,35,6.9h0
		c3.5,0,7.2-0.2,11-0.6l3-0.3c0.7,0.7,1.3,1.3,1.8,2c8,10.1,6.4,13.8,4,19.2c-0.9,1.9-2.7,3.7-4.7,5.6l-0.1,0.1c-1,1-2,2-3,3.1
		l-0.3,0.4c-1,1.2-1.3,2.9-0.7,4.3c0.6,1.4,2.1,2.4,3.6,2.4c0.1,0,0.2,0,0.3,0l0.5,0c6.4-0.4,19.5-4,28.4-15c3.6-4.4,6-8.8,7.7-12.8
		c15.4,5.8,31.8,8.8,48.7,8.8c36.9,0,71.6-14.4,97.7-40.5c26.1-26.1,40.5-60.8,40.5-97.7C476,235.8,461.6,201.1,435.5,175"/>
	<path class="st2" d="M472,272.7c0,35.8-14,69.5-39.3,94.9c-25.3,25.3-59,39.3-94.9,39.3c-16.5,0-32.4-2.9-47.4-8.6
		c0.6-1.9,1.2-3.8,1.6-5.5c0.7-2.9,1.2-6,1.5-9.3c1.4-0.4,3.3-1.1,7-2.8c4.4-2,7.3-3.4,7.8-3.6c9.6,2.7,19.5,4.1,29.5,4.1
		c29,0,56.2-11.3,76.7-31.8c20.5-20.5,31.8-47.7,31.8-76.7c0-30.7-13.1-60.1-35.9-80.6c0-0.4,0-2,0.7-4.3c0.2-0.6,0.3-1.1,0.5-1.7
		c0.2-0.6,0.3-1.2,0.5-1.7c8.2,8.2,13,6.7,13.1,6.6c0.3-0.2,0.7-0.3,1-0.3c1.7,0,3.4,1.9,3.6,2.1l0,0l0,0l0,0l0.1-0.1l0.1-0.1v0
		c-0.2-0.3-2.2-2.6-1.3-4.4c0.1-0.2,2-5.1-6.6-14.3l-0.2-0.2l-0.1,0.3c0,0.1-0.8,2,0,5.4l0,0.2c0,0,0.2,2-0.8,3.2
		c-0.6,0.7-1.5,1-2.6,1l-0.9-0.1c-1.5-0.5-2.9-0.7-4.1-0.7l-0.8,0c0.2-0.4,0.3-0.8,0.5-1.2c0.4-0.8,0.7-1.6,0.9-2.4l0.5-0.1
		c1.6,0,3.3,1.4,3.5,1.6l0,0l0,0l0,0l0.1-0.2l0.1-0.2c-0.3-0.2-2.5-2.3-1.9-4.2c0.1-0.2,1.3-5.3-8.5-13.2l-0.2-0.2l-0.1,0.3
		c0,0.1-0.5,2.1,0.7,5.4l0.1,0.2c0,0,0.5,2.1-0.5,3.4c-0.6,0.8-1.7,1.3-3.3,1.3c-0.8-0.2-1.7-0.2-2.6-0.2c-2.3,0-3.5,0.6-3.6,0.6
		l-0.3,0.1l0.2,0.2c2,1.6,3.8,2.8,5.4,3.6l-0.5,0.2c-0.5,0.2-0.9,0.4-1.4,0.5c-1.3,0.5-2.5,1-3.3,1.3c-0.8,0.4-1.6,0.7-2.3,1.2
		c-17.4-11.1-37.6-17-58.4-17c-2.4,0-4.8,0.1-7.2,0.2c-0.4-8.5,0.2-17.2,1.5-25.9c1.9-0.1,3.8-0.1,5.7-0.1c35.8,0,69.5,14,94.9,39.3
		C458,203.1,472,236.8,472,272.7"/>
	<path class="st0" d="M419.3,301.5l-1.5,6.3l4.1,17.1c0,0-11.9,1.9-17.2,2.7c-1.6,5.5-9.8,26.9-9.8,26.9l-1.6-0.8
		c-1.2-11.7-7.3-17.7-14.2-22.2c-3.9-2.5-8.4-4.2-12.6-5.6c-5.8-1.8-11.7-2.9-17.8-3.8c1-2.5,0.8-5.4,0-7.3c-1.2-3-3.1-5.1-4.8-7.3
		c7.4-1.3,8.3-6.5,8-9.7c-0.9,1.6-4.9,8.4-10.8,7c-12.1-14.2-14.1-15-15.3-19.6c-0.8-3.3,0.7-7.5,4.1-9.8c6.3-3.9,10.2,0.1,16.6,8.1
		c3.4,4.3,15.6,20.5,23.6,29.6c6.1,7,12.3,11.5,19.9,15.5c4.2,2.2,9,3.9,9,3.9l1-1.6c0,0-6-5.9-9.8-13.5c-1.9-3.7-3.3-7.6-4.2-11.5
		c-2.2-9.6-0.1-19.4-0.1-19.4s-5.6,0.9-10.9-6.8c-1.4-2-2.7-6.8-3.1-9.8c-0.3-2.1-0.5-3.8-0.5-5.6c9.7-8.8,22.8-24.6,27.8-25.7
		c1.5,3.2,23.5,49.8,23.5,49.8l-4.9,2.4l0,5.4l-12.9,9.4L419.3,301.5L419.3,301.5L419.3,301.5z"/>
	<path class="st3" d="M270.2,410.5c0.1-0.4,0.1-0.7,0.1-0.8c0.6-6.2-1.1-10.6-2.9-14.1c-1.6-3.4-3.8-5.9-5.8-8.3
		c-3.7-4.2-8.5-7.9-11-9.7c-0.4-0.3-43.9-31.7-62.6-77.3c-14.4-34.9-12.6-66.1-8.6-86.1c1.3-6.6,3-12.8,5.1-19.5l0.1-0.2
		c7.8-23.9,19.6-40.4,28-50C240,113.4,284.1,94.7,333.7,93c-3.6,9-6.9,20-9.9,32.8c-0.6,2.4-5.3,23.5-4.1,40.7
		c-15.3,4.5-28.9,11.9-40.7,22.1c-8.2,7-15.4,16.2-20.4,25.8c-6.3,12.2-7.6,22.1-8.4,29.3c-0.1,0.9-0.2,1.7-0.3,2.5
		c-1.4,10.4,2,36.8,16.5,53.6c4,4.6,9.5,11.4,16.5,20.1l0.1,0.1c4.6,5.8,9.9,12.2,15.8,19.5c-2.1,2.1-6.8,7.2-11,17
		c-2.1,4.9-3.4,9.7-3.9,14.1c-0.2,1.8-0.3,3.6-0.5,5.5c-0.4,5.3-0.9,11.2-2.7,17.1c-1.2,3.9-2.7,7.2-4.5,10.1
		C274.4,406,272.3,408.6,270.2,410.5L270.2,410.5z"/>
	<path class="st1" d="M414.5,286.4l-9.9,6l0.2,0.6l16.4-4L414.5,286.4L414.5,286.4z M403.6,264.1c0,0-0.2-2.5-0.8-3.5
		c-0.7-1,3-2.5,3-2.5l-1.9-1l-0.5,0.8l-8.4,3l-7,5.8l6-1.9l12.4,1.6L403.6,264.1L403.6,264.1z M369.6,157.5c0.4-0.8,1.3-1.2,2.6-1.2
		c1.1,0,2.1,0.3,2.3,0.3l0,0l0.1-0.2l0-0.2c-0.3-0.1-3.2-1.1-3.4-3.1c0-0.2-1-5.4-13.2-8.6l-0.3-0.1l0.1,0.3c0,0.1,0.4,2.1,2.8,4.7
		l0.1,0.2c0,0,1.3,1.7,0.9,3.3c-0.2,1-1.1,1.9-2.5,2.5c-3.9,1-5.4,2.8-5.5,2.8l-0.2,0.2l0.3,0.1c3.1,0.8,5.9,1.2,8.3,1.2
		C367.7,159.7,369.5,157.6,369.6,157.5L369.6,157.5z"/>
	<path class="st1" d="M387.1,162c1.3,0,2.7,0.6,2.9,0.7l0,0l0.1-0.2l0.1-0.2c-0.3-0.1-3-1.5-3-3.5c0-0.2-0.2-5.5-11.8-10.4l-0.3-0.1
		l0,0.3c0,0.1,0.1,2.2,2.2,5l0.1,0.2c0,0,1.1,1.8,0.5,3.4c-0.4,1-1.3,1.7-2.8,2.1c-4,0.4-5.7,2-5.8,2.1l-0.2,0.2l0.3,0.1
		c4.1,1.7,7.6,2.5,10.6,2.5c3.7,0,5.1-1.3,5.2-1.4C385.5,162.3,386.2,162,387.1,162L387.1,162z"/>
	<path class="st1" d="M402.4,166.6c0-0.2,0.6-5.4-10.3-11.9l-0.3-0.2l0,0.3c0,0.1-0.2,2.1,1.5,5.3l0.1,0.2c0,0,0.8,2,0,3.5
		c-0.5,0.9-1.6,1.5-3,1.7l-0.5,0c-3.7,0-5.4,1.2-5.5,1.3l-0.3,0.2l0.3,0.2c5.8,3.4,9.7,4.1,11.9,4.1c2.4,0,3.4-0.7,3.5-0.8
		c0.4-0.4,1-0.6,1.6-0.6c1.5,0,3.1,1,3.3,1.1l0,0l0.1-0.2l0.1-0.2C404.6,170.3,402.1,168.6,402.4,166.6L402.4,166.6z M435.5,203.7
		l0.8-0.2c1.8,0,3.4,2.3,3.6,2.6l0,0l0.2-0.1l0.1-0.1c-0.2-0.3-1.8-2.9-0.7-4.6c0.1-0.2,2.7-4.8-4.6-15.1l-0.2-0.3l-0.2,0.3
		c0,0.1-1.1,1.9-0.8,5.4l0,0.2c0,0.2-0.1,3.7-3.3,3.7c-0.5,0-1-0.1-1.6-0.2c-2.5-1.2-4.3-1.4-5.2-1.4c-0.5,0-0.8,0.1-0.8,0.1
		l-0.3,0.1l0.2,0.3c6,8.4,10.6,9.3,12.2,9.3L435.5,203.7L435.5,203.7z"/>
	<path class="st1" d="M444,217.8l0.5-0.1c1.9,0,3.3,2.8,3.5,3.1l0,0l0.2-0.1l0.2-0.1c-0.1-0.3-1.4-3.1,0-4.6
		c0.1-0.2,3.3-4.3-2.5-15.5l-0.1-0.3l-0.2,0.2c-0.1,0.1-1.3,1.7-1.5,5.2l0,0.2c0,0.1-0.5,3.3-3.2,3.3c-0.6,0-1.3-0.2-2.1-0.5
		c-3-2-5.3-2.1-5.7-2.1l-0.4,0l0.1,0.3c5.6,10.6,10.7,10.9,11.3,10.9L444,217.8L444,217.8z"/>
	<path class="st1" d="M450.4,232.9l0.2,0c2,0,3.1,3.2,3.3,3.6l0,0l0.2-0.1l0.2-0.1c-0.1-0.3-1-3.3,0.6-4.6c0.2-0.2,3.9-3.8-0.3-15.7
		l-0.1-0.3l-0.2,0.2c-0.1,0.1-1.5,1.5-2.2,5l-0.1,0.2c0,0-0.9,2.8-3.2,2.8c-0.7,0-1.6-0.3-2.4-0.8c-3-2.7-5.3-2.9-5.4-2.9l-0.3,0
		l0.1,0.3C445,232.4,450.2,232.8,450.4,232.9L450.4,232.9z"/>
	<path class="st1" d="M452,238.5c-2.6-3-4.9-3.6-5-3.6l-0.3-0.1l0.1,0.3c2.6,12.4,7.7,13.6,7.9,13.6c2.2,0,2.9,3.6,3,4l0,0l0.2,0
		l0.2-0.1c-0.1-0.3-0.5-3.4,1.2-4.4c0.2-0.1,4.4-3.3,1.9-15.6l-0.1-0.3l-0.3,0.2c-0.1,0.1-1.7,1.3-2.9,4.6l-0.1,0.2
		c0,0-1.1,2.4-3.2,2.4C453.9,239.6,453,239.2,452,238.5 M355.1,152.3c0.4-6.6-19.8-1.3-19.8-1.3S354.7,158.7,355.1,152.3z
		 M343.3,393l0,0.2v0l0,0l0-0.4l-0.2,0c-0.7,0-3.9-0.1-4.4-2.2c-0.1-0.2-2.3-5-14.9-5.1h-0.3l0.1,0.3c0,0.1,1,2.2,4.5,4.2
		c1.2,1,1.8,2,1.8,3c0,1.7-1.7,3-1.8,3l-0.1,0.1c-3.1,1.8-4,3.7-4,3.8l-0.1,0.3l0.4,0c12.5,0,14.8-4.7,14.8-4.9
		c0.7-1.9,3.7-2.1,4.1-2.1L343.3,393L343.3,393z"/>
	<path class="st1" d="M360,391.4l0-0.2L360,391.4L360,391.4L360,391.4l0-0.4l0,0l0,0.1v0.1l0-0.2c-0.5,0.1-0.9,0.1-1.4,0.1
		c-1.3,0-2.9-0.3-3.4-1.6c-0.1-0.1-2.1-3.3-10.3-3.3c-1.6,0-3.3,0.1-5.2,0.4l-0.3,0l0.2,0.3c0.1,0.1,1.3,2.1,5,3.5
		c1.3,0.8,2.1,1.7,2.2,2.8c0.2,1.7-1.3,3.2-1.3,3.2l-0.2,0.2c-2.7,2.2-3.4,4.2-3.4,4.3l-0.1,0.3l0.3,0c12.5-1.7,14.1-6.7,14.1-6.9
		C356.6,392.1,359.6,391.5,360,391.4L360,391.4L360,391.4z"/>
	<path class="st1" d="M376.1,386.9L376.1,386.9c-0.2,0.1-1.3,0.4-2.4,0.4c-1.3,0-2.1-0.4-2.6-1.2c-0.1-0.1-1.8-2.1-7.1-2.1
		c-2.5,0-5.4,0.4-8.6,1.3l-0.3,0.1l0.2,0.2c0.1,0.1,1.6,1.8,5.5,2.8c1.4,0.6,2.3,1.4,2.5,2.4c0.4,1.7-0.9,3.3-0.9,3.4l-0.1,0.2
		c-2.4,2.6-2.8,4.6-2.8,4.7l-0.1,0.3l0.3-0.1c12.2-3.4,13-8.6,13-8.8c0.2-2,3-3,3.4-3.1l-0.1-0.2l0.1,0.2l0,0l0,0L376.1,386.9
		L376.1,386.9z"/>
	<path class="st1" d="M391.6,380.6L391.6,380.6l0,0.1l0,0.1L391.6,380.6c-0.3,0.1-1.7,0.8-3,0.8c-0.9,0-1.6-0.3-2-0.9
		c-0.1-0.1-1.4-1.3-4.9-1.3c-3,0-6.6,0.9-10.7,2.7l-0.3,0.1l0.2,0.2c0.1,0.1,1.8,1.6,5.8,2c1.5,0.4,2.4,1.1,2.8,2.1
		c0.7,1.6-0.4,3.4-0.4,3.4l-0.1,0.1c-2.1,2.9-2.1,5-2.1,5.1l0,0.3l0.3-0.1c11.6-5.1,11.7-10.3,11.7-10.5c-0.1-2,2.6-3.4,2.9-3.6
		l-0.1-0.2l0.1,0.2l0,0l0,0L391.6,380.6L391.6,380.6z"/>
	<path class="st1" d="M406.1,372.3L406.1,372.3l0.1,0.1l0,0.1L406.1,372.3c-0.2,0.1-1.9,1.2-3.4,1.2c-0.7,0-1.2-0.2-1.6-0.6
		c0,0-1.1-0.7-3.3-0.7c-2.3,0-6.2,0.7-12,4.3l-0.3,0.2l0.3,0.2c0.1,0,1.8,1.2,5.3,1.2l0.7,0c1.5,0.2,2.6,0.7,3.1,1.7
		c0.9,1.5,0.1,3.4,0.1,3.5l0,0.1c-1.6,3.2-1.4,5.3-1.4,5.4l0,0.3l0.3-0.2c10.8-6.6,10.2-11.8,10.1-12.1c-0.4-2,2.1-3.7,2.4-3.9
		l-0.1-0.2l0.1,0.1l0,0l0,0L406.1,372.3L406.1,372.3z"/>
	<path class="st1" d="M419.3,362L419.3,362L419.3,362c-0.2,0.2-2,1.7-3.6,1.7c-0.5,0-0.9-0.1-1.3-0.4c0,0-0.7-0.4-2.1-0.4
		c-2.4,0-6.6,1-12.6,6l-0.2,0.2l0.3,0.1c0,0,1.2,0.6,3.4,0.6c0.9,0,1.8-0.1,2.7-0.3h0.1c1.5,0,2.6,0.4,3.2,1.2
		c1.1,1.4,0.5,3.4,0.5,3.4l0,0.1c-1.2,3.4-0.7,5.4-0.7,5.5l0.1,0.3l0.2-0.2c9.7-8,8.4-13.1,8.4-13.3c-0.7-1.9,1.6-4,1.8-4.2
		l-0.1-0.1l0.2,0.1l0,0l0,0L419.3,362L419.3,362z"/>
	<path class="st1" d="M430.9,350L430.9,350c-0.2,0.3-1.9,2.2-3.6,2.2c-0.4,0-0.7-0.1-1-0.3c0,0-0.4-0.1-1.1-0.1c-2,0-6.4,1-12.6,7.7
		l-0.2,0.2l0.3,0.1c0,0,0.7,0.2,1.9,0.2c1.3,0,2.8-0.3,4.2-0.7c1.6-0.2,2.8,0.1,3.6,0.9c1.1,1.2,0.9,3.1,0.9,3.2l0,0.2
		c-0.7,3.4,0.1,5.4,0.1,5.4l0.1,0.3l0.2-0.2c8.5-9.3,6.5-14.2,6.4-14.4c-0.9-1.8,1-4.2,1.2-4.4l-0.1-0.1l0.2,0.1l0,0l0,0L430.9,350
		L430.9,350z"/>
	<path class="st1" d="M440.8,336.5L440.8,336.5c-0.2,0.3-1.8,2.7-3.6,2.7l-0.8-0.2l-0.4,0c-1.3,0-6,0.7-12.2,9.5l-0.2,0.3l0.3,0.1
		c0,0,0.3,0,0.7,0c0.9,0,2.8-0.2,5.3-1.4c0.6-0.2,1.2-0.3,1.7-0.3c3.2,0,3.3,3.5,3.3,3.7l0,0.2c-0.2,3.5,0.8,5.4,0.9,5.4l0.2,0.3
		l0.2-0.3c7.2-10.4,4.5-14.9,4.4-15.1c-1.2-1.7,0.4-4.2,0.6-4.6h0l-0.2-0.1l0.2,0.1l0,0l0,0L440.8,336.5L440.8,336.5z"/>
	<path class="st1" d="M449.1,321.9l-0.2-0.1L449.1,321.9L449.1,321.9L449.1,321.9l-0.3-0.2l0,0c-0.2,0.3-1.5,3.1-3.4,3.1l-0.5-0.1
		h-0.1c-0.6,0-5.7,0.3-11.1,11.1l-0.1,0.3h0.3c0.4,0,2.7-0.1,5.7-2.2c0.8-0.4,1.5-0.5,2.2-0.5c2.7,0,3.2,3.1,3.2,3.2l0,0.2
		c0.3,3.5,1.5,5.1,1.6,5.2l0.2,0.2l0.1-0.3c5.7-11.3,2.4-15.4,2.3-15.6C447.7,325.1,448.9,322.3,449.1,321.9L449.1,321.9z"/>
	<path class="st1" d="M454.8,306.9L454.8,306.9l-0.2-0.1L454.8,306.9L454.8,306.9L454.8,306.9l-0.4-0.2l0,0
		c-0.1,0.4-1.2,3.6-3.2,3.6l-0.3,0c-0.2,0-5.4,0.5-9.6,12.5l-0.1,0.3l0.3,0c0.1,0,2.4-0.3,5.4-2.9c0.9-0.6,1.7-0.9,2.5-0.9
		c2.3,0,3.2,2.8,3.2,2.8l0,0.1c0.7,3.5,2.2,5,2.3,5l0.2,0.2l0.1-0.3c4.1-11.9,0.4-15.6,0.2-15.7
		C453.8,310.2,454.7,307.2,454.8,306.9L454.8,306.9z"/>
	<path class="st1" d="M459.7,295.6c-1.7-1.1-1.3-4.1-1.2-4.4l-0.2,0l0.2,0l0,0l0,0h0l-0.4-0.1l0,0h0c-0.1,0.4-0.8,3.9-3,4
		c-0.2,0-5.3,1.3-7.9,13.6l-0.1,0.3l0.3-0.1c0.1,0,2.4-0.6,5-3.6c1-0.8,1.9-1.2,2.7-1.2c2.1,0,3.2,2.4,3.2,2.4l0.1,0.1
		c1.2,3.4,2.9,4.6,2.9,4.7l0.3,0.2l0.1-0.3C464.1,298.9,459.8,295.8,459.7,295.6 M304,388c0,0,18.2,10.4,19.5,3.9
		C324.7,385.6,304,388,304,388z M459.6,265.6c-3.4,0-6.1,2.8-6.1,6.1c0,3.4,2.8,6.1,6.1,6.1c3.4,0,6.1-2.8,6.1-6.1
		C465.7,268.4,463,265.6,459.6,265.6z"/>
	<path class="st2" d="M308.3,310.8c6.3,6.7,11.9,12.6,14,17.4c0.1,0.2,0.2,0.5,0.3,0.7c0.1,0.3,0.2,0.6,0.3,0.8
		c0.1,0.2,0.1,0.4,0.2,0.6c0.2,0.8,0.3,1.6,0.4,2.3c0.1,0.7,0.2,1.4,0.2,2.1c0,0.7,0.1,1.3,0.1,2c0,0.6,0,1.3-0.1,1.9
		c0,0.5-0.1,0.9-0.1,1.4l-0.1,0.4c-0.2,1.5-0.5,2.8-0.8,4c2.1-1.7,5-4.4,7.3-6.4l0.6-0.6c0.8-0.7,1.5-1.4,2-1.8
		c0.3-0.3,0.6-0.5,0.9-0.8c0.3-0.3,0.6-0.5,0.9-0.8c0.6-0.5,1.2-1.1,1.9-1.6c2.4-2.1,4.8-4.2,6.7-6.3c1.1-1.2,2.1-2.4,2.7-3.6
		l0.2-0.3c0.7-1.3,1.1-2.1,1.1-3.6c0-0.4,0-0.8-0.1-1.2c-0.1-0.7-0.3-1.5-0.6-2.2c-0.5-1.1-1.2-2.2-2.2-3.5c-1-1.3-2-2.6-3-3.8
		c-0.7-0.9-1.5-1.7-2.2-2.6c-0.5-0.5-0.9-1-1.4-1.5c-0.5-0.6-1-1.1-1.5-1.7c-0.3-0.3-0.6-0.7-0.9-1c-0.2-0.3-0.5-0.5-0.7-0.8
		c-0.3-0.3-0.6-0.6-0.9-0.9c-0.1-0.1-0.1-0.1-0.2-0.2c-0.2-0.2-0.4-0.4-0.6-0.6c-0.2-0.2-0.4-0.4-0.6-0.7c-4.1-4.3-6.9-7.5-8.2-11.1
		c-0.2-0.6-0.4-1.2-0.5-1.8c0-0.1,0-0.3-0.1-0.4c0,0,0-0.1,0-0.1c-0.1-1-0.2-1.9-0.1-2.9c1.3-9,12.5-15,20.5-5l3.1,3.9
		c0,0,14.6,18.5,22.4,27.9l4,4.7c0.1,0.2,0.3,0.3,0.4,0.4c6.6,7.7,18.6,13.9,21.5,15.2c-0.2-0.2-0.4-0.5-0.7-0.9
		c-1.4-1.8-3.6-4.5-5.3-7.6c-0.5-0.8-0.9-1.7-1.3-2.6c-0.1-0.2-0.2-0.3-0.2-0.5c-0.5-1-0.9-2-1.3-3c-0.8-2.1-1.6-4.4-2.3-7
		c-0.3-1.4-0.6-2.7-0.8-4.1l0-0.2c-0.1-0.5-0.1-0.9-0.2-1.4c0-0.3-0.1-0.6-0.1-0.9c0-0.5-0.1-0.9-0.1-1.4c0,0,0-0.1,0-0.1
		c0-0.5-0.1-0.9-0.1-1.4c0-0.7,0-1.4,0-2c0-0.6,0-1.3,0-1.8c0-1.2,0.2-2.4,0.3-3.6c0,0,0-0.1,0-0.1c0.1-0.7,0.2-1.2,0.2-1.5
		c-0.6-0.1-1.1-0.3-1.7-0.5c-1.5-0.6-3.6-1.6-5.5-3.4c-1-1-1.9-2.1-2.6-3.4c-1.9-3.4-3.7-7.5-4.1-14.5c-0.4,0.3-0.9,0.7-1.3,1
		c-2,1.5-4.1,3.1-6.7,4.3c-1.4,0.7-4,1.7-7.1,2c-0.7,0.1-1.4,0.1-2.1,0.1c-0.6,0-1.2,0-1.8-0.1c-0.6-0.1-1.1-0.2-1.7-0.3
		c-7.3-1.7-11.8-5.1-14.2-10.7c-0.5-1.3-0.9-2.6-1.1-4c-0.1-0.7-0.2-1.4-0.2-2c0-0.7,0-1.4,0.1-2.1c0.1-1.5,0.4-3.2,0.9-4.8
		c0.2-0.7,0.4-1.5,0.7-2.2c0.4-1.1,1-2.1,1.6-3.1c0.2-0.3,0.4-0.6,0.7-1c0.6-0.8,1.3-1.5,2.1-2.1c0.5-0.4,1-0.8,1.5-1.1
		c0.2-0.1,0.4-0.2,0.6-0.3c0.4-0.2,0.8-0.4,1.2-0.6c0.3-0.1,0.6-0.2,0.9-0.3c1-0.3,1.9-0.4,2.9-0.4c3.7,0,7.2,1.8,8.8,4.4
		c0.1-0.2,0.1-0.3,0.2-0.5c0.4-1.3,1-3.2,1.6-5.4c1.4-5.1,3.4-12.1,6-18.7c0.4-1,0.8-2,1.2-3c0.3-0.8,0.6-1.5,0.9-2.3
		c2.2-5.4,4.5-10.8,8.1-15.2c-4.9-3.5-9.5-5.7-13.6-7.1c-0.3-0.1-0.7-0.2-1-0.3c-6.2-2-11-2-13.1-2l-0.8,0
		c-8.1,0.1-15.1,1.2-21.8,3.5c-2.4,0.8-4.8,1.8-7.1,2.9c-0.6,0.3-1.2,0.6-1.8,0.9c-0.3,0.2-0.6,0.3-0.9,0.5
		c-5.4,2.9-10.3,6.6-14.7,11c0,0,0,0,0,0c-5.9,6-10.8,13.1-14.2,20.9c-1.4,3.1-2.5,6.4-3.3,9.7c-0.9,3.5-1.8,7.3-2.2,11.5
		c-0.2,1.7-0.3,3.4-0.2,5.1c0,2.2,0.2,4.5,0.5,7c0.1,1,0.3,2,0.5,3c0.4,1.8,0.8,3.5,1.3,5.2c1.3,4.1,3.1,8.6,5.7,13.4
		c1.2,2.2,2.6,4.4,4,6.5C295.9,297.6,302.4,304.5,308.3,310.8L308.3,310.8z"/>
	<path class="st2" d="M343.4,86.1l-0.3,0c-1.6,0-3.3-0.1-4.9-0.1c-13.6,0-40.6,1.6-69.4,12.4c-30.1,11.3-54.1,29.5-71.4,54.1
		c-7.1,10.1-16.7,26.6-22,47.6c-8.7,34.7-5.8,61-3.3,73.6c2.4,12.2,7.8,27.4,14.1,39.6c1.3,2.5,7.7,13.7,11.9,19.9
		c4.4,6.3,9.1,12.4,14.1,18.2c6.8,7.7,11.1,11.8,14.5,15.1c1.2,1.1,2.2,2.1,3.2,3.1c4.9,4.9,10.3,9.1,15.1,12.7
		c4.9,3.7,9.1,7,11.5,10.1c9.5,12,7.2,17.3,4.5,23.4c-1.2,2.6-3.3,4.6-5.5,6.8c-1,0.9-2,1.9-2.9,3l-0.3,0.4l0.5,0
		c5.7-0.4,17.5-3.6,25.5-13.5c5.9-7.3,8.3-14.4,9.8-20.3c0.9-3.7,1.3-8,1.8-12.6c0.2-2.7,0.5-5.5,0.9-8.2c0.6-4.4,1.9-9.1,3.7-12.8
		c2.8-6,5.8-10.6,9.2-13.9c-1-1.1-2-2.2-3-3.3c-3.6,3.8-7.9,10.2-10,15.1c-3.8,8.8-4.2,13.9-4.5,17.7c-0.1,1-0.2,1.9-0.3,2.7
		c-0.1,0.9-0.2,2-0.3,3.4c-0.4,5.2-1,13.8-6.1,23c-3.6,6.4-8.3,11.3-14.6,14.7c1.5-2.2,3.2-6.6,2.7-12c-0.9-10.5-9.1-18.6-15.7-23.5
		c-20.2-15.1-37-32.3-50-51.2c-12.8-18.6-21.2-37.9-25.2-57.3c-4.8-23.7-4-48.5,2.4-71.8c6.1-22.5,17.3-43.2,32.3-59.8
		c29.5-32.8,73.1-50.7,126.2-51.7l-0.6,1.7c-2.9,8.1-5.8,16.4-8.2,25.6c-1.9,7.1-3.4,14.3-4.7,22c-1.5,9.1-2,18.5-1.4,26.1l4.1-0.9
		c-1.6-27.7,8.2-58,16.7-78.6L343.4,86.1L343.4,86.1z M408.6,187.1c0.7-2.7,1.7-4.8,2.4-6.2c0.5-1.1,0.8-1.7,0.8-2.1l0-0.1l-0.1-0.1
		l-0.5-0.1c-3.1,0-16.5,3.7-29.4,15.1c-8.5,7.5-11.6,15.5-13.7,20.8l-0.3,0.9c-5.3,13.3-10.1,31-11.3,38.2c-0.8-3-1.9-6.5-3.1-8
		c-1.2-1.4-3.2-3.3-6.5-3.3c-0.5,0-1.1,0-1.6,0.1c-3.2,0.5-6,3.1-7.3,6.6l0,0.1c-0.9,2.3-1.7,4.5-1.5,8.4c0.1,2.1,0.7,4.4,1.5,5.9
		c3.2,5.4,8.1,8.1,14.6,8.1c0.8,0,1.7,0,2.6-0.1c2.5-0.3,5.2-1.3,7.8-3c5.9-3.9,10.7-9,15.8-14.4c2.9-3,5.8-6.2,9-9.1
		c2-1.8,6.6-6,11.3-8.7c3.5-2,7-3.5,10.5-4.3l0.5-0.3l-0.1-0.7l-0.1-0.3c-1.2-3-2.1-6.9-2.9-11.9c-0.7-4.1-1.1-8.2-0.8-14.7
		C406,200,407,192.8,408.6,187.1L408.6,187.1z M310.7,366.5c3.8-1.7,7.8-3.5,11.9-5.3c9.1-3.9,15.8-6.2,24.2-8.4
		c8.3-2.2,16.7-4.2,27.6-4.3h0.2c3.1,0,7.1,0.5,9.8,1.1c-3.8-11.2-17-15.1-22-16.6c-4.8-1.4-15.8-3.2-19.4-3.6l-0.5,0l0.4-0.3
		c1.2-0.9,1.8-1.7,2.7-2.7l0.7-0.8l0.1-0.1l0.1,0c6.4,0.7,13.3,2.2,18.9,3.9c5.9,1.8,11,4.3,15.1,7.4c2.3,1.7,4.2,3.8,6,6.7
		c2.4,3.6,3.2,9.2,3.1,12.9v0.4l-0.3-0.2c-2.8-1.9-5.7-3-8.6-3.4c-2.1-0.3-4.3-0.4-6.6-0.4c-5.8,0-12.2,0.9-19.7,2.6
		c-6.9,1.7-13.8,3.7-20.9,6.3c-8,2.9-14.3,5.7-22.9,9.6c-1.3,0.6-2.6,1.2-4,1.8c-4.2,1.9-8.3,3.8-12.7,5.3c0.1-1.6,0.3-3.2,0.5-4.9
		C300.2,371.2,305.5,368.8,310.7,366.5L310.7,366.5z"/>
	<path class="st2" d="M237.6,389.8c-18,0-29.2-4.8-33.5-6.6l-0.8-0.3c-5.3-2.2-15.7-8.9-21.1-14.3c-8.8-8.7-15-19.5-15.5-20.6
		l-0.2-0.5l0.5,0.2c4.5,2.1,18.3,5,26.4,5.5c3.1,0.2,5.5,0.3,7.6,0.3c3,0,5.4-0.2,8.1-0.4c0.2,0.2,0.4,0.4,0.5,0.6
		c1,1.2,2.1,2.4,3.2,3.6c-2.8,0.3-6,0.4-10.3,0.5l-0.7,0c-5.3,0-20.2-1.1-24.7-2.2c8.5,11,16,18.4,29.3,23.9c4.9,2,10,3.5,15.2,4.4
		c5.1,0.9,11.1,1.3,18.3,1.3c1,0,2.1,0,3.2,0c1.8,1.4,3.5,2.7,5.1,4C244.6,389.6,241,389.8,237.6,389.8L237.6,389.8z M174.2,294.2
		c-1,0-2.1,0.1-3.1,0.1c-8.9,0-20.6-1.1-31.4-2.9c-9.7-1.6-16.7-3.3-20.3-5c0.2,0.4,0.5,0.8,0.8,1.4c3.3,5.3,11,17.9,21,26.1
		c8.8,7.2,19.6,15.2,33.9,19.3c6.8,1.9,12.5,2.9,21.1,3.6c1,1.4,2,2.8,3.1,4.2c-0.3,0-0.6,0-0.9,0c-15.1,0-28-3.3-41.6-10.7
		c-5.1-2.7-9.7-5.9-13.9-9.3c-3-2.5-7.5-6.4-11.5-10.8c-7.3-8.1-14.2-18.2-21.1-30.9l-0.3-0.5l0.5,0.2c2.9,1.3,6.3,2.4,9.6,3.4
		c7.5,2.3,15.2,4,23.3,5.3c9.8,1.5,17.8,2.1,26.7,2.1c0.8,0,1.7,0,2.5,0C173.2,291.2,173.7,292.7,174.2,294.2 M135.5,219.6l-0.3,0
		c-18.2-1.9-38.7-6.8-50.8-10.4c-8.7-2.6-17-5.5-24.6-8.5l-0.3-0.1c2.6,5.7,5.7,11.4,9.2,16.9c9.4,14.8,20.4,26.7,33,35.5
		c16.3,11.5,34.7,16.3,39.9,17.3l0-0.1h0.2l0.1,0l0.7,0.1c2.2,0.4,13.9,2.6,23.4,2.6c0.8,0,1.5,0,2.3-0.1c0.1,0.5,0.2,1.1,0.3,1.6
		c0.2,0.9,0.4,1.9,0.6,2.8c-0.1,0-0.2,0-0.4,0c-4.4,0-13.8-0.7-19.3-1.5c-7.3-1-21.4-3.6-33.5-9.4c-20.6-10-37.1-24.9-50.4-45.7
		c-3.7-5.7-9.1-15.1-14.1-27.3l-0.2-0.5l0,0l0-0.1l-0.2-0.5l0.5,0.2h0.1l0,0.1c5.2,2.3,10.3,4.4,15.1,6.2c5.7,2.1,32.1,11,48.2,13.5
		c17.7,2.8,33.4,4.2,46.4,4.2c2.4,0,4.8-0.1,7-0.2c-0.2,1.4-0.4,2.8-0.6,4.1c-3.4,0.4-6.9,0.6-10.8,0.6
		C149.4,221,142,220.2,135.5,219.6L135.5,219.6z"/>
	<path class="st1" d="M451.4,375.9c-4.1,0-7.5,3.4-7.5,7.5c0,4.1,3.4,7.5,7.5,7.5c4.1,0,7.5-3.4,7.5-7.5
		C458.9,379.3,455.5,375.9,451.4,375.9z M451.4,389.3c-3.3,0-5.9-2.6-5.9-5.9c0-3.3,2.6-5.9,5.9-5.9c3.3,0,5.9,2.6,5.9,5.9
		C457.3,386.7,454.7,389.3,451.4,389.3z"/>
	<path class="st1" d="M454.5,381.7c0-1-0.6-2-1.6-2.4c-0.3-0.1-0.6-0.2-1-0.2l-3.6,0v8.6h1.6v-3.5h1.2l1.6,3.5h1.8l-1.7-3.6
		C453.8,383.7,454.5,382.8,454.5,381.7L454.5,381.7z M451.9,382.6h-2v-1.9h2c0.5,0,0.9,0.5,0.9,1
		C452.8,382.2,452.4,382.6,451.9,382.6L451.9,382.6z"/>
</g>
</svg>
