<?xml version="1.0" encoding="utf-8"?>
<!-- Generator: Adobe Illustrator 26.0.2, SVG Export Plug-In . SVG Version: 6.00 Build 0)  -->
<svg version="1.1" id="Layer_1" xmlns="http://www.w3.org/2000/svg" xmlns:xlink="http://www.w3.org/1999/xlink" x="0px" y="0px"
	 viewBox="0 0 512 512" style="enable-background:new 0 0 512 512;" xml:space="preserve">
<style type="text/css">
	.st0{fill:#FFFFFF;}
	.st1{fill:#D24303;}
</style>
<g>
	<path d="M228.3,347.3c-5.4,0-9.9,4.4-9.9,9.9c0,5.4,4.4,9.9,9.9,9.9c5.4,0,9.9-4.4,9.9-9.9C238.2,351.7,233.8,347.3,228.3,347.3z
		 M228.3,364.9c-2.1,0-4-0.8-5.5-2.3c-1.5-1.5-2.3-3.4-2.3-5.5c0-4.3,3.5-7.7,7.7-7.7c4.3,0,7.7,3.5,7.7,7.7
		C236.1,361.5,232.6,364.9,228.3,364.9L228.3,364.9z M232.4,354.9c0-1.8-1.5-3.3-3.3-3.3c0,0,0,0,0,0h-4.8v11.3h2.1v-4.6h1.5
		l2.1,4.6h2.3l-2.2-4.8C231.5,357.6,232.4,356.3,232.4,354.9L232.4,354.9L232.4,354.9z M229.1,356.1h-2.6v-2.5h2.6
		c0.7,0,1.2,0.6,1.2,1.2c0,0.3-0.1,0.6-0.4,0.9C229.7,356,229.4,356.1,229.1,356.1z"/>
	<path d="M337.6,98.3H31v14.5c0,22.4,8.8,43.4,23.7,58.7H31v14.5c0,22.4,8.8,43.4,23.7,58.7H31v14.5c0,22.4,8.8,43.4,23.7,58.7H31
		v14.5c0,44.9,34.4,81.5,76.7,81.5h71.1l48.3-81.6c27.2,33.1,67.9,52.8,110.6,52.8c79,0,143.4-64.3,143.4-143.4
		C481,162.6,416.7,98.3,337.6,98.3z"/>
	<path class="st0" d="M337.6,103.2H35.9v9.5c0,26.5,12.7,49.9,31.9,63.6H35.9v9.5c0,26.5,12.7,49.9,31.9,63.6H35.9v9.5
		c0,26.5,12.7,49.9,31.9,63.6H35.9v9.6c0,42.2,32.2,76.5,71.7,76.5H176l50.4-85.2c26.1,35.3,67.3,56.4,111.3,56.4
		c76.3,0,138.4-62.1,138.4-138.4C476.1,165.3,414,103.2,337.6,103.2L337.6,103.2z"/>
	<path d="M337.6,112.7H48.2c0,37,27.8,67,62.2,67h109c1.7,0,3.1,1.4,3.1,3.1s-1.4,3.1-3.1,3.1H48.2c0,37,27.8,67,62.2,67h65.7
		c1.7,0,3.1,1.4,3.1,3.1c0,1.7-1.4,3.1-3.1,3.1H48.2c0,37,27.8,67,62.2,67h22.5c1.7,0,3.1,1.4,3.1,3.1c0,1.7-1.4,3.1-3.1,3.1H48.2
		c0,37,27.8,67,62.2,67h60.1l112.4-190c11.1-18.7,31.4-31.3,54.8-31.3c35.1,0,63.6,28.5,63.6,63.6c0,35.1-28.5,63.6-63.6,63.6
		c-34.7,0-62.9-27.8-63.6-62.3l-42.5,71.9c23.3,33.6,62.1,55.7,106.1,55.7c71.2,0,128.9-57.7,128.9-128.9
		C466.5,170.4,408.8,112.7,337.6,112.7L337.6,112.7z"/>
	<path class="st1" d="M337.6,205c-20.2,0-36.6,16.4-36.6,36.6c0,20.2,16.4,36.6,36.6,36.6c20.2,0,36.6-16.4,36.6-36.6
		C374.2,221.4,357.8,205,337.6,205L337.6,205z"/>
</g>
</svg>
