<?xml version="1.0" encoding="utf-8"?>
<!-- Generator: Adobe Illustrator 26.0.2, SVG Export Plug-In . SVG Version: 6.00 Build 0)  -->
<svg version="1.1" id="Layer_1" xmlns="http://www.w3.org/2000/svg" xmlns:xlink="http://www.w3.org/1999/xlink" x="0px" y="0px"
	 viewBox="0 0 512 512" style="enable-background:new 0 0 512 512;" xml:space="preserve">
<style type="text/css">
	.st0{fill:#FFFFFF;}
	.st1{fill:#FFB81C;}
</style>
<g>
	<path d="M287.6,418.8c-5.5,0-10,4.5-10,10c0,5.5,4.5,10,10,10c5.5,0,10-4.5,10-10C297.6,423.3,293.1,418.8,287.6,418.8L287.6,418.8
		z M287.6,436.7c-3.2,0-6.1-1.9-7.3-4.9c-0.4-1-0.6-2-0.6-3c0-4.4,3.5-7.9,7.9-7.9c4.4,0,7.9,3.5,7.9,7.9
		C295.5,433.2,291.9,436.7,287.6,436.7L287.6,436.7z M291.7,426.5c0-0.9-0.4-1.8-1-2.4c-0.6-0.6-1.5-1-2.4-1h-4.8v11.5h2.1v-4.7h1.5
		l2.2,4.7h2.4l-2.3-4.9C290.8,429.2,291.7,428,291.7,426.5L291.7,426.5z M288.3,427.8h-2.7v-2.5h2.7c0.7,0,1.3,0.6,1.3,1.3
		C289.6,427.2,289,427.8,288.3,427.8L288.3,427.8z"/>
	<path class="st0" d="M450.2,105.6h-29c-1.2-3.4-3.2-6.7-6.1-9.6c-8.4-8.4-19.7-9.8-26.3-3.2c-1.4,1.4-2.4,3.1-3.1,4.9
		c-1.9-1.4-4.4-2.7-7.3-3.9c-4.1-8.6-9.8-20.7-22.8-20.7c-4.6,0-8.8,1.4-12,3c-9.5-7.6-30.2-21.7-51.3-21.7
		c-23.1,0-55.2,21.2-64.6,21.2c-6.8,0-22.2-33.9-46.1-33.9c-12.8,0-25.8,8.7-41.3,18c-14.8,8.8-18.7,19.5-23,30.8
		c-1.5,3.7-7.9,10.4-12.4,14.9H31l126.1,219.3H70.8l-27.5,49.5h126.7c4.3,0,9.2-1.5,13.5-3.7l57.2,99.5l55.7-96.8h46.4v-27.1h-3.1
		c0-9.4-7.2-19.7-10.7-24.2l-0.7-3.9l10.6-18.5l62-22.9c10.1-3.7,14.7-12.7,16.9-19.8c0,0,6.8-0.1,13.1-7.2
		c4.4,1.1,9.9,2.3,14.2,2.3c9.4,0,19.2-5.4,21.8-15.3c0,0,9.9-6.1,14.3-24.9l-77.2-25.5L450.2,105.6z"/>
	<path d="M390.1,200.6l9.7,3.2l-0.1,6.2c-5.2-0.2-9.3-1.2-9.3,13.9c0,11.3,2.1,14.9,2.1,18.1c0,5.4-0.5,6.7-17.4,6.7
		c0,0-2.6-3.2-11.9-6.8c0,0-0.2-0.9-0.6-2.4l71.7-124.7h-21.7c1.6-3.1,0-8.2-4-12.3c-4.6-4.6-10.6-6-13.4-3.2
		c-1.3,1.3-1.7,3.2-1.3,5.4L385,114c0.2-1.4,0.7-8.8-13.3-12.8c-4.2-8.4-7.7-18.8-16.1-18.8c-6.9,0-12.8,5.2-12.8,5.2
		s-25.6-23.9-50.5-23.9c-21.6,0-51.4,21.2-64.6,21.2c-14,0-26.4-33.9-46.1-33.9c-10.6,0-23.1,8.5-36.5,16.7
		c-13.4,8.2-15.9,18.2-19.2,26.4c-2.2,5.4-9,12.7-17.1,20.7h-62l125.9,219c-1,0.2-1.9,0.3-2.7,0.3H76.2l-17.3,31.2h111.1
		c4.7,0,11.2-2.8,14.4-6.3l1.8-1.9l54.5,94.8l50.4-87.6h42.5v-8.8h-10.2l-1.8-5.7h1.6l7.4-3.4c0-8.5-10.2-20.4-10.2-20.4l-1.7-9.5
		l13.9-24.3l65.1-24c11.5-4.3,12.8-21.1,12.8-21.1s10.6,5,16.4-7.9c0,0,11.7,3.8,18.1,3.8c5.5,0,13.3-3,13.3-11.3
		c0,0,8.5-5.1,11.3-13.9l-76.7-25.4L390.1,200.6L390.1,200.6z M396.4,108.1c2.7,0,4.2,1,4.2,2.5c0,1.5-5.4,8.6-12.3,8.6
		c-1.4,0-1.8-0.8-1.8-1.2C386.6,115.8,393.7,108.1,396.4,108.1C396.4,108.1,396.4,108.1,396.4,108.1z M390.7,122.9
		c6.3,7.6,6.6,16,6.6,16l-8.4-14.7C388.8,122.7,390.7,122.9,390.7,122.9z M386.8,127.9c0,0,9.2,10.2,9.2,16c0,3.2-2.5,1.9-2.5,1.9
		l-9-13.4L386.8,127.9L386.8,127.9z M388.3,152.6c-4.4,0-8.6-11.9-8.6-11.9s0.4-2.4,2.8-2.4C390,144.7,388.3,152.6,388.3,152.6
		L388.3,152.6z M373.3,146.3c7.4,0,10.4,13.6,9.7,16C375.8,162.3,373.3,146.3,373.3,146.3z M375.9,170.7c-10.5,0-15.8-19-15.8-19
		s0.2-2.6,7.7-2.1C367.8,149.7,378.3,160.4,375.9,170.7L375.9,170.7z M382.9,123c0,9.6-11.1,21.3-16.5,21.3c-2.9,0-3.3-2.3-3.3-2.3
		s6.8-14.5,17-21C380,121,382.9,121.1,382.9,123z M373.2,108.3c4.6-2.6,11.4,5.8,4.9,9.1c-9.5,4.7-19.8,24.4-19.8,24.4
		c-4.6,0.8-6.3-2-6.3-2S354,120.7,373.2,108.3z M256.9,273.6c-3.6,4-13.5-2.9-9.7-6.9l104.2-109.6c3.9-3.9,9,0.9,5.3,5L256.9,273.6
		L256.9,273.6z M264,286.4l-0.9,3l-3.5-0.6l0.6-5.2C262.1,283,263,285.9,264,286.4L264,286.4z M253.2,281.3c3.6,0,3.4,5.2,3.4,13.7
		c0,5.7-2.2,8-3.7,8c-2.7,0-2.5-4.1-3.4-5.6c0,0,1.1-1.5,1.1-4.4C250.7,290.1,249.3,281.3,253.2,281.3L253.2,281.3z M204.5,271.1
		c-2.3,2.3-6.5,2-6.5,2s-11.4-10.1-4.5-19.8C200.9,258,204.5,271.1,204.5,271.1L204.5,271.1z M199.1,250.1c0-4.3,9.2-7.4,9.2,0.8
		c0,10.3,2,10.1,2,11.5c0,1.9-3.7,0.5-3.7,0.5C206.6,259.8,199.1,254.4,199.1,250.1L199.1,250.1L199.1,250.1z M218.4,269.9
		c4.5,0,2.9,5.7,2.9,5.7c-8-1.9-19.9,9.5-19.9,9.5s-0.8-1.8-0.8-3.8C200.5,277.4,209.3,269.9,218.4,269.9L218.4,269.9z M212,249.3
		c0-5.9,5.6-8.7,5.6,7.6C215.6,258.9,212,255.9,212,249.3L212,249.3L212,249.3z M208.1,285.7c7.4,23.9,14.2,36.8,14.2,36.8l-2.6,1.4
		c0,0-13.5-9.6-15.5-32.1L208.1,285.7L208.1,285.7z M213.5,282.7c13.1-7.2,18.3,14.7,18.3,14.7c0,20.9-2,24.4-2,24.4
		C226.6,321,219.4,306.9,213.5,282.7z M227.1,264.6c-1.5,0.8-4.6,1-4.6-3.8c0-4.6-1.5-11.3,0.5-15.8
		C230.2,248.5,225.3,261,227.1,264.6L227.1,264.6z M226.3,274.9c0-1.6,2-4.1,5.7-4.1c3.7,0,7.2,0.6,7.2,4.6c0,4.8-5.9,8.1-6.9,8.1
		C230.5,283.4,226.3,279,226.3,274.9z M230.2,247.5c0,0,5.7-0.6,5.7,6.4c0,2.8,0,7.4,0.3,9.4c-1.3,2-5,0.4-5,0.4
		S229.3,253.3,230.2,247.5L230.2,247.5z M237,291.8c0,0,7.6-7.7,7.6,10.8c0,15.6-10.5,23.5-10.5,17.3
		C234.1,316.2,238,316.6,237,291.8L237,291.8L237,291.8z M240.7,252.9c0,0,3.7-1.7,3.7,5.9c0,7.7-0.8,7.2-2,7.9
		C242.4,266.7,239.2,261.9,240.7,252.9L240.7,252.9z M244.3,287c-1.1,0-3.1-1.2-3.1-2.8c0-4.8,1.3-7.5,3.6-7.5c1.4,0,2,1.5,2,3.2
		C246.8,285.2,245.1,287,244.3,287z M349.5,147.4c0,0,3.7-1.6,5.7,4.9c-3.3-0.2-5.3,1.3-5.3,1.3S348,149.6,349.5,147.4z M359.8,86.8
		l4.1,8.7c-4.3,0-7.3-6.5-7.3-7.8C356.5,86.1,359.4,85.9,359.8,86.8z M350.8,87.3l12.9,17.5c0,0-1,2.1-2.8,0.2l-14-14.9
		C346.9,90,347.5,87.3,350.8,87.3z M344.3,93.8l15.3,17.5c0.8,0.8-2,3-3.6,1.5l-17.3-17C338.7,95.8,342.2,91.4,344.3,93.8
		L344.3,93.8z M335.1,99.7c2.6,0,19,12.7,19,16.5c0,0.4-1.2,2.1-1.9,1.6l-20.9-14.9C331.4,102.9,332.6,99.7,335.1,99.7z
		 M327.9,107.9c8.1,3.7,15.2,8.2,22.5,13c1.2,0.8-0.7,4.6-1.9,4L326.6,113C326.6,113,325.9,110.6,327.9,107.9z M325.4,117.8
		c4.5,1.3,19.1,9.4,21,10.6c1.6,1.1-0.7,3.5-1.5,3.2l-20.7-9.7C324.3,121.9,322.9,120.4,325.4,117.8z M321.5,126.2
		c8.2,2.3,18.6,7.8,18.6,7.8c-14.7,0.7-19.2-6.1-19.2-6.1L321.5,126.2z M228.8,124.1c31.2,0,65.8,29.7,89.5,62.5l-64.8,68.1
		c-36.2-19.1-71.3-49.5-71.3-88.5C182.2,144.6,201,124.1,228.8,124.1L228.8,124.1z M144.4,77.4c5.2-2.5,8.8,2.5,8.8,2.5
		c-0.7,1.9-6.4,5.9-6.4,10c0,2.2,10.7,2.3,10.7,10.6c0,3.6-1.8,5.4-1.8,5.4l-4.2,0.4c0,0,1.8-1.8,1.8-5.2c0-2.9-2.9-5.4-5-5.4
		c-6.1,0-4.7,8.8-8.9,5.3C140.6,94.1,143.6,88.7,144.4,77.4z M123.9,106.9c11.3,11.4,16.5,23.8,16.5,23.8c-2.3,5.7-27.2,17-27.2,17
		l14.7-27.2L91,152.2c0,0,0.6-14.8,5.1-19.9C100.6,127.3,123.9,106.9,123.9,106.9L123.9,106.9z M80.5,361.4H65.4l13-23.4h15.1
		L80.5,361.4L80.5,361.4z M181.5,356.3c-2.5,2.7-7.9,5.1-11.5,5.1h-11.1l10.6-23.4h0.6c5.7,0,13.4-3.2,17.4-7.3l17.9-18.1l7,10
		L181.5,356.3L181.5,356.3z M299.3,349.6H311l-1.6,5.7H296L299.3,349.6L299.3,349.6L299.3,349.6z M262.8,344.3
		c-1-1.2,0.1-3.6,2.3-5.4c2.2-1.8,4.8-2.2,5.8-0.9c1,1.2,0,3.6-2.3,5.4C266.3,345.1,263.7,345.5,262.8,344.3L262.8,344.3z
		 M321.1,358.3h9.4v2.9h-74.5c1.2-6.3,4.8-10.6,5.6-11.5h2.6l4.9,8.7h8.1l2.8-8.7h4.5l3.2,8.7h24.1l2.5-8.7h4.2L321.1,358.3
		L321.1,358.3z M324.1,277.7c-10.6,0-30.7-5-52.6-14.4l56.1-62.7c12.1,19.7,19.6,39.3,19.6,53.2C347.2,275,333.9,277.7,324.1,277.7
		L324.1,277.7z M409.7,212.8l3.2-4.6l18.7,6.2l0.2,5.8L409.7,212.8L409.7,212.8z M445.6,237.8c-2.7,0.7-5.3,0-5.6-1.6
		c-0.4-1.5,1.6-3.3,4.3-4c2.7-0.7,5.3,0.1,5.6,1.6C450.3,235.4,448.3,237.2,445.6,237.8L445.6,237.8z M442.3,223.6l3.3-4.6l4,1.3
		l1.2,6.1L442.3,223.6L442.3,223.6z M394.7,195.9l70.8,23.4c-2.5,4.8-6.7,8-8.3,9.1l-3.2-1.1l-1.9-9.5l-7.7-2.6l-5.2,7.1l-4.5-1.5
		l-0.3-8.9l-22.8-7.6l-4.9,7.2l-4.1-1.4l0.1-8.8l-8.9-3L394.7,195.9L394.7,195.9L394.7,195.9z"/>
	<path class="st1" d="M199.3,290.1c-4-9.7-2.2-11.9-2.2-11.9s-12.9-10.6-9.1-23.8c0,0-33.3-48.2-33.3-76.8c0-14.8,7.2-13.4,7.2-25.4
		c0-9.9-6.8-17.3-11.7-17.3c-5.6,0-23,11.5-48.5,26.5l9.7-22.1L88.1,163c0,0-4.5-23.3,8-35.8c2-2,4.1-4.1,6.2-6.1H57.9L179,331.7
		c2.2-1.1,4.2-2.3,5.7-3.8l19.1-19.2C200.7,301.5,199.3,294.1,199.3,290.1L199.3,290.1z M345.1,142.6l-2.3-5.1
		c-11.7,2-22.2-4-25.2-5.5c-3-1.5,0.3-8.1,0.3-8.1s-0.8-1.4-2.7-2.7h-12.3c-2.3,2.1-2.8,5.3-1,7.2c13,13.5,23.5,28,31.8,42
		l13.6-14.3L345.1,142.6L345.1,142.6L345.1,142.6z M394.8,123.1c7.1,8.4,4.2,17,4.2,17c0,6.5-3.4,6.4-3.4,6.4c0,15.1-8,12.5-8,12.5
		c0,19.9-22,11.9-22,11.9c-3.6-0.5-6.6-1.5-9-2.6l-14.9,16.6c9.6,18.8,15.4,35.4,18.5,45.8l63-109.5h-26.7L394.8,123.1L394.8,123.1z
		 M292.9,282.1c0-1.3-20-6.6-27.8-9.6c-7.2,2.8,2.1,4.3,2.1,13.6c0,5.5-2.7,12-2.7,12l-4,1.1c0,0-7.9,14.6-13,12.5
		c-7.3,12.8-10.3,15.8-21.8,15.8c-3.7,0-7-1.1-9.9-2.9L190.6,352l50,86.9l43-74.7h-30.9c0-8,5.1-14.5,5.1-14.5
		c0-12.7,7.8-15.4,13.6-15.9c12.3-1.1,17.4,0,17.4-6c0-4.3-0.4-9.3-0.4-9.3h4.5c0-16.6-4.6-20.6-4.6-29.1
		C288.3,286.1,292.9,284.7,292.9,282.1L292.9,282.1z M289.3,354.2l2.6-4.6h-4.3L289.3,354.2L289.3,354.2z"/>
	<path class="st1" d="M270.7,355.3h4.2l1.8-5.7h-9.2L270.7,355.3z M312.7,313.5l9.7-16.8l-10.8,5.3L312.7,313.5z"/>
</g>
</svg>
