<?xml version="1.0" encoding="utf-8"?>
<!-- Generator: Adobe Illustrator 26.0.2, SVG Export Plug-In . SVG Version: 6.00 Build 0)  -->
<svg version="1.1" id="Layer_1" xmlns="http://www.w3.org/2000/svg" xmlns:xlink="http://www.w3.org/1999/xlink" x="0px" y="0px"
	 viewBox="0 0 512 512" style="enable-background:new 0 0 512 512;" xml:space="preserve">
<style type="text/css">
	.st0{fill:#010101;}
	.st1{fill:none;}
	.st2{fill:#FFFFFF;}
	.st3{fill:#E57200;}
	.st4{fill:#00617F;}
</style>
<g>
	<path class="st0" d="M283.8,410.9c-4.9,0-8.8,3.9-8.8,8.8c0,4.9,4,8.8,8.8,8.8c4.9,0,8.8-4,8.8-8.8
		C292.6,414.9,288.6,410.9,283.8,410.9L283.8,410.9z M283.8,426.7c-3.8,0-6.9-3.1-6.9-6.9c0,0,0,0,0,0c0-3.8,3.1-6.9,6.9-6.9
		c3.8,0,6.9,3.1,6.9,6.9C290.7,423.6,287.6,426.7,283.8,426.7z M287.4,417.7c0-1.7-1.3-3-3-3c0,0,0,0,0,0h-4.2v10.1h1.9v-4.1h1.4
		l1.9,4.1h2.1l-2-4.3C286.6,420.1,287.4,418.9,287.4,417.7L287.4,417.7z M284.4,418.8H282v-2.2h2.4c0.6,0,1.1,0.5,1.1,1.1
		C285.5,418.3,285,418.8,284.4,418.8L284.4,418.8z"/>
	<path class="st1" d="M404.1,172.3l-35.9,57.3c3.9-1.8,8.1-3.7,12.2-5.6l38.3-62c0,0-65.2,14.2-124.5,20.2c1.4,2.2,2.8,4.4,4.2,6.7
		C339.1,184.7,381.6,176.8,404.1,172.3L404.1,172.3z"/>
	<path class="st1" d="M393.1,293.9l-1.8-2.3c20.2-36.1,34.8-79.3,34.8-84.4c0-1.3-0.6-1.6-1.3-1.2c-32.1,16.3-67.4,30.8-75.2,36.2
		l-2.1,2.9c-17.3-15.4-32.1-26.2-37.8-30.2c-35.9-70.4-91-119.9-126.4-137.7c0,7.4,35.1,61.4,40.5,106.8
		c-63.5-4.3-144.1-21.9-144.1-21.9l69.4,112.2c-57,3.5-106.9,4.7-106.9,4.7c0,4,63.6,34.4,157.5,55.6c20.5,4.7,35.8,3.9,45.8,3.9
		c-1.8-2-3.7-4-5.6-6c13.6,8.3,26,16.6,37.2,24c-2.8,0-5.9,0.1-9.2,0.1c-22.6,0-39.7-1.2-50.5-2c-2.7-0.2-5-0.4-6.9-0.5
		c-1-0.1-1.8-0.1-2.6-0.1l-10.6-17c-4.3-0.9-8.4-1.9-11.2-2.6l14.2,23c-13.3,9.5-47.3,38.4-72,78.7l2.2,4c0,0,23.8-1.5,44-2
		c0,0,9-25.8,41.3-55.6l33.4,53.9l40.5-65.5c2.6-0.3,5.3-0.6,8-0.9c2.8,1.8,5.5,3.4,8.1,4.9c-1.4,0.8-2.5,1.9-3.4,3.5
		c0,0,2.3,1.6,2.5,4.7c0,0,2,0.3,4.1-0.3c0,0,1.4-2.2,2.7-4.8c2.7,1.4,5.1,2.5,7.5,3.5c0,2.3,0.4,3.9,0.4,3.9s2.6,0.8,5.7-2
		c17.9,4.1,28.7,0.6,28.7,0.6c18.2,5.4,27.5-0.6,27.5-0.6c7.1,3.1,13.1,4.9,32.6,4.9c10.6,0,14.1-1.3,14.1-3.1c0-8.5-9-43.4-18-61.3
		C404.9,303.2,404.1,299.5,393.1,293.9L393.1,293.9z"/>
	<path class="st1" d="M456,218.1l-4.6,8.1l1,6.2c-20.5,40.3-43.3,76.8-43.3,76.8l2.8,6.8l3.3-2.3l2.3,0.2c0,0,21.8-20.9,49.7-74.8
		c0,0,8.1,0.3,8.7-6.3c0.7-6.6,1.1-11.2,1.1-13.8C467,215.4,456,218.1,456,218.1L456,218.1z M415.1,317.5l0.6,2.4
		c0,0,5.8,4,10.1,5.2l3.4-2.4c0,0-1.9-2.5-1.3-6.1C423.5,313.7,415.1,317.5,415.1,317.5z"/>
	<path class="st2" d="M453.3,214.6l-6.1,10.9l1,6.3c-16.2,31.7-33.8,61.1-40.1,71.4c-2.4-5.6-5.7-8.8-11.9-12.2
		c0,0,28.7-52.1,36.5-93.4c-21.7,10.7-44.4,21.4-44.4,21.4l38.9-62.9c0,0-74.8,16.4-133.9,22.3c-63.8-94-121.8-110.5-121.8-110.5
		s40.2,65.8,47.6,111.7c-81.3-7.6-147.7-23.5-147.7-23.5l70.8,114.5c-41.4,2.5-111.2,4.7-111.2,4.7c17.8,17.8,74.9,40.3,150.5,59
		l13.5,21.8c-44.5,33.5-71.3,79.7-71.3,79.7l4.5,8.2c0,0,22.1-1.3,49.1-2.3c0,0,7.4-23.8,37.7-53.2l34.2,55.3l42.9-69.3l4.7-0.5
		l2.6,1.6c-0.7,0.7-1.2,2.1-2.2,3.7c3.6,2.4,3.7,2.8,3.8,7.1c0,0,4.7,1.7,10.6-0.3l1.6-2.9l2,0.9c0.2,2.1,0.8,4.3,0.8,4.3
		c5.5,2.6,10.1-0.8,10.1-0.8c14.6,3,24.4,1.3,27.7,0.5c14.4,4,23.7,1.3,27.6-0.4c6.6,2.7,13.5,4.5,32.5,4.5c8.8,0,18.1-0.5,18.1-7.1
		c0-9.2-8.8-42.9-17.7-61.5c0,0,6.5,4.6,12.4,5.8l8.1-5.9c-3.7-4.3-3-5.6-2.5-9c-2.9-2.5-7-3-7-3c8-9.1,24.6-30.4,44.4-68.6
		c4.2-0.6,9.5-3.1,10.2-9.7c0.7-7.2,1.1-10.3,1.1-17.1C468.4,210.5,453.3,214.6,453.3,214.6L453.3,214.6z"/>
	<g>
		<path class="st0" d="M404.1,172.3l-35.9,57.3c3.9-1.8,8.1-3.7,12.2-5.6l38.3-62c0,0-65.2,14.2-124.5,20.2c1.4,2.2,2.8,4.4,4.2,6.7
			C339.1,184.7,381.6,176.8,404.1,172.3L404.1,172.3z"/>
		<path class="st0" d="M409.8,323.8c-5-20.6-5.8-24.4-16.7-29.9l-1.8-2.3c20.2-36.1,34.8-79.3,34.8-84.4c0-1.3-0.6-1.6-1.3-1.2
			c-32.1,16.3-67.4,30.8-75.2,36.2l-2.1,2.9c-17.3-15.4-32.1-26.2-37.8-30.2c-35.9-70.4-91-119.9-126.4-137.7
			c0,7.4,35.1,61.4,40.5,106.8c-63.5-4.3-144.1-21.9-144.1-21.9l69.4,112.2c-57,3.5-106.9,4.7-106.9,4.7c0,4,63.6,34.4,157.5,55.6
			c20.5,4.7,35.8,3.9,45.8,3.9c-1.8-2-3.7-4-5.6-6c13.6,8.3,26,16.6,37.2,24c-2.8,0-5.9,0.1-9.2,0.1c-22.6,0-39.7-1.2-50.5-2
			c-2.7-0.2-5-0.4-6.9-0.5c-1-0.1-1.8-0.1-2.6-0.1l-10.6-17c-4.3-0.9-8.4-1.9-11.2-2.6l14.2,23c-13.3,9.5-47.3,38.4-72,78.7l2.2,4
			c0,0,23.8-1.5,44-2c0,0,9-25.8,41.3-55.6l33.4,53.9l40.5-65.5c2.6-0.3,5.3-0.6,8-0.9c2.8,1.8,5.5,3.4,8.1,4.9
			c-1.4,0.8-2.5,1.9-3.4,3.5c0,0,2.3,1.6,2.5,4.7c0,0,2,0.3,4.1-0.3c0,0,1.4-2.2,2.7-4.8c2.7,1.4,5.1,2.5,7.5,3.5
			c0,2.3,0.4,3.9,0.4,3.9s2.6,0.8,5.7-2c17.9,4.1,28.7,0.6,28.7,0.6c18.2,5.4,27.5-0.6,27.5-0.6c7.1,3.1,13.1,4.9,32.6,4.9
			c10.6,0,14.1-1.3,14.1-3.1C427.9,376.6,418.8,341.8,409.8,323.8L409.8,323.8z M249.2,405l-19.1-30.2c7.4-0.1,21.5-0.6,39.4-2
			L249.2,405L249.2,405z"/>
		<path class="st0" d="M415.1,317.5l0.6,2.4c0,0,5.8,4,10.1,5.2l3.4-2.4c0,0-1.9-2.5-1.3-6.1C423.5,313.7,415.1,317.5,415.1,317.5z
			 M456,218.1l-4.6,8.1l1,6.2c-20.5,40.3-43.3,76.8-43.3,76.8l2.8,6.8l3.3-2.3l2.3,0.2c0,0,21.8-20.9,49.7-74.8c0,0,8.1,0.3,8.7-6.3
			c0.7-6.6,1.1-11.2,1.1-13.8C467,215.4,456,218.1,456,218.1L456,218.1z"/>
	</g>
	<g>
		<path class="st3" d="M223.8,375.3c-0.5,0.5-1,0.9-1.6,1.4l27,43.1l29.9-47.8c-0.9,0.1-1.7,0.2-2.6,0.2l-27.4,43.7L223.8,375.3
			L223.8,375.3z M399.7,175.4l-35,55.9c1.2-0.5,2.3-1.1,3.5-1.7l35.9-57.3c-22.5,4.5-65,12.4-105.7,16.7c0.4,0.7,0.8,1.3,1.2,2
			C337.9,186.9,377.5,179.7,399.7,175.4L399.7,175.4z M210.5,354l-10.3-16.5c-0.9-0.2-1.9-0.4-2.8-0.6l10.6,17
			C208.7,353.9,209.6,354,210.5,354L210.5,354z M306.1,381.4c2.8-3.7,4.6-6.1,5.1-7.6c-2.4,1.1-5.6,1.6-7.3,4.2
			C304,378,305.2,379.2,306.1,381.4z M320.3,384c0,0,1.8-0.2,3.5-1.9c0,0-1.7-2.6-2.7-5.1C319.9,380.1,320.3,384,320.3,384
			L320.3,384z M311.8,318.7c1.5,11.7,4.3,16.7,4.3,16.7s4.4,3.5,12.9,6.9C320.5,326.5,311.8,318.7,311.8,318.7L311.8,318.7z
			 M219.6,371l3.4-1.9c0,0,13.9,2.2,97.3-6.4c-2-1.4-3-1.2-3-4.5c0-1.1,0.2-1.2-1.6-1.2c-1.8,0-2.6-0.5-4.7-0.5
			c-2.7,0-6.7,2.7-47.5,2.7c-32.5,0-55.3-2.7-56.8-2.7c-1.5,0-4.4,2.8-13.1,9.8C193.5,366.3,210.7,366.1,219.6,371L219.6,371z
			 M177.1,423.3c-12.5-2.4-38.4,1.9-38.4,1.9l-6.9,10l40.5-1.9L177.1,423.3z M455.9,231c-13.5,24.3-28.3,56.6-44.4,76.5l4.6-2.9l1-1
			l-0.8,2.7l2-0.9l-3,5.2l2.8-2.2c0,0,13.8-15.5,48.7-78.5C459,228.8,455.9,231,455.9,231L455.9,231z M457.3,221.6l-2.8,4.5
			c0,0,6.8-1.3,15.9-0.5l3.3-4.6C463.7,219,457.3,221.6,457.3,221.6L457.3,221.6z"/>
		<path class="st3" d="M414.3,308c0,0-1.3,1-3.3,1.6l1.7,3.6l1-0.8l-0.4-1.3l1.8-3.3L414.3,308L414.3,308z M426.4,317.4
			c-2.8-1.5-8.4,0.7-8.4,0.7s5.6,1.3,8.8,2.8C426.8,320.8,426.2,319.5,426.4,317.4L426.4,317.4z"/>
	</g>
	<g>
		<path class="st4" d="M210.5,354c1.9,0.1,4.2,0.3,6.9,0.5l-9.8-15.6c-2.3-0.4-4.8-0.9-7.4-1.5L210.5,354z M230.1,374.7
			c-3.7,0.1-5.7,0.1-5.7,0.1c-0.2,0.2-0.4,0.3-0.6,0.5l25.4,40.6l27.4-43.7c-2.4,0.2-4.7,0.4-7,0.6L249.2,405L230.1,374.7
			L230.1,374.7z M389.7,182.2l-33.6,53.2c2.5-1.3,5.4-2.6,8.5-4.1l35-55.9c-22.1,4.3-61.7,11.5-100.1,15.7c0.9,1.5,1.8,3,2.7,4.6
			C333.8,192.1,366.1,186.6,389.7,182.2L389.7,182.2z M224.5,195.1c0-2.5-0.1-5-0.3-7.5c-21.8,2.3-34.8,7.5-39.8,9.8
			C192,195.2,205.6,194.6,224.5,195.1z M390.3,295.7c0,0-26.5-37.3-77.6-74.8c4.3,9,8.4,18.2,12,27.8c0.5,1.3,0.4,2.5-0.7,2.5
			c-11.2,0-50.7-21.7-89.4-17.8c20.1,19.2,40.2,46.1,20.7,36.3c0,0,20.3,12.5,44.1,37.6c17.7,0,21.3,3,22.3,5.5
			c2,4.8,5,13.3,16.6,27c5.3,0,6.3-0.3,8.3-5.1c0,0,1.5,6.1-1.2,10.6c24.2,19.1,71.2,38.4,78.4,38.4c2.9,0-3.1-26.3-16.7-57.9
			C402.6,305.6,400.1,300,390.3,295.7L390.3,295.7z M169.7,273c0,0,6.9,4.1,18.3,12.7c-2.8-4.8-10.2-10.1-18.2-15l-17.7,1.3l1.3,2.1
			C158.8,273.7,164.3,273.3,169.7,273L169.7,273z M273.9,303.9c-2.8,15.1,0.1,27.3,0.1,27.3c-0.5-5.1,3.5-22,3.5-22L273.9,303.9
			L273.9,303.9z M265,295.3c-2.8,17.4,1.1,31.2,1.1,31.2c-0.8-6.4,2.5-25.2,2.5-25.2L265,295.3z M256.2,287.4
			c-2.9,18.6,1.6,33.4,1.6,33.4c-0.8-8.4,2-28.1,2-28.1L256.2,287.4L256.2,287.4z M236.2,256.8c0,0-34.1-28.2-76.5-35.4
			c-1.5,0-4.6,6.4-4.6,6.4s4.5-4,5.8-4C197.3,230.8,236.2,256.8,236.2,256.8z"/>
	</g>
	<g>
		<path class="st2" d="M333.5,377.7c4.9-2.9,8.6-5.7,8.6-5.7c-16.3,0.7-22.4-1.3-22.4-1.3c2.9-2.9,6.6-5.4,8.9-7.7
			c-1.8,0.3-3.6,0.5-5.3,0.6c0,0.8-0.9,1.7-3.4,3.2c-4.8,0.8-9.6,1.5-14.4,2.1c1.3,1.4,2.8,2.8,4.4,4.1c1.1-0.4,2.3-0.7,3.5-1.1
			c0,1-0.3,2.1-0.6,3.3c2.1,1.4,4.3,2.6,6.6,3.5c0.3-1.6,0.7-3.3,1.7-4.8c0.8,0.2,1.3,2.6,1.7,3.3c1.2,1.8,2.8,2.1,3.1,3.5
			c6.8,1.6,15.5,2,26.9,0.6l3.2-2.6C339.1,379,333.5,377.7,333.5,377.7L333.5,377.7z M306.4,353.1c-7.3,2.3-10.5,0.7-10.5,0.7
			c1.4-1.4,2.4-4.2,2.4-4.2c-6.5,1.8-8.5,0-8.5,0c1-0.6,2.1-3.1,2.1-3.1c-8.4,0-13,1.4-13,1.4c7,0.9,11.5,3.9,15.4,7.9
			c5.5-0.4,8.8-0.9,11.2-1.3L306.4,353.1L306.4,353.1z"/>
		<path class="st2" d="M292.3,348.9c0,0,3.5,0.2,7.6-1.2c0,0,0.2,2.7-1.6,5.2c0,0,3.5,0,10.6-1.7c0,0-0.6,1.4-1.5,3
			c1.3-0.2,2.3-0.4,3.3-0.4c2.3,0,2.6,0.5,4.6,0.5c3.8,0,4.3,0.8,4.8,5.2c0.8,1.1,1.7,1.9,2.3,2.5c2.8-0.2,6-0.5,9.3-1
			c0,0-3.6,5-9.1,8.7c0,0,15.2,1.4,23,0.4c0,0-3.4,4.1-8.1,6.5c0,0,10.5,0.7,21.7,0.5c0,0-2.2,2.4-4.4,4.2c0,0,13.9,3.1,23.8,0.8
			c-35.7-14.2-55.4-35.7-85.3-35.7C292.9,347.8,292.3,348.9,292.3,348.9L292.3,348.9z M148.1,413.3l-8,10.3c0,0,23.6-3.7,37.8-1.5
			l3.9-6.8C174,411.3,148.1,413.3,148.1,413.3L148.1,413.3z"/>
		<path class="st2" d="M151.7,408.6l-2.5,3.1c0,0,24.4-1.9,33.3,2.3l5.8-8.7C180.4,404,151.7,408.6,151.7,408.6z M156,403.5
			l-2.8,3.4c0,0,29.2-4.6,36.1-2.9l0.5-0.7C182.5,401,156,403.5,156,403.5L156,403.5z M165.8,392.2l-8.5,9.7c0,0,23.7-2.5,33.4,0.3
			l9.8-11.4C190.5,389.2,165.8,392.2,165.8,392.2L165.8,392.2z M178.5,379.4l-11.2,11.1c0,0,20.7-2.8,34.4-1l5.4-5.9
			C201.9,379.2,178.5,379.4,178.5,379.4L178.5,379.4z"/>
		<path class="st2" d="M180.6,377.4l-0.6,0.5c0,0,20.2-0.3,28,4.5l1.2-1.2C202.9,377.7,180.6,377.4,180.6,377.4L180.6,377.4z
			 M191.8,367.8l-9.6,8.3c0,0,22.5,0.4,28,4.1l8.3-8.2C211.2,367.9,191.8,367.8,191.8,367.8z M178.9,422.9l0.3,2l3.2-5.7l-0.3-2
			L178.9,422.9z M183.2,415.6l0.3,2l5.4-7.9l-0.4-2.2L183.2,415.6z M189.7,405.8l0.4,2.3l0.5-0.7l-0.4-2.3L189.7,405.8z
			 M191.3,403.7l0.5,2.4l9.2-10.4l-0.4-2.8L191.3,403.7z M201.8,391.5l0.4,2.9l5.6-6l-0.7-2.7L201.8,391.5z M208.2,384.4l0.7,2.8
			l1.1-1.1l-0.4-3.2L208.2,384.4z M210.8,381.6l0.4,3.2l7.3-7.2l-0.1-3.7L210.8,381.6z"/>
	</g>
</g>
</svg>
