<?xml version="1.0" encoding="utf-8"?>
<!-- Generator: Adobe Illustrator 26.0.2, SVG Export Plug-In . SVG Version: 6.00 Build 0)  -->
<svg version="1.1" id="Layer_1" xmlns="http://www.w3.org/2000/svg" xmlns:xlink="http://www.w3.org/1999/xlink" x="0px" y="0px"
	 viewBox="0 0 512 512" style="enable-background:new 0 0 512 512;" xml:space="preserve">
<style type="text/css">
	.st0{fill:#001425;}
	.st1{fill:#96D8D8;}
	.st2{fill:#C8102E;}
	.st3{fill:#639FB6;}
</style>
<g>
	<path class="st0" d="M76.8,397.4c87.7,7.7,143.3,32.4,170.4,83.6c92.7-15,178.4-74.5,178.4-151.1c0-102.1-123.7-118.1-127-147.9
		c52,18.9,109.3-1,136.6-65.9c-80.8-6-140-35.5-165.5-85.2C170.5,48.6,91.3,112.8,91.3,182.1c0,101.2,130.1,128,144.6,149.5
		C164.9,304.6,103.7,335.3,76.8,397.4L76.8,397.4z"/>
	<path class="st1" d="M230.6,176.8c-11.1-11.3-15.7-20.1-15.7-31.7c0-13.3,6.4-19.8,6.4-27.3c0-6.4-4-11.4-11.7-13
		c4.6-4.9,10.8-7.9,16.6-7.9c33.1,0,42.8,73.1,111.9,70.5c24.6-2.4,47.8-14.3,62.4-35.3c-60.3-7.8-115.3-33.4-142.2-77
		c-27.9,5.1-144.8,45.4-141.9,129.8c3.1,88,133.2,112.4,169.5,150.2c28.7,29.8,8.5,59.8-10,70.7c-28.6-74.3-122.5-79.6-159.8-26
		c60.3,7.8,115.3,33.4,142.2,77c66.5-13.9,98.6-72.2,86.3-114.3c-20.2-69.6-151.4-81.8-186.2-147c-18.6-36.7-3.3-75.8,30.7-98.6
		c-13.3,17.2-19.7,37-19.4,55.6c3,3.3,4.3,11,4.3,11.2c0.4,2.7,1.2,8.4-0.2,11.9c1.5,3.9,3.4,7.6,5.7,11.2c4.6,1.1,9.7,7.1,9.8,7.2
		c5,5.8,5.8,9.4,5.9,10.8c3.1,2.8,6.4,5.4,9.9,8c2.9-0.3,7.4,1.1,11.9,4c5.2,3.4,7.8,6.8,8.6,9.4c3.7,2.1,7.4,4.2,11.2,6.3
		c2.9-0.8,7.7,0.1,12.6,2.6c4.8,2.5,8.4,5.9,9.5,8.7c3.8,1.9,7.7,3.8,11.6,5.7c2.9-0.8,7.8,0,12.7,2.5c4.8,2.4,8.3,5.8,9.4,8.6
		c3.9,2,7.8,4.1,11.7,6.2c3.6-0.7,9.3,1.5,12.4,3.3c4.6,2.8,7.8,6.3,8.7,9.2c3.9,2.5,7.7,5.1,11.3,7.8c3.1-0.1,7.5,1.6,11.7,5.2
		c4.5,3.9,6.8,8.3,6.9,11.3c3.1,3.3,6,6.8,8.6,10.5c3.7,0.9,7.4,5.2,9.5,9.5c2.9,6.3,2.5,10.7,1.7,13c5,15.6,6.3,35.2-1.7,57.7
		c-0.1,0.2-0.2,0.5-0.3,0.8c16.8-18.3,28.1-40.8,27.2-67.8C397.1,239.1,267,214.6,230.6,176.8L230.6,176.8L230.6,176.8z"/>
	<path class="st2" d="M280.5,186.1c-14.9-17.1-24.4-47.4-40.7-59.2C232.4,152.9,247.7,181.5,280.5,186.1z"/>
	<path class="st3" d="M268.8,431.3c-5.4,15.7-10.5,25.5-10.5,25.5c-26.9-43.5-81.9-69.1-142.2-77
		C178.4,348.6,242.8,381.5,268.8,431.3L268.8,431.3z M400.4,132.1c-62.3,31.2-126.7-1.6-152.7-51.5c5.4-15.7,10.5-25.5,10.5-25.5
		c-26.3,4.8-144.9,44.7-141.9,129.8c3.1,88,133.2,112.4,169.5,150.2c28.7,29.8,8.5,59.8-10,70.7c-2.1,9.6-4.7,18.2-7.2,25.6
		c13.5-2.4,54.6-24.1,54.9-65.9c0.4-57.7-74.2-73-130.7-107.9c-46.5-28.8-55.5-57.4-57.9-75.5c-5.5-42.6,24.5-81.4,68.2-99.8
		c-6.3,5.3-11.1,10.5-14.1,14.7c-13.3,17.2-19.7,37-19.4,55.6c3,3.3,4.3,11,4.3,11.2c0.4,2.7,1.2,8.4-0.2,11.9
		c1.5,3.9,3.4,7.6,5.7,11.2c4.6,1.1,9.7,7.1,9.8,7.2c5,5.8,5.8,9.4,5.9,10.8c3.1,2.8,6.4,5.4,9.9,8c2.9-0.3,7.4,1.1,11.9,4
		c5.2,3.4,7.8,6.8,8.6,9.4c3.7,2.1,7.4,4.2,11.2,6.3c2.9-0.8,7.7,0.1,12.6,2.6c4.8,2.5,8.4,5.9,9.5,8.7c3.8,1.9,7.7,3.8,11.6,5.7
		c2.9-0.8,7.8,0,12.7,2.5c4.8,2.4,8.3,5.8,9.4,8.6c4,2,7.9,4.1,11.7,6.2c3.6-0.7,9.3,1.5,12.4,3.3c4.6,2.8,7.8,6.3,8.7,9.2
		c3.9,2.5,7.7,5.1,11.3,7.8c3.1-0.1,7.5,1.6,11.7,5.2c4.5,3.9,6.8,8.3,6.9,11.3c3.1,3.3,6,6.8,8.6,10.5c3.7,0.9,7.4,5.2,9.5,9.5
		c2.9,6.3,2.5,10.7,1.7,13c5,15.6,6.3,35.2-1.7,57.7c21.5-36.4,19.4-72.5-4.6-103c-50.1-63.8-176.2-71.4-175.8-144.5
		c0.1-17.4,7.4-31.2,16.7-41.7c4.6-4.9,10.8-7.9,16.6-7.9c33.1,0,42.8,73.1,111.9,70.5C362.6,165,385.8,153,400.4,132.1L400.4,132.1
		z"/>
	<path class="st0" d="M357.7,461.6v-9.5h-3.5v-2h9.3v2H360v9.5H357.7z M364.8,461.6v-11.5h3.6l2.1,7.9l2.1-7.9h3.6v11.5h-2.2v-9.2
		l-2.5,9.2h-2.1l-2.5-9.2v9.2L364.8,461.6L364.8,461.6z"/>
</g>
</svg>
