<?xml version="1.0" encoding="utf-8"?>
<!-- Generator: Adobe Illustrator 26.0.2, SVG Export Plug-In . SVG Version: 6.00 Build 0)  -->
<svg version="1.1" id="Layer_1" xmlns="http://www.w3.org/2000/svg" xmlns:xlink="http://www.w3.org/1999/xlink" x="0px" y="0px"
	 viewBox="0 0 512 512" style="enable-background:new 0 0 512 512;" xml:space="preserve">
<style type="text/css">
	.st0{fill:#041E42;}
	.st1{fill:#FFFFFF;}
	.st2{fill:#FFB81C;}
	.st3{fill:#003087;}
</style>
<g>
	<path class="st0" d="M243.8,417.1v7.6h-1.9v-7.6h-2.2v-1.9h6.3v1.9H243.8z M254.1,424.7v-5.6l-1.6,3.5h-1.7l-1.6-3.5v5.6h-1.9v-9.5
		h1.9l2.4,5.1l2.4-5.1h1.9v9.5H254.1L254.1,424.7L254.1,424.7z"/>
	<path class="st0" d="M481,76.2H109.2c24.6,38.4,32.8,51.1,11.9,50.5L90.2,76.2H31l134.4,219.5c-1.8-0.1-3.6-0.2-5.4-0.2
		c-55.1,0-98.2,30.8-98.2,70.2c0,39.4,43.1,70.2,98.2,70.2c55.1,0,98.2-30.8,98.2-70.2c0-10-2.8-19.6-8.2-28.5l-30.1-49.2
		c0,0,24.2,4.9,42.4-3.5l-8.8-11.3c0,0,37,3.4,71-6.7l-11.5-12.2c0,0,51.8-1.3,87.7-47.4H397c0,0,26.8-12.9,38-41.4h-3.5
		c0,0,17.1-12.8,23-39h-5.1C449.5,126.3,476.8,107.1,481,76.2L481,76.2z"/>
	<path class="st1" d="M471.8,82.6H121.2c28.7,43.5,20.3,50.5-3.8,50.5L86.5,82.6H42.6l135,220.5c-5.8-0.8-11.6-1.2-17.6-1.2
		c-51.4,0-91.7,28-91.7,63.7c0,35.7,40.3,63.7,91.7,63.7c51.4,0,91.7-28,91.7-63.7c0-8.8-2.5-17.2-7.3-25.2L206.1,278
		c0,0,26.6,8.8,45.2,2.9l-11.8-15.2c0,0,43.9,3.6,73.3-2.3l-14-14.8c0,0,65.4-0.6,89.8-41h-11.2c0,0,30.8-4.3,46.4-37.6h-11.4
		c0,0,26.5-12.2,33.7-40h-12.3C433.9,130.1,461.4,111.8,471.8,82.6L471.8,82.6z"/>
	<path class="st2" d="M464.5,87.2H129.3c19.9,30.2,23.6,52.5-14.5,50.4L84,87.2H50.7l136,222.2c-8.8-1.9-17.8-2.9-26.8-2.9
		c-48.1,0-87.2,26.5-87.2,59.2c0,32.6,39.1,59.1,87.2,59.1c48.1,0,87.2-26.5,87.2-59.1c0-7.9-2.2-15.6-6.6-22.8l-44.3-72.4
		c0,0,27.9,9.8,47.2,7.7c0,0-8.8-10.8-12.7-17.6c0,0,31.8,3.8,73.3,0.2l-15.6-16.5c1.3,0,2.6,0,4.1,0c67.3,0,87.6-34.5,87.6-34.5
		h-18.3c0,0,45.5-11.6,55.2-37.6h-16.9c0,0,36-17.6,39.5-37.6h-20.5C419.1,134.6,454.9,114.4,464.5,87.2L464.5,87.2z"/>
	<path class="st3" d="M456.7,92H138c26.4,43.2,0,52.9-25.9,50.3L81.3,92h-22l137.8,225.2c-11.2-3.7-23.8-5.9-37.2-5.9
		c-45.5,0-82.4,24.3-82.4,54.3c0,30,36.9,54.3,82.4,54.3s82.4-24.3,82.4-54.3c0-7.2-2.1-14-5.9-20.3l-51.1-83.5
		c0,0,33,11.5,48.2,11.5c0,0-6.9-8.8-11.1-18.4c0,0,39.5,4.3,71.2,1.8l-17.2-18.3c0,0,5.1,1,16.2,1c55.7,0,77.1-24.8,77.1-24.8
		H203.9l-2.4-4H339c0,0,56-10.7,69.5-33.6H180.9l-2.4-4H388c0,0,39-18.8,44.6-33.6H157.9l-2.4-4h252.5
		C407.9,135.5,444.7,116.4,456.7,92L456.7,92L456.7,92z"/>
</g>
</svg>
