<?xml version="1.0" encoding="utf-8"?>
<!-- Generator: Adobe Illustrator 26.0.2, SVG Export Plug-In . SVG Version: 6.00 Build 0)  -->
<svg version="1.1" id="Layer_1" xmlns="http://www.w3.org/2000/svg" xmlns:xlink="http://www.w3.org/1999/xlink" x="0px" y="0px"
	 viewBox="0 0 512 512" style="enable-background:new 0 0 512 512;" xml:space="preserve">
<style type="text/css">
	.st0{fill:#00205B;}
</style>
<g>
	<path class="st0" d="M405,379.6c-5.4,0-9.8,4.4-9.8,9.8c0,5.4,4.4,9.8,9.8,9.8c5.4,0,9.8-4.4,9.8-9.8
		C414.9,384,410.5,379.6,405,379.6L405,379.6z M405,397.2c-4.3,0-7.7-3.5-7.7-7.7c0,0,0,0,0,0c0-4.3,3.5-7.7,7.7-7.7
		c4.3,0,7.7,3.5,7.7,7.7C412.8,393.7,409.3,397.2,405,397.2z M409.1,387.2c0-1.8-1.5-3.3-3.3-3.3c0,0,0,0,0,0H401v11.2h2.1v-4.6h1.5
		l2.1,4.6h2.3l-2.2-4.8C408.2,389.8,409.1,388.6,409.1,387.2L409.1,387.2L409.1,387.2z M405.7,388.4h-2.6v-2.5h2.6
		c0.7,0,1.2,0.6,1.2,1.2C407,387.9,406.4,388.4,405.7,388.4L405.7,388.4z"/>
	<path class="st0" d="M481,236c0-45.6-28.4-90.6-78.7-118.3L383,133c34.4,21.7,54.7,54,54.7,90.7c0,85.7-105.9,163.3-223.8,163.3
		c-12.1,0-24-0.9-35.4-2.6l-39.8,29.4c25.1,8.5,53.1,13,82.4,13C361,426.9,481,332.5,481,236z"/>
	<path class="st0" d="M303,267.8l-72,14.1l159.7-131.2l-74.3,10L460.9,46.1L292.7,90.3c-2.2,0-4.4-0.1-6.7-0.1
		c-137.8,0-255,93.7-255,192.5c0,48.5,26.1,87.1,66.6,112.1l-62.2,71.1L303,267.8L303,267.8z M50.2,268.1
		c0-88.6,110.9-163.3,223.8-163.3c0.8,0,1.5,0,2.3,0L167.2,226.9l62.8-9.9L106.3,336.6l50.1-9.1l-35,40.1
		C78.9,347.4,50.2,312.7,50.2,268.1"/>
</g>
</svg>
