<?xml version="1.0" encoding="utf-8"?>
<!-- Generator: Adobe Illustrator 26.0.2, SVG Export Plug-In . SVG Version: 6.00 Build 0)  -->
<svg version="1.1" id="Layer_1" xmlns="http://www.w3.org/2000/svg" xmlns:xlink="http://www.w3.org/1999/xlink" x="0px" y="0px"
	 viewBox="0 0 512 512" style="enable-background:new 0 0 512 512;" xml:space="preserve">
<style type="text/css">
	.st0{fill:#00205B;}
	.st1{fill:#FFFFFF;}
</style>
<g>
	<path class="st0" d="M353.8,452.1v8.4h-2.1v-8.4h-2.4V450h7v2.1H353.8L353.8,452.1z M365.2,460.5v-6.2l-1.8,3.9h-1.9l-1.8-3.9v6.2
		h-2.1V450h2.1l2.7,5.6l2.7-5.6h2.1v10.5L365.2,460.5L365.2,460.5z"/>
	<path class="st0" d="M457.2,207.4c0.2-0.3,0.1-0.6-0.1-0.9c-0.1-0.1-0.2-0.1-0.3-0.2c-6.1-2.3-11.8-3.8-17.6-4.7
		c-0.3,0-0.6-0.3-0.6-0.7c0-0.1,0-0.2,0.1-0.3c4.7-9.5,7.8-20.4,10.1-32.3c0.1-0.5-0.4-1-0.9-0.8c-10.7,2.8-22.9,7.8-33,12.6
		c-0.3,0.1-0.6,0.1-0.8-0.2c-0.1-0.1-0.1-0.2-0.1-0.3c-1.5-6.6-3.3-14-6.9-20.4c-0.1-0.2-0.3-0.3-0.5-0.3c-0.2,0-0.4,0-0.6,0.1
		c-10.7,7.8-20.3,16.3-28.7,25.7c-0.2,0.3-0.6,0.3-0.9,0.1c-0.1-0.1-0.2-0.1-0.2-0.2c-2.2-3.6-5-6.7-8.7-9.4
		c-0.3-0.2-0.7-0.2-0.9,0.1c-13.8,17.1-31.2,36.4-53.6,52.5c-0.5,0.3-1.1-0.1-0.9-0.7c5.1-16.6,12.7-32.5,20.2-47
		c0.2-0.3,0-0.7-0.3-0.9c-0.1,0-0.1,0-0.2-0.1c-3.1-0.7-7.3-1.1-11.3-1.3c-0.4,0-0.7-0.3-0.6-0.7c0,0,0,0,0,0c0-0.1,0-0.2,0.1-0.3
		c9.4-14,16.7-31,21.2-46.3c0.1-0.3-0.1-0.7-0.4-0.8c-0.1,0-0.2-0.1-0.3-0.1c-7.9,0.4-17.4,2.1-25.3,4.9c-0.3,0.1-0.7-0.1-0.8-0.4
		c0-0.1,0-0.2,0-0.3c2.3-13.2,1.2-28.1-1.3-41.8c0-0.2-0.2-0.4-0.3-0.5c-0.2-0.1-0.4-0.1-0.6,0c-5.6,2.1-12,5.3-17.8,8.8
		c-0.2,0.1-0.5,0.1-0.7,0c-0.2-0.1-0.3-0.4-0.3-0.6c0.9-12.4-0.5-26.2-3.2-37.3c-0.1-0.4-0.4-0.6-0.8-0.5c0,0,0,0-0.1,0
		c-4.1,1.4-8.8,3.9-13.4,6.6c-0.3,0.2-0.7,0.1-0.9-0.2c0,0,0-0.1-0.1-0.1c-4.3-12.5-11.2-24.7-18.6-36.8c-0.1-0.2-0.4-0.3-0.6-0.3
		c-0.2,0-0.5,0.1-0.6,0.3c-7.4,12.1-14.3,24.3-18.6,36.8c-0.1,0.2-0.2,0.4-0.4,0.4c-0.2,0.1-0.4,0.1-0.6-0.1
		c-4.5-2.7-9.3-5.2-13.4-6.6c-0.3-0.1-0.7,0.1-0.8,0.4c0,0,0,0,0,0.1c-2.7,11.1-4,24.8-3.2,37.3c0,0.3-0.1,0.5-0.3,0.6
		c-0.2,0.1-0.5,0.1-0.7,0c-5.8-3.5-12.2-6.7-17.8-8.8c-0.4-0.1-0.7,0.1-0.9,0.4c0,0,0,0.1,0,0.1c-2.5,13.7-3.6,28.6-1.3,41.8
		c0.1,0.4-0.2,0.7-0.5,0.8c0,0,0,0,0,0c-0.1,0-0.2,0-0.3,0c-7.9-2.7-17.4-4.5-25.3-4.9c-0.3,0-0.6,0.2-0.7,0.5c0,0.1,0,0.2,0,0.3
		c4.6,15.3,11.8,32.3,21.2,46.3c0.2,0.3,0.1,0.7-0.2,0.9c-0.1,0.1-0.2,0.1-0.3,0.1c-4,0.2-8.2,0.6-11.3,1.3
		c-0.4,0.1-0.6,0.5-0.5,0.8c0,0.1,0,0.1,0.1,0.2c7.5,14.6,15.1,30.5,20.2,47.1c0.2,0.5-0.4,1-0.9,0.7
		c-19.8-13.9-38.9-34.2-53.6-52.6c-0.2-0.3-0.6-0.3-0.9-0.1c-3.7,2.7-6.5,5.8-8.7,9.4c-0.2,0.3-0.6,0.4-0.9,0.2
		c-0.1,0-0.1-0.1-0.2-0.1c-8.4-9.4-18-17.9-28.7-25.7c-0.3-0.2-0.8-0.2-1,0.2c0,0,0,0,0,0.1c-3.6,6.4-5.4,13.8-6.9,20.4
		c-0.1,0.3-0.3,0.5-0.6,0.5c-0.1,0-0.2,0-0.3-0.1c-10.2-4.9-22.4-9.9-33-12.6c-0.5-0.1-1,0.3-0.9,0.8c2.3,11.8,5.4,22.8,10.1,32.3
		c0.1,0.2,0.1,0.4,0,0.6c-0.1,0.2-0.3,0.3-0.5,0.4c-5.8,0.8-11.5,2.4-17.6,4.7c-0.3,0.1-0.5,0.4-0.5,0.7c0,0.1,0,0.2,0.1,0.3
		c7.1,12.3,15.4,22.4,24.8,30.3c0.3,0.2,0.3,0.7,0.1,1c-0.1,0.1-0.1,0.1-0.2,0.2c-3.8,2.3-7.3,5-10.5,8.1c-0.3,0.3-0.3,0.7,0,1
		c0,0,0,0,0,0c12,11.8,25.2,22.4,39.3,31.6c0.2,0.1,0.3,0.3,0.3,0.6c0,0.2-0.1,0.5-0.3,0.6c-5.2,4.1-9.8,8.3-13.8,13
		c-0.2,0.3-0.2,0.7,0.1,1c10.3,9.1,22.1,16.5,35.8,22.1c0.2,0.1,0.4,0.3,0.4,0.6c0,0.3-0.1,0.5-0.3,0.7c-4.9,3.7-8.8,7.7-12.5,12.1
		c-0.1,0.1-0.1,0.2-0.1,0.3c-0.1,0.2,0,0.4,0.1,0.6c0.1,0.1,0.1,0.2,0.2,0.2c9.8,5,21.6,8.3,34,10.5c0.6,0.1,0.6,0.9,0.1,1
		c-15.7,4.9-30.2,11.2-44,18.8c-0.3,0.2-0.5,0.6-0.3,1c0,0.1,0.1,0.2,0.2,0.2c10.1,7.5,20.5,14.1,32.5,18.8c0.2,0.1,0.4,0.3,0.4,0.5
		c0,0.2-0.1,0.5-0.3,0.7c-16.4,13.4-29.9,28.8-41.6,45.6c-0.4,0.5,0.1,1.2,0.7,1.1c16.7-2.1,32.3-4.7,45.8-8.4
		c0.4-0.1,0.7,0.1,0.8,0.5c0,0.2,0,0.3,0,0.5c-2.9,5.7-5.5,11.9-7.8,18.3c-0.2,0.5,0.2,1,0.8,1c15.1-1.6,28.8-3.6,39.8-6
		c0.6-0.1,1.1,0.5,0.7,1.1c-4.6,7.1-7.9,14.7-10.6,23.1c-0.2,0.5,0.3,1,0.8,0.9c26.5-5.1,50.6-12.6,71.9-22.9
		c0.6-0.3,1.2,0.1,1.3,0.8c1.3,19,8.5,32.2,18.3,42.8c0.4,0.4,1,0.4,1.4,0L277,468c0.4-0.4,0.5-1,0.1-1.5
		c-2.7-3.1-15.3-17.4-13.1-28.3c0.3-1.3,1.7-2,2.9-1.4c15.9,7.2,49,18.2,74.9,23.2c0.5,0.1,0.9-0.4,0.8-0.9
		c-2.6-8.4-5.9-16-10.6-23.1c-0.3-0.5,0.1-1.2,0.7-1.1c11,2.5,24.7,4.4,39.8,6c0.4,0,0.7-0.2,0.8-0.6c0-0.1,0-0.2,0-0.3
		c-2.4-6.4-5-12.5-7.8-18.3c-0.2-0.3,0-0.7,0.3-0.9c0.2-0.1,0.3-0.1,0.5,0c13.4,3.7,29,6.3,45.8,8.4c0.6,0.1,1-0.6,0.7-1.1
		c-11.7-16.8-25.2-32.2-41.6-45.6c-0.2-0.2-0.3-0.4-0.3-0.7c0-0.2,0.2-0.5,0.4-0.5c12-4.7,22.4-11.2,32.5-18.8
		c0.2-0.1,0.3-0.4,0.3-0.6c0-0.2-0.2-0.5-0.4-0.6c-13.8-7.7-28.3-14-44-18.8c-0.5-0.2-0.5-0.9,0.1-1c12.3-2.2,24.2-5.5,34-10.5
		c0.3-0.2,0.5-0.6,0.3-1c0,0-0.1-0.1-0.1-0.1c-3.6-4.4-7.6-8.4-12.5-12.1c-0.2-0.2-0.3-0.4-0.3-0.7c0-0.3,0.2-0.5,0.4-0.6
		c13.7-5.6,25.5-13,35.8-22.1c0.3-0.3,0.3-0.7,0.1-1c-4-4.7-8.6-8.9-13.8-13c-0.3-0.2-0.4-0.7-0.1-1c0-0.1,0.1-0.1,0.2-0.2
		c14.1-9.2,27.3-19.8,39.3-31.6c0.3-0.3,0.3-0.7,0-1c-3.2-3.1-6.7-5.8-10.5-8.1c-0.3-0.2-0.4-0.6-0.2-0.9c0-0.1,0.1-0.1,0.2-0.2
		C441.9,229.8,450.1,219.6,457.2,207.4L457.2,207.4z"/>
	<path class="st1" d="M253.4,208c0.1,0.1,0.2,0.2,0.2,0.4c0.1,5.3,0.2,10.1,0.4,14.8c0,0.2,0.2,0.3,0.3,0.3l3.8,0h0
		c0.1,0,0.2,0,0.2-0.1c0.1-0.1,0.1-0.2,0.1-0.2c-0.1-3.3-0.3-6.7-0.4-10c0-0.2,0.1-0.4,0.2-0.5c17.8-13.5,31.9-29.2,38.6-43.2
		l-0.2-0.1c-8.3,13.8-21.2,27.1-38.5,39.4c-0.1,0.1-0.3,0-0.3-0.1c-0.7-21.1-0.7-38.6,0-53.3c0.1-2,0.1-4.1,0.2-6.4
		c0-0.2,0.1-0.5,0.3-0.6c7.6-4.3,14.5-9.8,21.2-17l-0.2-0.2c-7.4,6.4-14.3,11.2-21.1,14.6c0,0-0.1,0-0.1,0c-0.1,0-0.1-0.1-0.2-0.1
		c0,0,0-0.1,0-0.1c0.5-26.1-0.2-56.5-1.4-70.8l-0.2,0c0.1,15.4,0,30.8-0.5,46.2c0,0.1-0.1,0.1-0.1,0.1c0,0-0.1,0-0.1,0
		c-6.3-6.6-12-14-17.1-21.9l-0.2,0.1c4.2,8.1,9.8,16.3,17.1,25.1c0.2,0.3,0.3,0.6,0.3,1c-0.3,9.9-0.8,19.7-1.4,29.6
		c-0.2,3.3-0.3,6.8-0.5,10.9c0,0.1-0.2,0.2-0.3,0.1c-8-5.7-15.4-13.5-21.3-22.6l-0.2,0.1c5.3,9.9,12.4,18.3,21.2,25
		c0.3,0.2,0.5,0.6,0.5,1c-0.4,11.5-0.5,23-0.3,34.5c0,0,0,0.1,0,0.1c0,0,0,0-0.1,0c0,0,0,0-0.1,0c-15.8-9.6-28.8-22.1-38.8-37.1
		l-0.2,0.1C223.3,183.1,237.5,197.9,253.4,208L253.4,208z M139.6,249.7c0.1,0,0.1,0,0.1,0l2.6-1.2c0.1-0.1,0.2-0.2,0.1-0.4
		c0,0,0-0.1-0.1-0.1c-0.9-1-1.9-2-2.8-2.9c-0.2-0.2-0.3-0.5-0.3-0.8c-0.2-10-3.5-18.8-9.9-26.2l-0.2,0.1c4.8,7.3,7.2,15,7.1,23.6
		c0,0,0,0,0,0c-6.1-6.1-12.8-12.3-19.8-18.5c-0.2-0.2-0.3-0.5-0.3-0.8c0.6-7.3-0.6-14.3-3.7-20.6l-0.2,0.1
		c2.1,6.2,2.7,12.3,1.6,18.9l-0.1,0c-7.8-7.1-16.3-15.6-26.2-25.9l-0.2,0.1c8.3,9.9,18.1,20.3,30,31.9c1.9,1.8,3.8,3.6,5.6,5.5
		c-1.2,0.1-2.3,0.1-3.5,0.1c-8.1,0-16.4-2-25.2-6.2l-0.1,0.2c9.3,5.7,19.1,8.5,30,8.5c0.4,0,0.7,0,1.1,0c0.2,0,0.3,0.1,0.4,0.2
		c3.9,4,8.4,8.7,13.6,14.4C139.4,249.6,139.5,249.7,139.6,249.7L139.6,249.7z M396.6,223.7c9-9.1,17.5-18.4,25.4-27.5l-0.2-0.2
		c-9.3,9.3-18.7,18.5-28.9,28.2c0,0,0,0-0.1,0c0,0-0.1,0-0.1-0.1c-1-6.5-0.7-13.5,0.6-20.4l-0.2-0.1c-2.4,6.7-3.3,13.9-2.7,22.2
		c0,0.3-0.1,0.6-0.3,0.8c-7.7,6.9-15,13.8-21.6,20.7c-0.1,0.1-0.1,0.3,0,0.4c0,0,0.1,0.1,0.1,0.1l2.6,1.3c0.2,0.1,0.4,0,0.5-0.1
		c2.7-3,5.5-5.9,8.3-8.9c0.2-0.2,0.6-0.4,0.9-0.4c10.9-0.1,20.3-2.7,28.7-7.8l-0.1-0.2c-8.1,3.6-15.4,5.3-22.9,5.3
		c-1.1,0-2.2,0-3.2-0.1c0,0,0,0-0.1,0c0,0,0,0,0,0c0,0,0,0,0-0.1c0,0,0,0,0,0C387.6,232.4,392.1,228,396.6,223.7L396.6,223.7z
		 M265.6,407.1c-7.7,0-15.1,2.1-18.6,7.3c0,0.1-0.1,0.1-0.2,0c-2.3-1.5-10-6.2-18.9-6.2c-4.8,0-10,2.3-15.3,5.3c-0.1,0-0.1,0-0.2,0
		c-14.1-2.1-27.5,0.7-40.7,5.8c13.8-3.5,26.8-5.7,37.1-3.7c0,0,0.1,0,0.1,0.1c0,0,0,0,0,0c-6.1,3.7-12.2,7.8-17.6,9.6
		c11.2-1.3,25.8-14,37.1-14c7.5,0,15.1,4.7,17.1,6c0.1,0,0.1,0.1,0.1,0.2c-0.6,1.8-0.8,3.8-0.6,6.1c3.7-10.2,11.2-12.5,21.4-12.5
		c7.9,0,15.8,2.8,25,4.9c0.1,0,0.2,0.1,0.2,0.1c5.6,4.9,16,9.8,20.9,10.6l2.1,0.4l-2-0.8c-4.2-1.6-11.7-5.4-15.5-9
		c0,0,0-0.1,0.1-0.1c3.8,0.6,7.9,1.1,12.3,1.1c16.4,0,23.8-2.9,28.4-4.8c-4.9,1-9.6,2.5-26.1,2.5
		C296.7,416.1,277.8,407.1,265.6,407.1L265.6,407.1z M151.3,270.9c2.8-1.4,5.6-2.8,8.3-4.1l-3.3-6.3c-8.2,3.9-16.2,8.1-24.1,12.5
		l3.2,6.3c2.7-1.5,5.4-3,8.2-4.4l0.5-0.3l16.3,31.4c2.2-1.2,4.4-2.3,6.6-3.4l-16.3-31.4L151.3,270.9L151.3,270.9L151.3,270.9z
		 M184.2,294.5c0.9,0,1.8-0.2,2.7-0.5c3.3-1.2,6.6-2.3,9.8-3.3c2.1-0.7,3.7-2.1,4.7-4c0.9-1.9,1.1-4,0.4-6l-8.5-24.9
		c-1.1-3.3-4.3-5.6-7.8-5.6c-0.8,0-1.7,0.1-2.5,0.4c-3.3,1.1-6.6,2.2-9.8,3.3c-4.2,1.5-6.4,6.1-5,10.4l8.5,24.9
		C177.9,292.4,180.9,294.5,184.2,294.5L184.2,294.5z M178.2,259.6c1.5-0.5,3-1,4.6-1.5c1.7-0.6,3.5,0.4,4.1,2l7,20.7
		c0.3,0.8,0.2,1.7-0.2,2.4c-0.4,0.8-1,1.3-1.9,1.6c-1.5,0.5-3,1-4.5,1.5c-0.3,0.1-0.7,0.2-1,0.2h0c-1.4,0-2.6-0.9-3-2.2l-7-20.7
		C175.7,262,176.6,260.2,178.2,259.6z M262.1,281.6c4.5,0,8-3.5,8-7.9v-26.3c0-4.5-3.6-8.2-8.1-8.2c-3.5,0-6.9,0-10.4,0
		c-4.4,0-8.1,3.7-8.1,8.2v26.3c0,4.4,3.5,7.9,7.9,7.9C252.5,281.6,256.4,281.6,262.1,281.6L262.1,281.6z M251.3,249.5
		c0-1.8,1.4-3.2,3.2-3.2c1.6,0,3.2,0,4.8,0c1.8,0,3.2,1.5,3.2,3.2v21.9c0,1.8-1.4,3.2-3.2,3.2c-1.6,0-3.2,0-4.8,0
		c-1.8,0-3.2-1.4-3.2-3.2V249.5z M249.5,382.1h11.4l1.8,6.9h7.5l-10-36.9h-10l-10,36.9h7.5L249.5,382.1z M255.1,359.8l3.9,15.4h-7.8
		L255.1,359.8z M274.5,322.6v-11.5c0-4-3.3-7.3-7.3-7.3h-15.9v36.9h7.2v-10.8h8.7C271.3,329.9,274.5,326.6,274.5,322.6L274.5,322.6
		L274.5,322.6z M267.3,320.7c0,1.2-1,2.2-2.2,2.2c0,0,0,0,0,0h-6.5v-12.2h6.5c1.2,0,2.2,1,2.2,2.2c0,0,0,0,0,0V320.7z M177,352.2
		v36.9h21.6v-6.9h-14.3v-30H177z M204.6,303.8h-5.7l-8,18.5l-8-18.5H177v36.9h7.2v-17l6.5,14.8l6.5-14.8v17h7.2V303.8z M219.4,285.1
		l-2-12.6l0.5-0.1c1-0.2,2.1-0.4,3.1-0.5l0.3-0.1l0.2,0.3c2.7,3.8,5.4,7.5,8,11.3c2.4-0.4,4.8-0.7,7.2-1c-2.6-3.7-5.3-7.5-7.9-11.2
		l-0.4-0.6l0.6-0.3c3.3-1.4,5.3-4.9,4.7-8.5l-2.2-13.4c-0.6-3.9-4.1-6.9-8.1-6.9c-0.4,0-0.8,0-1.2,0.1c-5.7,0.9-11.4,1.8-17,2.9
		l6.8,41.9C214.6,286,217,285.5,219.4,285.1L219.4,285.1z M214.3,250.1c2.2-0.4,4.4-0.8,6.7-1.1c1.7-0.3,3.4,1,3.7,2.7l1.5,9
		c0.1,0.8-0.1,1.7-0.6,2.4c-0.5,0.7-1.3,1.1-2.1,1.3c-2.2,0.3-4.4,0.7-6.7,1.1l-0.6,0.1l-2.5-15.4L214.3,250.1z M234.5,340.7h7.4
		l-9.1-36.9H223l-9.1,36.9h7.4l1.6-6.9h10L234.5,340.7L234.5,340.7z M224.5,326.8l3.5-15.4l3.5,15.4H224.5L224.5,326.8z M302,359.1
		v-6.9h-23.1v36.9h7.3v-15h11.3v-6.9h-11.3v-8H302z M284.7,240.6l-7.1,41.8c2.4,0.3,4.9,0.7,7.3,1.1l4.1-24l0.7,2.1
		c2.8,8.1,5.5,16.1,8.2,24.2c1.9,0.4,3.9,0.7,5.8,1.1l7.1-41.8c-2.4-0.5-4.9-1-7.3-1.4l-4.1,24l-0.7-2.1c-2.7-8-5.4-16.1-8.2-24.1
		C288.6,241.2,286.6,240.9,284.7,240.6L284.7,240.6z M319,389.1h10.4c4.1,0,7.4-3.3,7.4-7.3v-5.3c0-2.7-1.1-5.2-3.5-6.5
		c0,0-12.9-5.8-13.1-5.8c-0.6-0.3-1.2-1.2-1.2-2v-0.8c0-1.2,1-2.2,2.3-2.2h6c1.3,0,2.3,1,2.3,2.2v1.5h7.3v-3.4c0-4-3.3-7.3-7.4-7.3
		H319c-4.1,0-7.4,3.3-7.4,7.3v3.8c0,2.7,1.1,5.2,3.5,6.5c0,0,12.9,5.8,13.1,5.8c0.6,0.3,1.2,1.2,1.2,2v2.3c0,1.2-1,2.2-2.3,2.2h-6
		c-1.3,0-2.3-1-2.3-2.2v-1.6h-7.3v3.5C311.6,385.8,314.9,389.1,319,389.1L319,389.1z M336.8,333.8h-14.1v-8h9.6v-6.9h-9.6v-8h14.1
		v-6.9h-21.3v36.9h21.3L336.8,333.8L336.8,333.8z M306.1,333.8h-13.3v-30h-7.2v36.9h20.6L306.1,333.8L306.1,333.8z M324.9,293.4
		l11.3-33.5l0.5,0.2c2.9,1,5.9,2.1,8.8,3.1l2.3-6.7c-8.5-3.1-17.1-6-25.7-8.7l-2.3,6.7c3,0.9,5.9,1.8,8.9,2.8l0.5,0.2L317.9,291
		C320.3,291.8,322.6,292.6,324.9,293.4L324.9,293.4z M231.4,359.1v-6.9h-23.1v36.9h23.1v-6.9h-15.8v-8h11.3v-6.9h-11.3v-8H231.4z
		 M373.9,268.9c-3.1-1.6-6.1-3.2-9.2-4.8c-1.1-0.6-2.3-0.8-3.6-0.8c-3.1,0-6,1.8-7.4,4.5l-12.1,23.4c-1,1.9-1.2,4-0.5,6
		c0.7,2,2.1,3.7,4,4.7c3.1,1.6,6.2,3.1,9.2,4.8c1.2,0.6,2.5,0.9,3.8,1c2.9,0,5.6-1.6,7-4.2l12.1-23.4
		C379.4,276,377.9,271,373.9,268.9L373.9,268.9z M369.6,278.2l-10,19.4c-0.5,1.1-1.6,1.7-2.8,1.7c-0.5,0-1-0.1-1.5-0.4
		c-1.4-0.7-2.8-1.5-4.3-2.2c-0.8-0.4-1.3-1.1-1.6-1.9c-0.3-0.8-0.2-1.7,0.2-2.4l10-19.4c0.8-1.6,2.7-2.2,4.3-1.4
		c1.4,0.7,2.9,1.5,4.3,2.2C369.8,274.7,370.4,276.7,369.6,278.2z"/>
</g>
</svg>
