<?xml version="1.0" encoding="utf-8"?>
<!-- Generator: Adobe Illustrator 26.0.2, SVG Export Plug-In . SVG Version: 6.00 Build 0)  -->
<svg version="1.1" id="Layer_1" xmlns="http://www.w3.org/2000/svg" xmlns:xlink="http://www.w3.org/1999/xlink" x="0px" y="0px"
	 viewBox="0 0 512 512" style="enable-background:new 0 0 512 512;" xml:space="preserve">
<style type="text/css">
	.st0{fill:#97999B;}
	.st1{fill:#00205B;}
	.st2{fill:#041C2C;}
	.st3{fill:#FFFFFF;}
</style>
<g>
	<path class="st0" d="M250.8,307l94.1-47c64.5,18.1,83.6,42.6,83.6,42.6l36.9-41.7c2-2.1,8.1-9.7,8.1-23.4c0-14.8-15.4-26.3-26.3-34
		c-18.4-48.2-119.9-62.1-127.4-78.9c-2.6-5.8-17.4-55.9-17.4-55.9c-8.8-25.9-34.9-25.9-44.8-25.9c-9.9,0-31.1,3.3-31.1,3.3
		c0,36.1-4.9,80.2-10,88.2c0,0-18.4,9.6-39.9,17.4L125.3,117l13.5,46.6C52.1,211.3,31,294.3,31,294.3s22.2,174.9,241.5,174.9
		c115.9,0,182.8-56,182.8-56L418,329.7c0,0-57.1,29.7-129.9,29.7c-67.2,0-93.5-31.3-103.1-49.6C241.9,311.4,250.8,307,250.8,307
		L250.8,307z"/>
	<path class="st1" d="M438.8,209.6c-17.9-48.4-116.7-57.2-127.6-80c-4.4-9.2-10-31-18.2-57.7c-6.5-19.2-25.9-19.2-35.5-19.2
		c-9.2,0-21.2,1.9-21.2,1.9c0,19.7-3.7,77-12.9,86.8c-2.3,2.8-19.1,9.6-37.4,16.7l5.5,3.7l-5.6,5.6L175.4,178l-11.6,36.2l-15.1-7.9
		l5.3,13.4l-26.9,4.5l15.2,5.3l-43.8,33.7l11.8,0.9l-15.6,28.3c22.5-10.2,29.4-12.2,29.4-12.2l-6.5-6.7l45.4-18.3
		c0,0-3.4,9.1-3.4,26.7c0,2.5,0.4,6.3,1.3,10.6c5.6,27.5,32.4,84.1,127.1,84.1c68.5,0,121.3-23.9,121.3-23.9l24.5,54.9
		c0,0-64.3,44.5-161.5,44.5c-198.7,0-223.9-156.2-223.9-156.2c27.4-73.3,73.5-105.4,102.8-119l-9.2-1l-0.8-2.7
		C63.9,215.9,41,295.1,41,295.1s23.6,164.3,231.5,164.3c106.4,0,170.7-49.3,170.7-49.3l-30.1-67.3c0,0-56.2,26.3-125.1,26.3
		c-102.5,0-117.7-69.9-117.7-69.9s58.4,3.5,77.1-1.5l96.5-48.2c65.4,18.4,84.2,38.4,84.2,38.4l29.9-33.7c0,0,5.5-5.1,5.5-16.7
		C463.6,226.7,447.4,215.8,438.8,209.6L438.8,209.6z M228.5,227.5l-49-6.6l24.7-13.8L228.5,227.5z M220.4,161.5L190,210.1
		l-10.7-25.5L220.4,161.5z M119.9,253.6l56.9-38.3l-4.3,30.4L119.9,253.6z"/>
	<path class="st1" d="M168.6,242.8l3.6-20.6l-38.5,26.1L168.6,242.8z M187.9,219.6l31.9,3.9l-18.8-11L187.9,219.6L187.9,219.6z
		 M185.5,185.9l3.5,15.8l22.5-30.5L185.5,185.9z"/>
	<path class="st1" d="M100.1,266.6l-11.4,0.3l47.4-35.3l-20.6-8.2l33.7-6.5l-11.7-23.6l20.8,11.8l8.3-25.8
		c-25,8.7-78.6,36.2-109.8,117.4c3.7,18.6,36.3,147.4,215.6,147.4c77.4,0,133.9-29.3,151.3-39.6L405.3,363
		c-17.2,6.6-62,21.6-117.2,21.6c-109,0.1-136.4-74.6-136.4-102.7c0-6.2,0.4-11.5,0.9-15.8l-25.1,8.3l3.3,7.1l-19.6,7.1l-16.8,11.1
		l34.2,6.3l-7.1,24.5l14.7-4.3l14.1,35.9l16.8-2.1l5.6,25.2c0,0,31.7,22,85.5,26.8c71,6.3,134.5-17.9,134.5-17.9
		s-75.8,29.7-144.7,22.4c-52.6-5.5-86.9-27-86.9-27l-0.4-22.7l-20.8,0.3l-9.8-34.8l-18.5,8.7l8.2-31.1l-35.5-4.3l7.2-21.7
		L100.1,266.6L100.1,266.6z M173.1,177.8l10.3-13.8l-50-34.5l14.3,42.2L173.1,177.8L173.1,177.8z"/>
	<path class="st2" d="M470.8,392.8c-5.6,0-10.2,4.5-10.2,10.2s4.5,10.2,10.2,10.2S481,408.6,481,403S476.5,392.8,470.8,392.8z
		 M470.8,411c-4.4,0-8-3.6-8-8c0-4.4,3.5-7.9,8-7.9c4.4,0,8,3.5,8,7.9C478.8,407.4,475.3,411,470.8,411z"/>
	<path class="st2" d="M475.1,400.6c0-1.9-1.5-3.5-3.5-3.5h-4.9v11.6h2.2V404h1.5l2.2,4.7h2.4l-2.3-4.9
		C474.1,403.4,475.1,402.2,475.1,400.6L475.1,400.6z M471.6,401.9h-2.7v-2.5h2.7c0.7,0,1.3,0.5,1.3,1.3
		C472.9,401.4,472.2,401.9,471.6,401.9L471.6,401.9z M414.5,212.9c-41-3.3-56.9-16.8-56.9-27.3c0-5.1,4.7-6,7.8-6
		c16.7,0,42.6,13.2,46.8,24.5c-7.3-7.9-20.2-14.8-29.9-14.8c-2.1,0-4.3,0.6-4.3,3.2c0,6.6,11.8,17,54.7,21.8
		c-16.4-47.4-107.2-50.8-127.5-80.6c-5.7-8.3-15-61.2-24.5-68.5c-10.4-7.9-36.9-4.3-36.9-4.3c0,7.3-1.8,72.3-15.2,85.8
		c-9.1,7.6-24.3,11-42.6,20.6l-10.6,10.6l-11.6,36.2l-15.1-7.9l5.3,13.4l-26.9,4.5l15.2,5.3l-43.8,33.7l11.8,0.9l-15.6,28.3
		c22.5-10.2,29.4-12.2,29.4-12.2l-6.5-6.7l45.4-18.3c0,0-3.4,9.1-3.4,26.7c0,2.5,0.4,6.3,1.3,10.6c1.9-3.7,37.7-69.7,114.2-74.2
		l-32.1,24.8l-63.6,49.1c0,0,52.4,2.2,65.2-1.5c40.5-18.8,72.9-36.4,98.3-49.2c24.4-12.2,42.4-19.9,54.8-19.9
		c15.4,0,36.7,14.8,54.9,27.4c0,0,1.1-0.9,2.1-2.9C459.2,230.4,436.4,218.1,414.5,212.9L414.5,212.9z M172.4,245.7l-52.6,7.9
		l56.9-38.3L172.4,245.7z M220.4,161.5L190,210.1l-10.7-25.5L220.4,161.5z M179.6,220.9l24.7-13.8l24.3,20.4L179.6,220.9
		L179.6,220.9z M268.4,139.8c-7.5,0.5-22.8,5.4-22.8,5.4s13.8-7.9,16.6-12.2c2.8-4.3,3.5-52.4,3.5-52.4s4.4,47.2,8.2,51.9
		c3.7,4.7,17.6,10.6,17.6,10.6S274,139.4,268.4,139.8L268.4,139.8z"/>
	<path class="st3" d="M273.9,132.4c-3.7-4.7-8.2-51.9-8.2-51.9s-0.7,48.2-3.5,52.4c-2.8,4.3-16.6,12.2-16.6,12.2s15.3-5,22.8-5.4
		c5.5-0.3,23.1,3.3,23.1,3.3S277.6,137.2,273.9,132.4z M160.9,292.5c1.9-1.9,41.1-41,82.2-49.4l32.1-24.8
		C198.7,222.9,162.9,288.8,160.9,292.5z M456.4,239.4c0-9.8-12.8-16.4-23.7-25.1c-43-4.8-54.7-15.2-54.7-21.8c0-2.6,2.2-3.2,4.3-3.2
		c9.8,0,22.6,6.9,29.9,14.8c-4.3-11.2-30.1-24.5-46.8-24.5c-3.1,0-7.8,1-7.8,6c0,10.6,15.9,24,56.9,27.3c22,5.2,44.8,17.4,40.4,33.3
		C455.7,244.6,456.4,242.4,456.4,239.4L456.4,239.4z M375.8,239.3l16,5.7c2.9-1.3,6.1-2.8,6.4-3.2c0.2-0.5,0.2-0.8-0.5-1.4
		c-0.5-0.5-7.6-3.1-12-4.7L375.8,239.3z M389.3,234.2c4.3,1.7,10.2,4.1,10.6,4.1c0.7,0.1,1.8,0.2,2.5,0c0.5-0.1,4-1.9,6.5-3.2
		c-2.5-1.2-7.5-3.5-10.8-3.5C394.9,231.7,389.3,234.2,389.3,234.2L389.3,234.2z M405,239.8c-0.1,0.3,0,0.6,0.5,1
		c0.6,0.5,8.9,4.7,9.6,4.8c0.7,0.1,1.2,0.1,1.9-0.1c0.5-0.1,3.3-1.9,5.3-3.3l-11-5.9C408.4,237.7,405.3,239.4,405,239.8L405,239.8z
		 M412.9,248.5c0.2-0.4,0.3-0.7,0.1-1.1c-0.5-0.6-8.8-4.9-9.6-5c-0.9-0.1-1.5-0.1-2.3,0.3c-0.7,0.3-4.9,2.7-6.4,3.5l12.8,5.8
		C410,250.5,412.7,248.9,412.9,248.5z M428.6,253.1c0.3,0.1,1.1-0.1,2-0.5c0.5-0.2,2.3-1.7,3.6-2.8l-9.9-6.3
		c-2.4,1.5-4.9,3.2-5.1,3.5c0,0.1,0.1,0.3,0.5,1.1L428.6,253.1L428.6,253.1z M432.7,254.1c-0.3,0.6-0.3,0.8-0.2,0.9
		c0.3,0.3,5.5,3.7,9,6.1l4-4l-9.2-5.9C434.6,252.3,432.8,253.7,432.7,254.1z M427,255.7c0.2-0.3,0.1-0.7-0.3-1.1
		c-0.5-0.5-8.4-4.7-9-4.9c-0.7-0.1-1.9,0.1-2.5,0.3c-0.3,0.1-2.7,1.7-4.8,3.3l12.1,5.6C424.6,257.5,426.8,256,427,255.7L427,255.7z
		 M429.2,257.3c-0.3,0.1-2.6,1.9-4.3,3.2l11,6.7l4.1-4.5c-3.3-2.3-8.2-5.6-8.6-5.7C430.9,256.9,429.7,257.1,429.2,257.3L429.2,257.3
		z"/>
	<path class="st3" d="M343.1,241.6c59.1,15.7,84.2,36.1,84.2,36.1l6.3-7.1c-2.9-2.2-24.7-17.2-67.3-31.1c12.7-5,28.1-11,32.2-11
		c9.4,0,28.8,12.2,49.6,25.9l4.7-5.3c-18.2-12.6-39.5-27.4-54.9-27.4C385.4,221.7,367.4,229.4,343.1,241.6z"/>
</g>
</svg>
