<?xml version="1.0" encoding="utf-8"?>
<!-- Generator: Adobe Illustrator 26.0.2, SVG Export Plug-In . SVG Version: 6.00 Build 0)  -->
<svg version="1.1" id="Layer_1" xmlns="http://www.w3.org/2000/svg" xmlns:xlink="http://www.w3.org/1999/xlink" x="0px" y="0px"
	 viewBox="0 0 512 512" style="enable-background:new 0 0 512 512;" xml:space="preserve">
<style type="text/css">
	.st0{fill:#FFFFFF;}
	.st1{fill:#B9975B;}
	.st2{fill:#333F48;}
</style>
<g>
	<path d="M340,458.4c0-3.9-3.1-7.1-7-7.1c-3.9,0-7,3.2-7,7.1c0,3.9,3.2,7,7,7C336.9,465.4,340,462.3,340,458.4z M327.4,458.4
		c0-3.1,2.5-5.5,5.5-5.5c3.1,0,5.5,2.5,5.5,5.5c0,3-2.5,5.5-5.5,5.5C329.9,463.9,327.4,461.4,327.4,458.4z"/>
	<path d="M335.9,462.4l-1.6-3.4c0.9-0.3,1.6-1.2,1.6-2.3c0-1.3-1.1-2.4-2.4-2.4h-3.4v8.1h1.5v-3.3h1.1l1.5,3.3H335.9L335.9,462.4z
		 M333.5,457.6h-1.9v-1.7h1.9c0.5,0,0.9,0.4,0.9,0.9C334.4,457.2,334,457.6,333.5,457.6L333.5,457.6z"/>
	<path class="st0" d="M282.2,55.6L256,31c0,0-21.7,20.4-26.2,24.6h-140v307.5C142,421,185.9,448.7,256,481
		c70-32.2,113.9-59.9,166.2-117.9V55.6H282.2z"/>
	<path class="st1" d="M279.9,61.4c-0.2-0.2-23.9-22.5-23.9-22.5s-23.7,22.2-23.9,22.5H95.6v299.5c49,54.3,92.6,82.5,160.4,113.7
		c67.7-31.2,111.3-59.3,160.4-113.7V61.4H279.9z M147.7,189.9v158.4c-2-1.9-3.9-3.9-5.8-5.9V189.9c0-64.6,37.1-109.1,90.2-128.4
		c0.6,0.4,1.8,3.3,2.1,4c0.8,2.1,1.5,4.6,2,6.8c0,0-2.9-2.4-5.8-3.8C173.7,92.1,147.7,135.7,147.7,189.9L147.7,189.9z M252.2,321.8
		L226.6,239l8.6-8.6l-2,10.2l22.8,73.9L252.2,321.8z M282.6,402.9l-10.2,11.7l75.8-218.5l7.4-3.5L282.6,402.9z"/>
	<path d="M404.9,73v283.4C360.1,406,313.3,435.5,256,461.9c-57.3-26.4-104.1-55.9-148.9-105.5V73h100.1
		c-39.5,23-65.4,62.9-65.4,116.9v152.5c26.9,27.9,63.3,56,97.7,72.2l-75.8-218.5l71.4,34.3l-8.6,8.6l25.6,82.8h7.6l25.6-82.8
		l-8.6-8.6l71.4-34.3l-75.8,218.5c34.2-16.2,70.6-44.1,97.7-72.2V189.9c0-54-25.9-93.9-65.4-116.9L404.9,73L404.9,73z"/>
	<path class="st2" d="M275.9,72.3c2-8.7,4.1-10.8,4.1-10.8c-8-7.5-16-15-24-22.5v218.6l15.9-51.1l84.6-40.7
		C349,121.9,320.5,88.5,275.9,72.3z M364.3,211.7l-63,182.3l10.9-14.1c0,0,28.7-22,46.3-42.2v-93.1L364.3,211.7L364.3,211.7z
		 M147.7,211.7l52.4,151.7l-29.1-68.7l-17.5-50.2L147.7,211.7z M234.4,196.8L167,171.2l73.2,35.2V99.3L234.4,196.8L234.4,196.8z"/>
</g>
</svg>
