<?xml version="1.0" encoding="utf-8"?>
<!-- Generator: Adobe Illustrator 26.0.2, SVG Export Plug-In . SVG Version: 6.00 Build 0)  -->
<svg version="1.1" id="Layer_1" xmlns="http://www.w3.org/2000/svg" xmlns:xlink="http://www.w3.org/1999/xlink" x="0px" y="0px"
	 viewBox="0 0 512 512" style="enable-background:new 0 0 512 512;" xml:space="preserve">
<style type="text/css">
	.st0{fill:#041E42;}
	.st1{fill:#FFFFFF;}
	.st2{fill:#C8102E;}
</style>
<g>
	<path class="st0" d="M473.6,288.8c-4.1,0-7.4,3.3-7.4,7.4c0,4.1,3.3,7.4,7.4,7.4c4.1,0,7.4-3.3,7.4-7.4
		C481,292.1,477.7,288.8,473.6,288.8z M473.6,301.9c-3.2,0-5.8-2.6-5.8-5.8c0,0,0,0,0,0c0-3.2,2.6-5.8,5.8-5.8
		c3.2,0,5.8,2.6,5.8,5.8C479.4,299.4,476.8,301.9,473.6,301.9z M476.7,294.5c0-1.4-1.1-2.5-2.5-2.5c0,0,0,0,0,0h-3.5v8.4h1.6V297
		h1.1l1.6,3.4h1.7l-1.7-3.6C476,296.5,476.7,295.5,476.7,294.5L476.7,294.5z M474.2,295.4h-2v-1.8h2c0.5,0,0.9,0.4,0.9,0.9
		C475.1,295,474.7,295.4,474.2,295.4L474.2,295.4z"/>
	<path class="st1" d="M121.3,303H155l-11.5,27.7h28.2l11.5-27.7h83l-2.4,5.8c-5.5,13.3-4.8,30.4,0.9,39.4l32.1,51.5l24.9-36.1h40.7
		l22.2-27.3H333l-15.6,19.1l-31-25.7c-0.7-0.7-1.5-4-0.2-7.1l14.1-34.1c0,0,3,14.5,21.8,14.5h111.9c5.3,0,21.5,0,27.7-15.1
		c5.7-13.7-2.8-21.2-2.8-21.2h8.9l10.2-24.5h-54.7c-6.9,0-13.3,1.8-18.4,4.8l25.8-62.4h-28.2L374.3,253c0,0-5.1-10.9-21.6-10.9
		h-33.1l53.7-129.8h-28.2l-53.8,129.8h-69c-18,0-34.6,7.6-46.4,20.3c0,0-0.1-20.3-24.2-20.3H90.3c-24.5,0-49.9,14.7-57.6,33.4
		C27.3,288.7,35,303,52.5,303h23.9c10,0,20.5-6.6,25.1-9.9C101.5,293.1,106.6,303,121.3,303L121.3,303z"/>
	<path class="st2" d="M336.2,343l-11.2,13.7h34l11.2-13.7L336.2,343L336.2,343z M148.1,206.9l9.8-7.1l9.8,7.1l-3.7-11.5l9.8-7.1
		h-12.1l-3.7-11.5l-3.7,11.5h-12.1l9.8,7.1L148.1,206.9L148.1,206.9z M211.4,206.9l9.8-7.1l9.8,7.1l-3.7-11.5l9.8-7.1h-12.1
		l-3.7-11.5l-3.7,11.5h-12.1l9.8,7.1L211.4,206.9L211.4,206.9z M288.1,188.3l-3.7-11.5l-3.7,11.5h-12.1l9.8,7.1l-3.7,11.5l9.8-7.1
		l9.8,7.1l-3.7-11.5l9.8-7.1H288.1L288.1,188.3z M124.1,222.1L124.1,222.1l-0.7,11.4h3.9l11-14.3h-3.2l-8.3,11.2h0l0.8-11.2h-4
		l-8.3,11.2h0l0.8-11.2h-3.4l-0.8,14.3h3.9L124.1,222.1L124.1,222.1z M146.7,230.3l0.3,3.2h3.8l-1.4-14.3h-4l-13.2,14.3h3.4l2.8-3.2
		H146.7L146.7,230.3z M146.1,221.7l0.4,6.2h-5.9L146.1,221.7L146.1,221.7z M154.5,229c-1.3,3.1,0.6,4.8,4.7,4.8
		c4.8,0,8.1-1.7,9.3-4.7c2.6-6.3-9.2-2.6-7.7-6.3c0.5-1.3,2.3-2,3.6-2c2.2,0,3.2,0.7,2.6,2.5h3.2c1.1-2.9-0.4-4.6-4.6-4.6
		c-3.3,0-7,1.3-8.3,4.6c-2.4,5.7,9.1,2.9,7.7,6.1c-0.4,1-1.9,2.2-4.5,2.2c-2.5,0-3.4-1-2.8-2.7H154.5L154.5,229L154.5,229z
		 M173.3,233.5l2.5-6.1h7.8l-2.5,6.1h3.2l5.9-14.3h-3.2l-2.4,5.8h-7.8l2.4-5.8H176l-5.9,14.3H173.3z M191.8,233.5l5.9-14.3h-3.2
		l-5.9,14.3H191.8z M199.1,233.5l4.6-11.2h0l3.7,11.2h4.3l5.9-14.3h-2.9l-4.5,11h0l-3.5-11h-4.5l-5.9,14.3H199.1L199.1,233.5z
		 M235.4,223.8c1.4-3.3-1.2-5-5.5-5c-5.6,0-10,3.2-11.7,7.5c-2.1,5.2,0.5,7.6,5.8,7.6c2.1,0,5.4-0.4,7.8-1.3l2.8-6.7h-7.7l-0.9,2.2
		h4.6l-1.1,2.7c-1.8,0.5-2.9,0.7-4.2,0.7c-4.4,0-4.7-2.6-3.6-5.2c1.5-3.7,5-5.2,8-5.2c1.6,0,3.3,0.8,2.6,2.8L235.4,223.8
		L235.4,223.8z M239.4,233.5h3.2l4.9-11.9h5.4l1-2.3h-14.1l-1,2.3h5.4L239.4,233.5L239.4,233.5z M258,233.9c5.3,0,9.4-2.5,11.4-7.5
		c2.1-5,0.1-7.5-5.2-7.5c-5.3,0-9.4,2.5-11.4,7.5C250.7,231.3,252.8,233.9,258,233.9L258,233.9z M256.1,226.3
		c1.4-3.4,4.1-5.2,7.1-5.2c3.1,0,4.3,1.8,2.9,5.2c-1.4,3.4-4,5.2-7.1,5.2C255.9,231.5,254.7,229.7,256.1,226.3L256.1,226.3z
		 M284.1,230.2L284.1,230.2l-3.6-11H276l-5.9,14.3h2.9l4.6-11.2h0l3.7,11.2h4.3l5.9-14.3h-2.9L284.1,230.2z"/>
	<path class="st0" d="M86.4,259.9h17.9l4.5-10.9H90.3C68.7,249,45.7,262,39,278.1c-4,9.7,1.9,18.1,13.4,18.1h23.9
		c10.4,0,23.1-10,23.1-10l-11.2-4.7c0,0-5.1,3.8-10.6,3.8H54.8c-2.9,0-4.1-2.8-2.5-6.4C56.5,268.4,71.8,259.9,86.4,259.9L86.4,259.9
		z M121.3,296.2h13.9c5,0,9.2-2.9,9.2-2.9l-1.2,2.9h13.5l11-26.7c4.7-11.4-2.5-20.6-16-20.6h-35.1l-4.5,10.9h38c8.1,0,5.6,6,5.6,6
		h-27.3c-10.9,0-18.9,5-21.4,11.2C102.6,287.6,109,296.2,121.3,296.2z M118.8,281c1-2.3,3.6-4.2,6-4.2h18.9c4.3,0,8.2-1.6,8.2-1.6
		l-2.2,5.3c-1.1,2.6-4.9,4.8-7.8,4.8h-20.6C119,285.2,117.9,283.3,118.8,281L118.8,281L118.8,281z M313,249l-4.5,10.9H351
		c8.1,0,5.6,6,5.6,6h-27.3c-10.9,0-18.9,5-21.4,11.2c-4.4,10.6,2,19.1,14.3,19.1H336c5,0,9.3-2.9,9.3-2.9l-1.2,2.9h13.5l11-26.7
		c4.7-11.4-2.5-20.6-16-20.6L313,249L313,249z M350.6,280.5c-1.1,2.6-4.9,4.8-7.8,4.8h-20.6c-2.3,0-3.4-1.9-2.5-4.2
		c1-2.3,3.6-4.2,6-4.2h18.9c4.3,0,8.2-1.6,8.2-1.6L350.6,280.5L350.6,280.5L350.6,280.5z M377.3,296.2l43.4-104.8h-13.5l-43.4,104.8
		H377.3L377.3,296.2z M274.8,249h-13.5l-4.5,10.9h13.5L274.8,249z M255.3,296.2l12.6-30.3h-13.5l-12.6,30.3H255.3L255.3,296.2z
		 M401.9,259.8c-4.2,10.1,1.2,18.2,12.1,18.2h27.4c2,0,2.9,1.6,2.1,3.6c-0.8,2-3.1,3.6-5.1,3.6h-50.1l-4.5,10.9h50.2
		c9.4,0,17.8-2.1,21.4-10.9c4.2-10.1-1.2-18.2-12.1-18.2H416c-2,0-2.9-1.6-2.1-3.6c0.8-2,3.1-3.6,5.1-3.6h44.3l4.5-10.9h-44.5
		C414,249,404.8,253,401.9,259.8z M167.2,323.9l15.7-37.8c6-14.4,19.2-26.1,40-26.1h13.4l-8.5,20.5c-1.1,2.7-4.2,4.9-6.9,4.9h-31.2
		l-4.5,10.9h37.3c6.7,0,13.5-3.1,17.3-12.3l14.5-35h-31.9c-25,0-44.1,15.6-52,34.8l-16.6,40.1H167.2z"/>
	<path class="st0" d="M270,311.4c-4.5,10.8-4.3,25.7,0.4,33.2l26.6,42.7l17.5-25.5l-32.4-27c-3.4-2.8-4.4-9.6-2.1-14.9l83.1-200.8
		h-13.5L295.9,249h-16l-4.5,10.9h16L270,311.4L270,311.4L270,311.4z"/>
</g>
</svg>
