<?xml version="1.0" encoding="utf-8"?>
<!-- Generator: Adobe Illustrator 26.0.2, SVG Export Plug-In . SVG Version: 6.00 Build 0)  -->
<svg version="1.1" id="Layer_1" xmlns="http://www.w3.org/2000/svg" xmlns:xlink="http://www.w3.org/1999/xlink" x="0px" y="0px"
	 viewBox="0 0 512 512" style="enable-background:new 0 0 512 512;" xml:space="preserve">
<style type="text/css">
	.st0{fill:#FFFFFF;}
	.st1{fill:#A2AAAD;}
	.st2{fill:#041E42;}
	.st3{fill:#782F40;}
	.st4{fill:#A6192E;}
	.st5{fill:#53565A;}
</style>
<g>
	<path class="st0" d="M398.2,442.6c-5.8,0-10.6,4.7-10.6,10.5c0,5.8,4.7,10.5,10.6,10.5c5.8,0,10.5-4.7,10.5-10.5
		C408.7,447.3,404,442.6,398.2,442.6z M398.2,461.4c-4.6,0-8.3-3.7-8.3-8.3c0,0,0,0,0,0c0-4.6,3.7-8.3,8.3-8.3
		c4.6,0,8.3,3.7,8.3,8.3C406.4,457.7,402.7,461.4,398.2,461.4z M402.5,450.7c0-0.9-0.4-1.9-1-2.5c-0.7-0.7-1.6-1-2.5-1h-5.1v12h2.3
		v-4.9h1.6l2.3,4.9h2.5l-2.4-5.1C401.5,453.5,402.5,452.2,402.5,450.7L402.5,450.7L402.5,450.7z M398.9,452h-2.8v-2.6h2.8
		c0.7,0,1.3,0.6,1.3,1.3C400.2,451.4,399.6,452,398.9,452L398.9,452z"/>
	<path class="st1" d="M481,256c0,124.3-100.7,225-225,225C131.8,481,31,380.3,31,256C31,131.7,131.7,31,256,31
		C380.3,31,481,131.7,481,256L481,256z"/>
	<path class="st2" d="M256,46.1c-115.9,0-209.9,94-209.9,209.9c0,115.9,94,209.9,209.9,209.9s209.9-94,209.9-209.9
		C465.9,140.1,371.9,46.1,256,46.1L256,46.1z M351,296.4l-9.3-4.6l-59.1,4v8.7l26.8,38.6v23.4l-37-18.3l-3-7.7L256,370.1l-12.9-29.5
		l-3.1,7.7l-37,18.3v-23.4l26.9-38.6v-8.7l-59.1-4l-9.3,4.6v-54.1l-0.1-15.2l12.9,31l58.6-28l3.2-35.9l20.1-93.3l20.4,93.3l3.2,35.9
		l58.6,28l12.5-31.3l0.2,15.6L351,296.4L351,296.4z"/>
	<path class="st0" d="M276.3,102.6L256,51.4l-21.5,51.2c-75.7,10.2-134.2,75.1-134.2,153.6c0,85.6,70,155.1,155.7,155.1
		c85.6,0,154.5-69.4,154.5-155.1C410.5,177.7,352.1,112.8,276.3,102.6L276.3,102.6z M351,296.4l-9.3-4.6l-59.1,4v8.7l26.8,38.6v23.4
		l-37-18.3l-3-7.7L256,370.1l-12.9-29.5l-3.1,7.7l-37,18.3v-23.4l26.9-38.6v-8.7l-59.1-4l-9.3,4.6v-54.1l-0.1-15.2l12.9,31l58.6-28
		l3.2-35.9l20.1-93.3l20.4,93.3l3.2,35.9l58.6,28l12.5-31.3l0.2,15.6L351,296.4L351,296.4z"/>
	<path class="st3" d="M161.3,227.1l12.9,31l58.6-28l3.2-35.9l4.4-20.1l-29.5-19.4l11.9,70.4l-31.4-31.4l-0.9,24.8l-46-17.4
		l17.1,45.2v-4L161.3,227.1L161.3,227.1z M229.8,295.7l-41.7-2.8l16.9,14.7l-9.9,12.3l21.5,3.5l13.2-19L229.8,295.7L229.8,295.7z
		 M256,369.9l-13-29.4l-0.2,0.6l13.2,64.1l13.4-64.6l-0.1-0.1L256,369.9L256,369.9z M282.6,304.4l13.2,19.1l21.8-3.5l-9.9-12.4
		l16.9-14.7l-42,2.8L282.6,304.4L282.6,304.4z M279.6,230l58.6,28l12.5-31.3l0.2,15.6v4.7l17.3-45.9l-46,17.4l-0.9-24.8L290,225.1
		c0.8-4.9,11.9-70.4,11.9-70.4l-29.8,19.6l4.3,19.9L279.6,230L279.6,230z M376.3,247.7l-25.3-0.1v22.2L376.3,247.7z M136.3,247.7
		l25.1,21.9v-22L136.3,247.7z"/>
	<path class="st4" d="M229.8,295.7l-38.2-2.6l16.2,14.1c-0.3,0.7-8.8,11.2-8.8,11.2l18.9,3.1l11.9-17.1V295.7z M239.8,176.2
		L213.6,159l0.1,0.3l20.8,50.9l1.4-16.1L239.8,176.2z M222.6,228C222.6,227.9,222.6,227.9,222.6,228l-29.5-29.4l-0.9,22.8l-44-16.6
		l43,45.1l36.1-17.2L222.6,228L222.6,228z M246.5,348.3l9.6,48.3l0-26.5L246.5,348.3L246.5,348.3z M141.8,249.8l19.5,17v-17.1
		L141.8,249.8z M298.9,159.1l-26.3,17.3l2.9,13.6L298.9,159.1z M364.7,204.7l-44,16.6l-12.9,22.2l8.8,4.2L364.7,204.7z"/>
	<path class="st5" d="M350.8,226.7L338.3,258l-58.6-28l-3.2-35.9L256,100.8L236,194.1l-3.2,35.9l-58.6,28l-12.9-31l0.1,15.2v54.1
		l9.3-4.6l59.1,4v8.7L203,343.1v23.4l37-18.3l3.1-7.7l12.9,29.5l13.3-29.5l3,7.7l37,18.3v-23.4l-26.8-38.6v-8.7l59.1-4l9.3,4.6
		v-54.1L350.8,226.7L350.8,226.7z M256,360l-12.8-29.1l-4.4-10.1l2.6,12.8l-4.6,11.6L207,360v-15.6l26.8-38.6v-13.8l-64-4.3
		l-4.4,2.2v-42.2l6.6,15.9l58.9-28.1l3.8,18.8l1.8-21.5l0,0l3.3-38l16-77.5L256,360L256,360L256,360z"/>
</g>
</svg>
